<mxfile host="65bd71144e">
    <diagram id="hTYIeFAmbD4GcjK3Tn6Q" name="Page-1">
        <mxGraphModel dx="3526" dy="1016" grid="0" gridSize="10" guides="1" tooltips="1" connect="1" arrows="1" fold="1" page="1" pageScale="1" pageWidth="850" pageHeight="1100" background="#ffffff" math="0" shadow="0">
            <root>
                <mxCell id="0"/>
                <mxCell id="1" parent="0"/>
                <mxCell id="29" style="html=1;exitX=1;exitY=0.5;exitDx=0;exitDy=0;entryX=0;entryY=0.5;entryDx=0;entryDy=0;fontColor=#F0F0F0;strokeColor=#000000;" parent="1" source="2" target="28" edge="1">
                    <mxGeometry relative="1" as="geometry"/>
                </mxCell>
                <mxCell id="35" style="edgeStyle=none;html=1;exitX=0.5;exitY=0;exitDx=0;exitDy=0;fontColor=#F0F0F0;strokeColor=#000000;" parent="1" source="2" target="10" edge="1">
                    <mxGeometry relative="1" as="geometry"/>
                </mxCell>
                <mxCell id="2" value="Commit / Push Code" style="rounded=1;whiteSpace=wrap;html=1;" parent="1" vertex="1">
                    <mxGeometry x="-318" y="532" width="120" height="60" as="geometry"/>
                </mxCell>
                <mxCell id="3" value="Scan code and OSS dependencies" style="rounded=1;whiteSpace=wrap;html=1;" parent="1" vertex="1">
                    <mxGeometry x="285" y="532.61" width="120" height="60" as="geometry"/>
                </mxCell>
                <mxCell id="40" style="edgeStyle=none;html=1;exitX=1;exitY=0.5;exitDx=0;exitDy=0;entryX=0.5;entryY=1;entryDx=0;entryDy=0;fontColor=#F0F0F0;strokeColor=#000000;" parent="1" source="5" target="6" edge="1">
                    <mxGeometry relative="1" as="geometry">
                        <Array as="points">
                            <mxPoint x="670" y="779"/>
                        </Array>
                    </mxGeometry>
                </mxCell>
                <mxCell id="5" value="Scan container&lt;br&gt;image" style="rounded=1;whiteSpace=wrap;html=1;" parent="1" vertex="1">
                    <mxGeometry x="286" y="749" width="120" height="60" as="geometry"/>
                </mxCell>
                <mxCell id="107" value="" style="edgeStyle=orthogonalEdgeStyle;curved=1;html=1;fontSize=14;fontColor=#000000;strokeColor=#000000;fillColor=#808080;" parent="1" source="6" target="12" edge="1">
                    <mxGeometry relative="1" as="geometry"/>
                </mxCell>
                <mxCell id="6" value="Push Image into&lt;br&gt;container registry" style="rounded=1;whiteSpace=wrap;html=1;" parent="1" vertex="1">
                    <mxGeometry x="610" y="532.61" width="120" height="60" as="geometry"/>
                </mxCell>
                <mxCell id="46" style="edgeStyle=none;html=1;exitX=0.5;exitY=0;exitDx=0;exitDy=0;fontColor=#F0F0F0;startArrow=classic;startFill=1;strokeColor=#000000;" parent="1" source="7" edge="1">
                    <mxGeometry relative="1" as="geometry">
                        <mxPoint x="855.44" y="321" as="targetPoint"/>
                    </mxGeometry>
                </mxCell>
                <mxCell id="124" value="" style="edgeStyle=none;html=1;" edge="1" parent="1" source="7">
                    <mxGeometry relative="1" as="geometry">
                        <mxPoint x="855.4361100367164" y="295.21000000000004" as="targetPoint"/>
                    </mxGeometry>
                </mxCell>
                <mxCell id="7" value="Scan image&lt;br&gt;in Registry" style="rounded=1;whiteSpace=wrap;html=1;" parent="1" vertex="1">
                    <mxGeometry x="795.44" y="404" width="120" height="60" as="geometry"/>
                </mxCell>
                <mxCell id="50" style="edgeStyle=none;html=1;entryX=0.029;entryY=0.517;entryDx=0;entryDy=0;entryPerimeter=0;fontColor=#F0F0F0;strokeColor=#000000;" parent="1" source="8" target="13" edge="1">
                    <mxGeometry relative="1" as="geometry"/>
                </mxCell>
                <mxCell id="8" value="Deploy into&lt;br&gt;Kubernetes" style="rounded=1;whiteSpace=wrap;html=1;" parent="1" vertex="1">
                    <mxGeometry x="1161.44" y="534" width="120" height="60" as="geometry"/>
                </mxCell>
                <mxCell id="44" style="edgeStyle=none;html=1;exitX=0.5;exitY=1;exitDx=0;exitDy=0;entryX=0.536;entryY=0.059;entryDx=0;entryDy=0;entryPerimeter=0;fontColor=#F0F0F0;startArrow=classic;startFill=1;strokeColor=#000000;" parent="1" source="9" edge="1">
                    <mxGeometry relative="1" as="geometry">
                        <mxPoint x="855.4560000000001" y="807.012" as="targetPoint"/>
                    </mxGeometry>
                </mxCell>
                <mxCell id="9" value="Continous&amp;nbsp;&lt;br&gt;scan" style="rounded=1;whiteSpace=wrap;html=1;" parent="1" vertex="1">
                    <mxGeometry x="795.44" y="674" width="120" height="60" as="geometry"/>
                </mxCell>
                <mxCell id="10" value="" style="dashed=0;outlineConnect=0;html=1;align=center;labelPosition=center;verticalLabelPosition=bottom;verticalAlign=top;shape=mxgraph.weblogos.github" parent="1" vertex="1">
                    <mxGeometry x="-298.5" y="362" width="75" height="75" as="geometry"/>
                </mxCell>
                <mxCell id="11" value="Programmer" style="verticalLabelPosition=bottom;shadow=0;dashed=0;align=center;html=1;verticalAlign=top;strokeWidth=1;shape=mxgraph.mockup.containers.userFemale;strokeColor=none;strokeColor2=#008cff;fillColor=none;fontColor=#000000;" parent="1" vertex="1">
                    <mxGeometry x="-798.5" y="512" width="100" height="100" as="geometry"/>
                </mxCell>
                <mxCell id="43" style="edgeStyle=none;html=1;entryX=0.5;entryY=0;entryDx=0;entryDy=0;fontColor=#F0F0F0;strokeColor=#000000;" parent="1" source="12" target="9" edge="1">
                    <mxGeometry relative="1" as="geometry"/>
                </mxCell>
                <mxCell id="45" style="edgeStyle=none;html=1;entryX=0.5;entryY=1;entryDx=0;entryDy=0;fontColor=#F0F0F0;strokeColor=#000000;" parent="1" source="12" target="7" edge="1">
                    <mxGeometry relative="1" as="geometry"/>
                </mxCell>
                <mxCell id="47" style="edgeStyle=none;html=1;fontColor=#F0F0F0;strokeColor=#000000;" parent="1" source="12" target="23" edge="1">
                    <mxGeometry relative="1" as="geometry"/>
                </mxCell>
                <mxCell id="12" value="" style="aspect=fixed;html=1;points=[];align=center;image;fontSize=12;image=img/lib/azure2/containers/Container_Registries.svg;" parent="1" vertex="1">
                    <mxGeometry x="821.44" y="533" width="68" height="61" as="geometry"/>
                </mxCell>
                <mxCell id="13" value="Azure&lt;br&gt;Kubernetes&lt;br&gt;Services" style="aspect=fixed;html=1;points=[];align=center;image;fontSize=12;image=img/lib/azure2/containers/Kubernetes_Services.svg;labelBackgroundColor=none;fontColor=#000000;" parent="1" vertex="1">
                    <mxGeometry x="1341.44" y="533" width="68" height="60" as="geometry"/>
                </mxCell>
                <mxCell id="48" style="edgeStyle=none;html=1;fontColor=#F0F0F0;startArrow=classic;startFill=1;strokeColor=#000000;" parent="1" source="23" edge="1">
                    <mxGeometry relative="1" as="geometry">
                        <mxPoint x="1031" y="431" as="targetPoint"/>
                    </mxGeometry>
                </mxCell>
                <mxCell id="49" style="edgeStyle=none;html=1;fontColor=#F0F0F0;strokeColor=#000000;" parent="1" source="23" target="8" edge="1">
                    <mxGeometry relative="1" as="geometry"/>
                </mxCell>
                <mxCell id="23" value="Scan infrastructure files" style="rounded=1;whiteSpace=wrap;html=1;" parent="1" vertex="1">
                    <mxGeometry x="971.44" y="534" width="120" height="60" as="geometry"/>
                </mxCell>
                <mxCell id="25" value="" style="shape=image;verticalLabelPosition=bottom;labelBackgroundColor=#ffffff;verticalAlign=top;aspect=fixed;imageAspect=0;image=data:image/png,iVBORw0KGgoAAAANSUhEUgAAARgAAAEYCAYAAACHjumMAAAydklEQVR4nOydDYgdV3bnT82IpRIEWwKz8wxGLtUYRmaGdos4WGJadDWuME9kBrUYZ2WPO0hiJm2JJFgGx6omztZ9xLNd9jpIZj1Y7jhYYtuxRBzUghn0ZrdCV6c1SCYe1O51kMKa55IwzAsYpnZXJJVFUMvtvs9qtfrj3Vv31sd75wdNHM2rW7f7X+/Uueeee84W6AFMPzUAYDf7+QYA1Og/s5+1SADgKvvvGwDwzwDQjFztao7TRpCeRyt6AjwYjrcTAB7TLXtQt2z634+wH13ibT4HgE8BIEpa4adJK/wEAD6Og0Yk8R4I0heU3sBQo2I45AQA2Bt4JHmwAACnIlc7W+AcEKRSlM7A6NbwVt2yn9Qt26Y/APAtACjTUi6my6qkFQZJK/xZ0go/Slpzd4qeFIKUkVIZGNNPDwPAJIuhVAXq2bwQuVpY9EQQpGwUamB0a3iLbtlDhkMOAcDTkmMpeXM1Dsg5AJiLg8ZC0ZNBkDJQmIFhOz/vA0C9qDko5EzkakeKngSCFM1Xirip4Xi7AeCzHjUulMOmn84ajldkUBpBCic3D4Yth75vOKTeA8uhbvkCAN5pT9k/SVpznxc9GQTJm9wMjOmn7zPD0o+0AWBf5GoYm0H6CuVLpNr47PdNP/2sj40LsF2xa2zZ9O2iJ4MgeaHUgzH99CQAHFd5jw1YeRxgNTsL3Aqn83omcrWZgu6PILmhxMAYjmcaDnlLcRA3BoBP6E8ckPaKM0VRt2n9huMZzNDQn68bDnmEGZ9B1VnDSSt8M2mFfxIHjUTlfRCkSKQbGJYs967scVewAACNPDwA00+fZx6YKmMTxQHZEweNtqLxEaRQpBoYw/G+YzikKXPMFVDDMhG5mqrx18X000MAQBQZmtORqx1TMC6CFI4UA7NiC/qUxNgGXTo0k1b406QV/m0cNGJJ4wpjON6w4ZBRVhbicYlnpGbigDQwAxjpNaQYGLaUOCVjLAZdOhwo8xfO9NM6y0Q2ZI0ZB2RXmX9nBOHlq1kupp7LQyeiPwaAVwDg32WcC/VYgjggL7anRo4lrblSxyXioPEpALxBjeGWbeZ2GZ4bOz3+i7L/7gjSLZk8GMPxDhrO0gG/rNC39kjkaoUvg0Qx/XQSAFwZY6Eng/QKwh4MC+ieBoCtGe7/OQD85/aU/cdf/M2RyhoXWPZo/g4A5nTLTthWt7BHxzyZv01ac7flzhJB8kXIg5G0FR2zLdobGccpHZJ20+jf51HcwkaqDPdRAXZCOKtxoV+aHb1oXGDZm/k5ABxgcSVRDMMhByVOC0FyR8DALGXoZmGmPWXbVY63dEPkajNJK6yzDGNRXjYcz5Y4LQTJFa4lUsazRX17Bsf002vs+IEoI1iSE6kiXXswtfHZ72cxLkkrHOtH40JpT9nfo55bhiEuGY73mMQpIUgudO3BsJILIqny1HPZg7VQMgfHZyJXOyB5SgiilE09GN0a3mL66QVR48I8l743LrAclzmTtELRXJnvmn76nOQpIYhSujAwNl0ajQqO/0x7auRvBa/tSdpTI68CwBmBS7cAwGnW3RJBKsGmSyTTT6lLf1hgbOkuPTv/89yKei0xywKeiwNypkrtXTMsOd3I1V5VMCUEkc6GHgyr/i9S6rLdnrKlpM0bjvckXaKZfvorALjEvKnOF9NgLWU9wyH/y/TT2dr47CEZ91VN0gp/JJgnc5QVykKQ0rOuB8P6Fn0mcFqYehU7ZOS5mH5KqPEQuHSBncYutUeTIeiLfZeQSrCmB6Nbw1sESxF8HgdkjwzjUhufPSloXCiDhkPmTT89UeaYReRqZwBgWuDSw1g8HKkC6xgYe0iwnu6bMtL/TT89qVt21mLhDwGAbzjkepl3X+KA/JnIdYZDfiR/NggilzUNDOsVzctCe8p+O+uEDMf7joJOBG+afnrJcLxhyeNmhi3jRgXiMXWMxSBlZ80YjOmn/8rZeZF+OR6UFHe5kGFbvBsacUD8slXzF4zHYCwGKTX3eTDsQedt6xpKPLyo+nCfZzhkUvE9uGHxGN6g9CgLxiNIKbnHwOjW8FYA4P7yxcFS4anMmH76tMwatxtw3PTT66afero1/FAO9+uKpBW+w3kJ/VtlPd2OIMpYZWDsJwVqy0Zx0LgoaT55BmN3AgCpjYfzpp8qbbLWLUkr/InAZU+zGj0IUjpWGxje5UkSB0Rmtu5uiWN1C/1yflYbn32r6C8qa81yVODSJxVMB0Eyc0+QV6BuidTjAKafprLGysDTkaudL3ICAscIzkWu9ozCKSGIEF96MCwh7Vs8Fyet8KdKZtUdYdIKxzJWjFuLadNP3zcc75BuDfMGu6WQtMIPOC8ZUjQVBMnECgNDTvB2KkxaYaEnpdtTI+9FrvYoAIywIwoy2LIc1yBnauPhBUljcpG0wp9xXvKQ6acqt/YRRIiVMRje+MtCGdq5wvIWbyh44nsz6nTZaDierHa43SJSP6d0SYQIsmRg2PKIN8A5oWZKYkSudjEOyINJKzyVsZr/agYNh/yD6acndGv4AYnjrgsz3Lw1Yw4XtaRDkPXoeDC89V4XIlfL2vdHOnHQaLenRl4AgEclx2aWzjXlvKXd4Py8oVt2aQ92Iv3JkoHRLZu34j3vw58rkatF7Sl7LwAQALgqcWj6Bb7OzjUpPc1MfwcA+ITzsm8qmg6CCNExMDxvvrgK3QGS1twXkas1IlfbQ70PiUPrywcNyWXTT4nheCqXJR9xfv4RRfNAECE6SySeB5P3rVo4katNxAEZAQDZ2+qe4ZBZw/EOsho6UokDwhXsNRzClWaAIKrpCwMDy/GZMHK17wHAEclB4N2GQ87VxsP/JnHMDh9zfr4056oQhPIVdhq3azc/Dkilm7GzU8sqtrSfZrWDZR7W5P1b572djiAb8hWB8z+Vb1gfudr5OCA74oAcFyiRsBGjAHC9Nj4rJQCctELeuaGBQUqFiIH5Z0VzyZU4aERx0HgjDsgeAJDZ97mmW/abMgZKWnMJ59x000+z9MBGEKlQA/MNzmtKXamflzhotCNXG5F8rmnQ9NO3JAV+eeeEXgxSGr7C+0CWvRWIKCvONZ2SNORR3bIflzDOP3F+voiSFwiyJl/hPCJQqjq2KmhP2X8SB6QOAKcB4HaWsXTL/l0JU8K+3khl4TUwMrNiS0nSmrsTB42fR652LA7I72Q5pc3av+TNwwXcE0HWZNPm9/1MHDSoQd2VIe4k49wSrweD5TOR0oAGZhPYuabfZueaPue8PHPAVWK3BgTJHTQwXdA518SWTDxg+QSkr5F+fqYX0a3hrbplf99wyIucl95RNCUEqQRoYDaBpf5fEGwIx7ukWuv+GFNBKssWtvXcrSvfNwWNDMczdMv+QwB4MUMzOBmJe7wGpud3+pDqsIU9kN2+nfsiS9T00+MA4GXtMhkHRMYRBN45/JuEeyKIFLiDvPTNrmYq5cD0U2pYTkpqYSsjSQ7PFiGV5St41mWZ2vjsftNPr7DtaBk0k1Y4J2Ec3sQ5mQc3ESQTWwROR9d6oWRDB+qRGQ4RDeKuRztytX2SxuL1YPBoAVIaqIFpsnhDt3y9F96SrA/1d9jWs8xatknSCkX6S9+Hbg1v5TQwtzExDykTWyJXu2r63beENhzySByUuqnApph+ehAAzikYmnoPR9pTI1K8CN2yeQ3fFzLuiyCy6AR5efI1KrtVbTjeE6af0uXQtOSh20krfDEOyJ7I1WQuUXhr9fTM0hXpDTqJdp9yFIyu5K6G6aeEcynYLU2J8ZZ7MBzC+7fuyVo9SHXpGBieB7NymaWmn54EgOMKhg7jgDyjYNwOXH/rqhdkR3qPpSVS0go/5bnI9NPnlc1IEro1/JDpp57pp9cVGJerSSscjVxthPWRVgVvdTrcQUJKxZIHk7TCT3SLa5eWfmHfUDarjLDC1xcUeFvUQ9gnOc6yJux34J0/bx8lBFFKJ8j7S87rTNNPDymYTyYMx9tp+um7AHBNsnH5AgBIe8r+7TyMC2OS8/NRr9ZLRqrLkgcTB43PDWepTSlPUJEAwFl1U+PD9NPnWB1d2URxQEby/PKyHJ0652Wl9SiR/mXlWSTeavqm4XjDkufDhW4NG4bjPWf66SUAkNKLaAVR0gr/KA7Io3l7BgLFwpM4ICryehAkE9rK/8f0019zHvI7FbnaC7ImY/pp9xl/ywHNREGbDjrmMdZithCYweTxYK5GrrZH4ZQQRIjVBaducH5hi+zBoyof53DkaucVjd0tuHuE9AT3lGtIWmHAef3jpp/yxgo2orBzNEkrPB0HZEfRxoUFqblKRUiqO4Mg0lltYH7GeT31gN43HE9WcesivigRAOxoT40cK3oXxnA86pUdFrj05wqmgyCZWW1gPhJwtw3dsp+VNJ+3JY3TDVdXbD2XYntXt2yRrX9fcbIfggijrf4H009tAJjlHGchcrVdMiZk+ulnORxH8CNXm1B8Dy5YcfFfcbY6iSJX26FwWgiSiftKZkauFgoUjh40/ZQ3MWxNklaocrt1hp14LpVxMRyvxjKPeYzLHQA4onBaCJKZr67z71t1y+YN3g4BwFzSmsu03NiyzfxH3bJ5+w9tBl1CPBO5WiNpzWVuJSKb2ng4L7Bz9Pf091E0JQSRwnpFv4VqyRoOOZhtOktZxW0Fb+bDkavNSB5TCobj2YJb7rhzhJSeNQ1MHDQWAEAk0WzMcLzvZJ1U5GpnklboZxzmRhyQw3FAHoxc7WLWOanAcDzdcIhIjZokDsh7CqaEIFK5L8i7EtNPZwWLYR+Q4TGYfjoKAO8L9HieiQPyTBw0kqxzUAnLeRHZlm5Eriar+wGCKGO9GEyHOd2yxwDgNznHHdUt+/LtX569mWFu1JO6QY2Fbtn/jxmZBzZY1n0BAP89Dsjx9tTIj5PWXKn7QtfGZ3+4ZZv5nwQu/ShyNVlpAQiilA09GFh+y04CgCsw9o3I1R4Vm9baGI5nGg6hb/zHWLYr9VA+BICFOCDNsnssHVi/6esCnhksL/sapTnFjiAbsamB0a3hh2rj4T8INlxbaE/Z3yvjzk1R1MZnv61b9geCf8+wPWXvS1pzlTCkCLKpgYG71dWuCd5jJnK1A4LX9hwZEgnbkas9qGBKCKKMrnpTsypuotuio6afigQyew4W1BXNUi7lNjuCbMRmQd6VfKpb9g/WKPHQDaO6ZSe3f3n2FwLXVh66LHrg9878fYb2tFF7yj5y59c3/4/kqSGIUrpaInVg28YXMtzvTORqfZXezgK6VwRjLsCykHdgS1ikinS1ROoQudpM0gqzlKY8bPrpZ7Xx2SczjFEZauOzP2S7RaLG5dM4ILvQuCBVhcvAwPJhxD/J2EHQ1C37p70clzEcTzf99F3dst8R2YruEAfkxaJr1CBIFnhiMEuwBLbzumVvBYDHBe+7BQBGDYc8AgDXktZcz7yhDcezDYf8Jf39MgxzGwBeak+NYL4LUmm4YjCrYY3ks3yROoyW9bxQtxiOVzMccklSreDS1atBEBG4l0griQMiq1zAuSovmUw/NQyHvC/JuMRxQLDHEdITcC+RVpK05toAcFG3bJudExKls2Q6rFu2vmWb+Y9VyFY1HG/QcMiJLdvMcwDwiIQhL8cBGWYlKxCk8mRaInVgXzTRTN/1OBq5Wp41ernIcBJ6PWLW5A2NC9IzSDEwcNfI0GXCTlljsu6KH7BuBwtFFrc2HM/ULft3dcv+Lqs+x9VaZANuA8CbdFmExgXpNaQZGLgb6Lwu8cu3mjOsFkpuW7fsHNakQK/objkeuRrGXJCeRKqBgbtG5iAAvJwxLrMRnwDAR3Gw1LD/YwBoJ60wyhK30a3hrbplPwIA3zAcMsjODO1W2OHgU5bnUundMwTZCOkGpgPLB+Ftf5KVkLW//acV/Z0WVmbCstR9k3lZ1JA8zP6vqla0axHHAdmFSXRIr6PMwMDdHkuXsmSz9iDUqJQi/Z/pY68o4LV7Ha2osW6z4l4Ra7Z/o4Ap9x1V10ipgYFlT+YxwyEEAL4reBK7V6Diz7Sn7B/nXYCL9V36tuGQx5mntlPC0i9mS9VP4oBcpQ82K3GKCNCrGik3MB1MP30OAE7ndb+SEUauNpL3Tdly8KSkbOtuoA80waB19/S6RrkZGFi20jsNh+wHgKM5tIctAx/FAXkzaYXn80ocNBxvULfsZ3XLfqrAvzF9iD+IA/JB0grnqpA0mSf9pFGuBqaD4XiG4ZCTkhPVygQV69W8W4soSP6TAXXN95Uh5lQG+k2jQgxMB8Px6JrzRyzHRLRmSlm4AwCX6XIoDsh7cdD4NI+bUmOtW/bzumUfV5h/lBVqcK8mrfD19tTIz4qeTN70s0aFGpgOKzya0RILsBERAByJXC3Xdq6mn9IH1qvY36wSTfFk0e8alcLAdDD9lIrwFgA8XfRcOCiktILpp88DwKm87yuJviidihqVzMB0MBzPBIAnDYc4ADAEAA8VPSdGwvINFuKAUG/l53mfj9Kt4a/XxsNXAOCpim/7X40DcjwOGh8WPRHZoEZ3KaWBWQ0rNj7MgmNFuJp0CfRGHJBzRR5IZB7etR7agaMGew9ri9MToEb3UgkD00G3hnXdsncCwDeZdyMzGn+b9be+QQ1KHJA281Y+LkNKf218dr9u2ad7IBi+GvoAN9tT9jFWX6iyoEb3UykDsxKWQs171ulqJ1oOAP/G/i1cfV6pbLAT3VdyOHIRrVHQvSa5BMd6VLoDKGq0Nn1lYOKA1OOg8XN1s5KLbg1vrY2Hf84SE2U9uJ04UsTSx5dOo2+WQs5S2elD/DXdsgfpD4uPbZU0L2BHKSrlyaBGG9NvBsaNg8ar6mYlF9NPTwCAL2k4+tCeiwPSkLXkY+kFxwHgeYmxsUp5MqjRxvSVgQGA05GrHVM0JamwYGGWpm0rocu/ZyJXa0oY6z7YEZC3MrTGXUllAr+o0eYaZeoqUEGcoifQDbo1nLXdbIerSSs8HAfkQVUPLix5ho0bkauNxAHZkbRCnz2AotBlxhXD8Z6QOEXpoEbdadRvHgxlJO+MW14knFdps7MlhXgB7M1+idUuEeVq5Gp7JE5LKqjREptq1G8eDOWkbg2XtgCW6aeHAGBM8PI7AHCmPWUXusSIXC1uT9nfAwDCtv9F2E2/xIbjlU4r1OhLNtWoHw3MoG7Z3yl6EmtB18mssLlo9ufLkasdSVpzheftJK25LyJXa8QBEf0iUg6zThWlATW6jw016kcDA4ZDynZcfgnDIX8qeOkXAHC8PWX/heQpZSYOGhfjgFA3ekZwiNHa+Ox+ydMSBjVak3U16scYTIddZdqpYJXNPhO5Ng7I4TholL5RfoZe5oVUBFwNarQha2rUlx4M42TRE1jFu4LXUSN5XvJclBAHRDQHaTcLShYNarQ+a2rUzwbGptZat4ZlZjkKYfqpJ5CfcAcAfOraVqW2Shw0rsYBGRUIKurUWy0yOI8abcqaGvWzgYHltWP4wyInwEpTiJTW/GnkahNVeXA7sEZzrwtcOqhb9rCCKW0KatQ192nU7waG4hqOlyUXIBO6ZYsEMOM4IC8rmE4utKfsn7ADp1wYDnlKzYw2BjXqntUaoYEBqBkOuWI4Xp6dHb9Et2yRgNqROGj8o4Lp5ELSmvsCAPYJZJMWZWBQo+65R6N+3kVazQ1WhzS3nSV2PuQa5yncZuRq+xROq2tW1Od5mP3T/05a4UdJa66r9XttfHZSt2yX87bH8+y7hBpl06jK5fxk03mQduVlZAyHnOA94h8HpBTN69iOwewaPb0jADjQTQpA0grfFnh4CQDkaGBQoywa4RJpFYZDRLciRRBxvecUzIMLVnfk2hoPLrBSkbPdLDlZSQLec2EGy6bNC9Qog0ZoYO5n0PTTX5l+6unW8AOqbsJOovLmdhzPu8j4auiDazjkbzapOWsYDnmrm3NEcUCOsVIFPORy0ho1WiaLRmhg1oZaf1IbD+cVJnjxBpXbRfd8Nv100HDIdVYlbTN2Gw7ZtP0Mq9LG9XsZDslr1w81yqgRGpiNoW7er2rjs2/J3mUyHMI7XiDz/rzUxme/z+qf8Bhcr5sPxQE5xZnY9S2OzwqDGt1FVCM0MJuj65Z91HDINdNPL0j0aLjiCHFALku6Lzf0rahb9rRAzdmuWnewJQXP75eLgUGN7iKqERoYPkYB4Nemn16vjc/+V8PxDmYIOPJ+SQppULbirSiSpt918e6kFfLs3Bmmn+YR6EWNViCiEW5Ti7FTt2z680ew7EoDO+r+MTvY1k1AjCuAnGd+TgfWikPkrdjhXLcfpA+vbnEd9amzHlYqQY1WIKJRPxmYBgDsFwjcdcuo4JZmN+T+4LJtztmMrTh4AoP/zDn2SdNPy3QiHjW6H6OfDAy0p+yna+PhOYVGRhVd5yEYjrdbt+z9rCeOzrypG3FAprtNXV+xzSkcb0pa4en21AhP1TbV3ohqUKP7eaKfjgo0IlcjkK2oTlEciFxt02pjpp8+DwCn1vmfu2o1wVzu2Yw9dBZEShSYfppmuGfRoEZr3KMvg7ztKfv3WTpz4XVRu2TTmI7pp3UAeGWDjyy1mmABwTUR3OZczQcZ6p9U2YtBje5nsC8NTNKaux25GvVodmSoQ5obm7VZYdmYl7poEarrlj3N3oD3kGGbcyX0rfj7GeqfVKZl7GpQo7XpSwOzkvaU/UwcLBUB/6TouWTg2xyfXXpLmn56slPNL+M2J7AErONVqtxWAH2pUV8Fedciac0lSWvuLACcNxwySUUoek4CPMT5efqQHq+NL710z2bc5gTWiqPQFPkK0Jca9b0H04Fa9cjVXsjYrU8JCs9DHZWwzUld7rclzqmSoEZrgwZmFZGrnY0Dso0VPn5H4BSpCjbbVv9UcFy9wGDhWnSVtl5SUKM1QAOzBnHQiOOgcTFytT+IXG0b82qKNDSbifrLAuaXNVi4FlU2MKjR/YRoYLqAejXU0MQBGYwDQl1WHwB+yra57+QwhQ3rn9AHKA7Ivhx3YWS/FSHnIlIqQI3uJ+77IC8PcdD4GAA+joPGl/9mOJ7Oal8MMlf2sS5dWp5DHfUu5naVrtcNh6jedlfxVgRWg4eHKIc8JtToXng1+hgNTEaW30yNkLesoOmn/7eLnIgvP244Xi0OGhu+/Vg/m1HDWaoJy/swbMZtAHg5DsjbirY5H+P8/JHNck+yghrdB69GIRqY4vics94IdcEvbvYh9gCDgrek0m1O3ip1qo0LAzVagYhGGIMpDt61eNfBNfYAn+Gf0rrksc3JEzzM64gHanQv3BqhgSkIzuI99O3BVYgjcrUjbKs9a1BRerBwNaw1K88J91zOLKFGdxHVCA1MQfA+vN0EEVdD35Js10sUVcHCezAc4nEmkuVSewU1uouoRmhgioO3vKJu+ulbvDdhD7DIW1L5WxHunjDetLL9SuKAfKRuRveAGmXUCA1MQbBWELyxhKPMVeW9F+9b8kzkar+n/q24dML4fYE0+F8omtI9oEbZNUIDUyy8LTlBt+wfityoy7dkm34mcrUjIvfgRbfsgwJp8DObbQVLBjXKoBEamAKJXO08r1vcKTQuAnuAR9Z5K8dxQA50tlDzQLdskdjDCwqmsi6oUTaN0MAUz1XOzxumnxLRm1G3nxXaOgAAp1nBrWPLRyEavHMRhhVU4u3QGEWuVkQVQtSoe+7RCBPtCiZphTO6ZfPWB/Zq47Pz7amRvxO9L6sfW0g1P90aNll1Ny6SVviBmhltel/UqEtWa4QeTMEkrfC8yHW6Zb8ufzb5UBsPPZE0+aQVvqdmRpveFzXqktUaoYEpGLYLcJhVlOdh0PTTC6w3TiXQreEtpp+eAIAxgcvPFNHYDFAjHu7TCA1MCYhc7SwAvCpw6ajhkOtVeYBr4+EfslIXvEvzOK9dk/VAjTZlTY3QwJSEOCC+YOFxw3DI35T5AV4uaeEdEtnyhWW3e70+QrmCGq3PehphkLckMDf8dcMhIgfghuhbEgAezTlHZFNYvZwrGbppxkkrLEVBcdRoXdbVCD2YcnExQ1lF+pbkTlNXDTvDkqVVbyMOGmWoi9wBNbqfdTVCA1MilmsBL5VVFH2AR00/vVYbn31S8tS4MRzvm6xF74uCQ9wBgOORq5ViedQBNbqHTTVCA1MyWCJVli/VoG7ZQZZEr6yYfjpqOOQy6/8tugz/oKy9llCjL9lUIzQwJaQ9Zf+FhAQrz/TTX9fGZ/9c5PAdL4bjGYbj7Tf99BIAXMjYaiNqT9kvS5yedFCj7jTSMtygUEw/tVlDqm5pRK5W2BtDBOpKZ1wbr+R05GrHJI11D6afPp/xjb6SNgA8GrlameIu64IabQwamBKjW8PfqI2HocTi0AkANOOAhOww3YciOxqG49Ev1BOGQ4YAwJE5v6QVPt2eGsntMF9WUKONQQNTclhL0lmJb8nV0Ie4yYor0f9eWPlmMv10N3s4h1kbD1XzoF+sPZGrFZKtmwXUaH3QwFQA9gBfV9DmokycYr3BKwlqtDYY5K0A9G3VnrLtvGrR5gx1/0l7yv6zoieSBdRobdDAVISkNfdPkavtKur4viJusGBhI2nN3S56MllBje4HDUzFaE/Zv0/fJgU348/KHQA4056y91Vlt4gH1OguaGAqBn2L0LdJxmzSovlR5GpHktZcEdXplIMa3QUPO1YUlk26AwD2Gw55EQC+VfScumA6DsiPWbX+ngc1QgNTadgBs7MAcN5wiAsAJwTaS+RByJrV96THshH9rhFuU/cQpp8ektzvWAaELheKnkRZ6DeNMAbTQ0SudjYOyG8krfAw28koou5IAgBXk1b4YhyQHWhc7qXfNEIPpscx/fQgK4Go+jBdvNxwi7zaLzEWWfSyRhiD6XFY47DzhuPtBIAndMsepD8s4/QhANgqMOwXrHTkjTggC8sN2Bu8fZwRRi9rhB5Mn8Oaa+1kP/9+jXMsEQDcZP83ilwtLGiqfUuVNUIPps9hB9d6Mb29Z6iyRhjkRRBEGWhgEARRBhoYBEGUgQYGQRBloIFBEEQZaGAQBFEGGhgEQZSBBgZBEGWggUEQRBloYBAEUQYeFehzqnzOpV+YaPJpNFkvj0ZoYPoEWSd1TT+FspzU7TWGxpY12j5gDz48IK7RRPNejeanlzW6PI2nqbsGT1N3Ry/XGukVJpr5ajQ/TV69PJ2PRv1kYJQ1Fi8ThuPpumUf1C17FAB2F9BpsFMtbSZphRfjoNF3dXg3Y2jM07cP2AcfHihWo5uL4cytxfDi5Wl1GlXZwBgA8GuOS8LI1UYUTqlw+q3eaxWZaJZTo8m6Go0qa2Bg+QuVcnw8jlxtm8LpFAb1WvqxYn2VoF7L3rHyazRZl6vRV2UOljeGQ45yBMCoqD9JWnP/onhauWE4nkGXQ4ZD6BvxP5Y4aG8CwHHDIY8AwPWkNfdF0RPKi6Exz6DLob1j1dBo79iyRrcW5WhUdQ/m2hpbdusSB2QPa4ZVeQzH22045BL9z6LnIsDhyNXOFj0J1QyNebv3jlVXo8l6do2qnmjH6849pmgeuaFbw1tNP/UqbFwo75h++q5uDaveNSmE7QPDWyeaqVdh40J5Z6KZvrt9IJtGVfdgJgHA5bik8jtJpp9eAIDRouchiRsAsKfXGuBPNHtPo8m6mEaV9mDigPDu5e9WNBXl6NbwN9iSsFceXGCZqddNPz1BPbOiJ5OV7QPD35ho9qZGE830BPXMeC+utAdjON6g4ZBrnJftqNpuBtuSv15AvkSenIpc7YWiJyHKRLM/NJqs82lUaQ9GIAYDVXu7MOMyq/DBpX/D0wBwBABGAGBb5Gpa54f92wH6cClunXGUnYuqHMy45KrRZF3TOj95asTORXVNpT0YWP4CXgKAOsclcXvK3pG05kq/7qfLotp4GEp8cBMAaMYBCdlD+2EcNLh7I1PPEQCeMBwyBACOzPklrfDp9tTIRUnjKYcui559Tb5G89N3Nbo8za/R0NiyRnvH5Gt0czF8+q9f6k6jXjAw1CO5wHNNHJDDcdAo/TYp7zb8JigLcJt++jx7e8qAfpkerUrgl8VcpGk0WVej0URTvkbdBH6rvkSCyNVmAIArt8VwSKmXSWwr+oKEBzdOWuErcUB2qNw9i1ztjTgg2+Jg6e/azDgcfdNe063hr0uanhLYVrQUjW4uhq/MT5MdqowLZbKuvTE/TbbNT8vTaPvA5hpV3oOBuzVNeIO9u1hLztJh+qkHAFlPfhd2epx5le9mzAE5F7naMxKnJZWJphyNJuvFaDTRlKPRZH1jjSrvwcDd3r2fcF52wXC80iV6GY63GwCOZxhiIWmFTpGlKahXGQdLa3/qXd4RHOYptvQqHUNj2TW6uRg6RRkXWPZoZuans2vEll7r0hMeDIi/9aM4II/GQSNRNC0uDMczDId8luGtMhO52gHJ08qEQDLkal6IXE1W7CAzQ2OesXcsm0aT9XJpNNHMrtFkfW2NesKDgeXArchyh3owwwqmI8r+DA9uHAekdFnKcUAaGbdOPWp4JU4pK5k0mp8un0bz09k1ooZ3rf+h0qepV3Fz628d/i7vdpxu2Y8AwHtJa07UTZQCK7lwBgD+g8Dll+OADItsOauG/V3PJq3wU92yqUv+m5xD6HSY2788O6doil3DSi4IazQ/TYZFtpxVc2txWaNbi+GnDw+Ia/Q//8f9GvXMEgmW3XHqkXwmcGnhSwvTT+nyzhO4NGbLvNI9uKvJsJ1dilo+E01xjeanyaNlNC6rybCdHU/W79eoZ5ZIsBxcjFjQipfR2vhsYQFFVonuhMClM1UxLpT2lP0Tttbn9RYN00/fVTStrmCV6IQ0qopxobz3krhGE837NeopDwaWlxq24RCeWr0dEnayN9eta7Y0+leBSxciV9ulYErKYcbiMO91cUB2xUEj99QCtjQS0miyXk2NmLHg1mh+muy6PH1Xo57yYGBpzR9eZuc2eKHryCu18dnvK5jW+je17IMi1yWt8EX5s8mH9pTdYNmgXOiW/ayaGW3M9gExjW4uVlej914S02j7wL0a9aCBmbvDslZF2jLoumVP53nojlX/56XRnhr5OwXTyYWkNUeXsvt4r9Mt+yk1M9oYVv2fl8Zfv1RdjW4timn08MC9GvWcgVnBOcHrqCczm6OR4a1RE/dCfye2FOUtX2qyQH7ecGtUZBKdLCbrYhpNNO9q1LMGhgUURdfrBgBcq43P/qnkad0Da4rGta2etMI31c0oX5JWKLKUPalgKuvCmqJxaXRzsXc0urmYTaOeNTCscv1IlgQi3bJfMf10VmGil897QdIK/0rNVPInaYXnWbdBHkYNx8uzqBO3RrcWe0ejW4tiGg2NLWvUswYGlt3wOA7IvoxZiku7UobjHdStYWn9bFivaF53/3QvdUpkRzSeYTt4PHxb0ZTugfWK5tZIZafEvLk8nU2jnjYwsPwQtyWk0A8aDjlXGw+56s5swhOcn0+qXrB8LSJXa/LGywyHPK5uRvfArZHKkgtFMVnn12jv2LJGPW9gYNnIXGW1SrImO9VNP/216acXDMfbn2Ug3bJ5g8hZa3iUFnZeiecNmUsAfvsAatSBnVfi1qgvDAwsG5mLcUBkRPaN5TgAmTH99DNW+4QbXgPDylz2JGzZx7OM3alwOl/yMKeBYWUuexK27OPWqG8MDOOs5KLIdH1+gXo0pp/ybmXyBip7Zl2/Djy/X15b1ajRvXBr1FcGJg4aSRyQPYLboxtBvZgrpp9eN/30Um18dtJwvEOG4z2+QVGrhzjv8aGEeZaWOCBc+Ramn9rqZvMlqNEK5qf5NJpopnZZG3ErY3nnonHM9FNd5KzFJlC3cKdu2XXduvv8G87Syixa9QbgaWIViR5onGimdQB4ji3tYgB4mwXtMjM05g3uHSPPr/Ao5uanyWnBg30fc36e/oGFlyTsfNFuptlqT+Vr7N+5NKrKgcYMcGvUdwamQ+RqRwzHe8NwyF8CQB67EmYG157LIGwfGN6yfcD+4d4xcniNLNTRiWZ6dX6anLm1GP4VqwXCxfaB4a8/+1r4CvPcVm7d29Tg7B0jp997yf7xrcW52xzD8n45hfqMM6NIDe5TAPCAyBjr0LMB3hVwa9RXS6TVxEFjIQ7I7yhuViUDLtd7+4D9LP2Sb5Divpv+76sPpnXLs6+FrwPA06uMSwfqKbnPvhZyZUHHQYP37Bh38iMzLtcA4Khk4wK9vjyC5UAvt0Z9bWBg+cGOI1fblbTC4wIZi3nBFTzcO0a6Kkjd7edWwlLnv9vFR492sjk54Pk9uWMwe8fIf+G9hoNeD/B24NKo7w1Mh/bUyBsAsEPgcFcedO1hsdae3W6vDvK2AmWp890srY29Y+Qo59jKvqTsAJ6javwKeMGy4NIIDcwK2NGCA1mChyrg7HLI+2bn/TxPHKlMBdWVJud10+WwH0EDs4o4aLQjVxuJA7ILAN4ROINRNLyxia4/PzTmSTuLVQCVbKxfddDArEMcNBYiV/sDAHiwYjsEvN5X159nB9943tRlikv0yxKmVKCB2QS6PIlcbR/1aJJW6LMHNVevhiepjCVDfd7lxz/nTZ7iKF+QzE+TNzjHVlaGgaXxK1vGTDRzSfwrA1waoYHpEurRtKdGJlih7QdF6oRkoOtlDPMy3uny4++wz3fNZF17tctypDMriz93Cc8ZI66xL0834gxVDruhTM3hVMKlERoYAZhXMxEH5DfigAzFwdJ27xn20KvI5uQKlr73kv0XrLfNem9s+u+n2Oe4ubkY/mgDI3OHGpf3XrJf5hlToIgU99+ZFbIWaWvTDWUKaCtBIO2g3beZvDJgBZN+QX/ioPHlv9Mvi+EspaE/wZLdjIxBRi73+9bi3O3JuvYCALww0UzfYollHU5nrVny1y+N0N/50YlmeoL10Om8vSP6/0/WtfMCw/KekOZObLu1ONeerGsH2Nb8+5JPZffDEolbIzQwClguctWY2ehtafppyjGksHFixkRJESS2XHpV0nBf4/y8cDxlsq4tDI15u9hZJH2tmNpkXQsnmvloVCG4NUIDUxxf8KSrG443WETTsbzIuwDX5elGcnm6sdkOGpdGQ2PeoEDcqTKIFODCGExxfML5ed7yjZWC08DEkauJ9L3iBTVaAWcBrniyrt1AA1McXF8QwyFD6qZSLKxrA8/vx/vFF4VLo71jvavR0JiYRmhgCiIOCK8rrfIcTaEYztIuHE/tlVwMzPw0atSBHYzl1ggNTHHwPrw100+fVzSXwmDtW7h+L97qdxng1mii2XsasfYtXL9XJ4ETDUxBxEHjQ4GdkFMKm8AVguGQtwSS1HKpvXJ5WkwjtpzoGfaOiWuEBqZYRJK+eiahi9Ur5s0fiQWKU2WhrzUaGhPTqFOcCg1MgcQBeZX3XJPhcNdYKS26ZT8ncFmuTeXnp/k1EqiDU1q2D2TTSJM7HYQX00+vbFDacj0ORK6mKuU9F0w/pS73r9Ypu7keceRq2xROa00mmmIaTdarrdFEU0yjyfpdjdCDKZikFYocwHvXcLxvKphOLujW8AMAcInzwaV8oGhKG3JzUUyjobHqarR9QI5GaGAKJmmFFwUuMwyHvKJgOrlQGw//UMAjoEvKQgzMrUUxjfaOVVejZ18T02h+mqCBKROsbapIXOG7pp9OGk61qsyxnt4vCly6kLTCOQVT2hTWNlVIo4lmOlm1SoBDY+Ia3Vq8VyOMwZQE009nBU/kLsQB2cNOdpcaw/F2Gw65InAp/d0e5KxNLJ2JprhG89NkD2/tnSIYGvN27x0T12h1bWL0YMrDEcHrBgHgoOS5KMFwyAnBS68WbVwYPa/R3jFxjdYqfI4GpiRErkbd8GmRaw2HvG766fO6NVzK0/HUczH99ALrBMlN0gpPyZ8VP5N1cY32jpHXJ5rp89sHyqkR9VwmmuIa3VxcW6OvZp4ZIpPrumX/kcB1vwkA9a2/dfhf4qDxCwXzEsZwvP2GQ4IMxZ1mPn91R0PytLJw/eEBcY0Gfufwv1yeLpdGQ2Pe/r1j2TR669DaGqEHUyJYhuphVnZShFdMP31Xt4ZFe2BLQ7eGHzD91DMcIvTGZ5yJA/KMxGllhmWoZtJoopm+u32geI22Dww/MNFMvb1j2TSan15fIwzylhBqJNhDLEobAPZFrlZI8SOWRHdJZJtzBVcjV9sjcVpSoUZChkaT9WI0Ykl0mTWarG+sEXowJaQ9tVScOst5mxoAXDP99EptfPZQXlvZhuOZtfHZSZb9meXBTVgh9dLCCohn1miimV75wWuzh/Layh4a88wfvCZHo/npzTVCD6akMC/guqReQTEAPBO5mpIGcobj7WSnomUUvk4AYE9R3hcPzAuQqtFkXY1GQ2PeTnYqWppG3Xhf6MGUFLYtK2v3hH4RLtClFzvBLGdQxzNMPyUst0VWVf1mFYwL3O1HLVUjuvRiJ5ilMDTmGRPNlLDcFmkadbu0Qw+mxOjW8NbaePjnrO2ILBc6YYWUIla46WO6KtusBALrW7QTAL6mW/Ygq6E7xFnlbDNm2lP2saQ1p6K3lBK2DwxvffY1dRqxwk1LGnVKIKwH61u0pNH2AXuQ1dCVrtF7L9nHbi12pxEamApg+kt9fK5IfIDXI1qjn3RNcv+g9ZiJXO1ADvdRAuu11PMaTdb5NEIDUxFq47P7dcs+rbJ/c0HQt3Wzap7LWvzgtdn9Dw/0rkY8nksHNDAVggV+r9H/LHoukqhMQLdbWOC35zQS3U7HIG+FiFwtbk/ZDmviLproVRauxgGxe8m4AAv8vvdS72g0P03sLLk66MFUFNZhoBRndAQ4E7ma6MHBysA6DFRWo8l6do3Qg6kokau9AQAvZOnRXBAzcUCU9MouG5P16mo0Py1HIzzsWGHioHEVAN6m6+Qt28zBHHYwRKHr+MtJKzz++as7GklrrupLh665PH1XI+Nr5dfo5mJ4/K1DOxq3FuVohEukHkLCGSYV0PX7SEnquRSOhDNMKljSaK16LllBA9NjGI43qFv2s7plP1XgTgZ9UD+IA/JB0grnktZc6Su55cnQmDe4fcB+9uGB4jWanyYf3FoM524tqtEIDUwPY/opfXhPihYREoA+tITFh5AumGgWoxGLDykHDUwfwNL8v2045HFWvnGnhDdnzBqcf8KOHHyYc8fFnoKl+X9775gajdiRgw83O24gGzQwfYzppzY7APcYO2y33mG4BVa/pNOruRm5GhqTHJhoims0WS9eo/8fAAD//7BDnqfZ2hPbAAAAAElFTkSuQmCC;" parent="1" vertex="1">
                    <mxGeometry x="-143" y="359.5" width="80" height="80" as="geometry"/>
                </mxCell>
                <mxCell id="32" style="edgeStyle=none;html=1;exitX=1;exitY=0.5;exitDx=0;exitDy=0;entryX=0;entryY=0.5;entryDx=0;entryDy=0;fontColor=#F0F0F0;strokeColor=#000000;" parent="1" source="27" target="3" edge="1">
                    <mxGeometry relative="1" as="geometry">
                        <Array as="points"/>
                    </mxGeometry>
                </mxCell>
                <mxCell id="27" value="Build Code" style="rounded=1;whiteSpace=wrap;html=1;" parent="1" vertex="1">
                    <mxGeometry y="532" width="120" height="60" as="geometry"/>
                </mxCell>
                <mxCell id="31" style="edgeStyle=none;html=1;exitX=1;exitY=0.5;exitDx=0;exitDy=0;entryX=0;entryY=0.5;entryDx=0;entryDy=0;fontColor=#F0F0F0;strokeColor=#000000;" parent="1" source="28" target="27" edge="1">
                    <mxGeometry relative="1" as="geometry"/>
                </mxCell>
                <mxCell id="34" style="edgeStyle=none;html=1;exitX=0.5;exitY=0;exitDx=0;exitDy=0;entryX=0.638;entryY=0.931;entryDx=0;entryDy=0;entryPerimeter=0;fontColor=#F0F0F0;strokeColor=#000000;" parent="1" source="28" target="25" edge="1">
                    <mxGeometry relative="1" as="geometry"/>
                </mxCell>
                <mxCell id="28" value="Triggers Github&lt;br&gt;Action" style="rounded=1;whiteSpace=wrap;html=1;" parent="1" vertex="1">
                    <mxGeometry x="-152" y="532" width="120" height="60" as="geometry"/>
                </mxCell>
                <mxCell id="51" value="" style="shape=image;verticalLabelPosition=bottom;labelBackgroundColor=#ffffff;verticalAlign=top;aspect=fixed;imageAspect=0;image=data:image/png,iVBORw0KGgoAAAANSUhEUgAAAloAAAFWCAYAAACxcTMMAAAsAUlEQVR42u3d+3dUZZ7v8f5lWvwtP87q8AN/QsklF5BDbEFahuYaCIQA4X4VQriIJEKWTcARgSAtoqiEPsogs45EWefQysHQ0z20to1kpl2n6fFgsFuZ1j50osN4XEs9+9R3pypWKrWffXv2pWq/X2s9aym5sKtSUB++z3d/n+99DwAAAAAAAAAAAAAAAAAAAAAAAAAAAAAAAAAAAAAAAAAAAAAAAAAAAAAAAAAAAAAAAAAAAAAAAAAAAEXLMIzGYrrW9CrjpwYAAIohuDSlV1cRXW+bLH5yAAAg7qGlLL360utyEV3z5cw1j+InCAAA4hxaOoyMIrrm3swld/ITBAAAcQ0so4yhyorkunPV8JMEAABxDCzdxRZa0teYyrvmbn6SAAAgboGlxhiuqUivu5GfKAAAiFNg6S0QWNqK4LrbClx3Lz9RAAAQl7DSaBR2uQiuvdPi2tv4yQIAgKiDSnacQyHXiuD6L1tcex9DTAEAQNRBpc1QKILr71Ncfgc/YQAAEFVIGWUTVEQq5o/Bzih+0gAAIIqQ0ukgqNTE+PprHFz/OX7SAAAg7JCSP3/K+OKLO0b3W28XTVN5fhP/u+/+zvjkk0+LKiwCAIDSDFr5w0mNA0+8YBx/5kzR9Dnl95e9/NJ5Y8+jTxUKWgwxBQAAoQWUYVtuUgkac88co7lpf9GMeEhfW1fuhUpIlMcglS2GmAIAgKgCyrX8FLJ1y+NmSFm1onXYmIQYP44hox3k2uUxrF75qMEQUwAAEEU4GTacVCpAElCyq1hGPORf58K65sHHYFHVauIVAAAAggwnw47akQpQbtCSpvi4N5NnRlMMkfsYpk9bwxBTAAAQajgZNpz09dfeGhJQLKpBjTF8LDWFesxylzw2juYBAABhBJOCR+1I5cdBQGmL4eNpUm1/ZqtaBapzVLUAAID2YDKsmpW9Sy9/FRjx0BX3xyOjHRw+FtHJKwIAAOgKJcOO2pFKz6SJDQXDSTGMeMi/49AqNMpjLFDV4mgeAACgLZR0Oq1myZK79+J+52F+U392tANVLQAAEGYgGWU1nFS14l4BctJr5qCqleIVAgAA/ASSYdUsOabGLmgVODOwJkaPKaUa7eCiqsXRPAAAwHMg8VTNshjx0BSjxzUr98KuX//Q9vEoqlo1vFIAAICXQHLOSzVLltzFF9cRD/l3HBYa7UBVCwAABBlGhh0c7aTyowgll2P02DqdNvZT1QIAAEGEkW67o3ZUq8Dh0r0xemxDRjsceOIFPwGSqhYAAHAVRGrsDo62W3Ee8ZA/E0w12oGqFgAA0B1EfFWzFCMeUjF4bGVuRjtQ1QIAADqDiO9qVpxHPBR6fG4fl1S1LNTwCgIAAKogoqWaZTHioS0Gj6/Ra4O/zcHZVLUAAIAyhLiuZs2Z1uhmxENnDB6j49EOdX/XYPkx2W6kqgUAANyEkC431ayp9y0yXn36ScuPy918cRvxkP8YVaMdDjU/pAxbVLUAAIDTAOJ6Cvxz7Y8ZV1894WbEQ18MHuc1p6MdTrY1Gyf3NLu6s5KqFgAAKBRAXJ1pOLF6vhmyrl/odLW9FoPHaTgd7XDxaIvxq+d2GzMm17vpQ6OqBQAAhoQP19Ws9m2PmCFLVsOcVW5GPNTE6XHKHYRW1y4hS5ZsIVp9jmytUtUCAACqANLhtZola039esvPlbv68jRG+Dgdj3aQ3qxs0JI1ZWKdmzEWsWj8BwAA0YessvxJ6W6qWbLk/4thxEP6925yesfhstlLhwQtVVVLQqmFUbzCAABIdtBqyk8Hqjvx8qtZsqQp3sUU9a4IH+uQyl33W29bXnfLqrVDgpaqqqU4lqeTVxgAAMkOWr25yUACg6pvqWXDtiEhS5bLEQ/XInysl92MdsgPWqqqVoGZYUamUljGqwwAgGSGrFn5yUBmQ6m2DX95+tiwoOVyxIMR4ePtddqHJqMd8oPWm0dbjHsra90OMG3ilQYAQDKDVpebA5abVmweFrJkSfhyOUFd7v6bZLGWSgbyuDZbfd/M43U82qHQ1qEs+XWrr5GtyAJ6eaUBAJC8kDVs1IGqZ0mWbBEWClqqrUOLEQ+xoNoiXbdgecGg9dqTOy2/prlpP6MeAABA4SZ41XE7MiurUMiyu+vQYsRDLKiuWYaUFgpasiSEMeoBAACoglav2+N2rIKWao6WYkstUnaHZecOLM1fZ/Ztd9P8n0VTPAAACQhYMjdrRX4KUJ35J4dHW4UsWfJxVWApMOIhcnbbpLJeSQcqq7Blddi0oil+P2ELAIDSC1aTMk3i5/KrWE77lfIHlOau986dsA0suQM9v/rqK+PLL78csvr6+ozbt287Wn/6058cr88//3zIunPnjqPRDoOPe+N6y6ClGvVgU8Hrzfws9mSb9AEAQPFUq2am12Ep2jit7tiNdJAwZRW0Xjq43zawNNRvNT744AMt68qVK1rWujWtttdt1RCfXVajHhRN8VauZX5mM6l6AQAQv4rVnsybtScSDNyOdHDaCG9Ok59QH7ugVTdvk+11yyR4VdBqXmJ9mLbFpHi3wYuKFwAAEVStlma2n/r89irZNcFbjXTIrjnTGm0Di6y4BS0n1yzr9YM7LYOWatSDVAk16cv8rJdS7QIAINiQ1ajjnfvrr782+5Wk5+nY0y95boJ30p+VXV1dP49N0Lp0qdvxdRc6isdJU3z9gi3G9evXB3vFvvnmG13Bq5E/CQAABBO02ry8M2cbzm/dumX09vYOCS5zZm3w1ATvtD8ru/7hdFdsgtapU684vu5ls5cqg5aqKf78+QtDft+enh7zMXz22WfmTQEetfEnAQCACIOWvIlLterjjz+2CS2/cX2uYe6S/i2ngWVf+7HYBK3Dh5xX4qThXRW05PxDq6+V30d1HVevXvUSvAhaAACEGbS+/fZb44svvjArVjdu3HAcWp4/YT3iQHqvVCFL1sTq+Y4Dy5bNe2MTtFp2HXB83bKOPdKkDFtS9Sr0dY1Ltru6Lql4ScUxdwwFQQsAgIiClmwJfvTRR55Dy5pV1iMOOlof1bZtqHPEg46gJQHIzbXL3YVetw+9XuM777xjPl6CFgAAEQWt27dv/z8/oUXGLlgFhDdePKIMWi0btrkKK7pGPIQ12kHX9uHxZ075ulaCFgAARRi0Ll78hee7DZ0cu1No9fT8ayyCltvrdrJ9KIdQF6yGbdlL0AIAIGlBS9WfZTek1O22oc47D8Mc7eBmSnzLqrUFv06qZwQtAAASFrTkLkCvYx3W1K/3FFYWL9oWedBatnSH5fWNG1OnvP6LR1ssg5ZUvAp9zYTqBQQtAACSFrRadh20DBRSsbIKWTLyQRVGpj6wQfnxIx0nIwtadvOzKsbVp8PWPE+HTJ9sa3Y8T4ugBQBAiQctuQvQKhhIo7uXsw3HVy0y5s7dlQ4sdcqmeCe9WtJDdvp0l7F/3zODq7XlkLFu7aPGo60HB9fx4z8zzp7tcrRlOOV+1XFBc43x45cbVZWLPZ19KCHM6usk4BG0AABIUNBS9WjJfCyrI3dUs7OkmiVBa9q0JlcztWRw6gvPnzG2NLUrJ9XbrRnT15hBrOPwiWFVJLvZWZUVDcaECSvMsCWhy+2RPFbN8AQtAAASGLSkqqQKHs+1P+aqmjVuTK0ZsrJr4oQlyu8vwUoqVH6Cld2SCtbW5nYzeKk+T7YLJWRlV8XYBa6qWq/ss57LNTl9DfRoAQCQsKAlSypLVgFBGt7dVLN+eN/qIUFr9uyHzfAVVIjSuaqrlw4JWuPHL3N10LQMNLUcdsp4BwAAkhm0ZNyC07MOVQNKJVBJsMoNWrKmTF4X+5AlDfC5IctLVUsGmgbRCE/QAgCgiIOWrKkPrLA9hkemxKvCSn41K3dJg3xsg9boWrMnq1DQsqtqydwsu+N3fjx9te9xFAQtAACKOGip5mllJ8TLAdNuq1nZNX16c3y3DKsWFwxZTqpasqQ3y+pAaVmHD50gaAEAkOSgJXf8qcKE3XBSVTUru2omrXAVgKQKJl8jdzHKHYwzZ24f/F7fVZyWG1VVS8xxDN/Nv5rr+PeQ4aSqkPVdVcv6e6ruNJQlIyUIWgAAJDho2c3UUq2qygW2ISvbGK+arSXfRwKbhCq772UXjqSxXUY1qAaPDszMWmb7vcyq1rh6b0f2rGnVci4jQQsAgCIPWqqZWqol24JOgpasB3/0UF4Tep3ZLJ9brXKynISjIVWvysXG2Ly7H7Mzs5yusR7unjz+zCmCFgAABK2BJRPb3QQJ2dpzE5Cys7UmTWx0VLnSEbTyK13ScyWhye3Xyhalm+fG7+wsghYAACUWtFQztQpt9aka4INcXoOW31UxbqHj58fv7CyCFgAAJRa05GxBZ03kta62DEslaMmSBnonz5Hf2VkELQAASixo2c3Uyi4/237FHrSk58uuX0vH7CyCFgAAJRi0jnScVIaI7KHRSQ1a2V4v1cgHHbOzCFoAAJRg0LI7aDrqalYcgpbdxHgds7MIWgAAlGDQkrVmVatliJA7BpMetFRztXTNziJoAQBQokFLddD02NG1kd1tGJegpdo21DU7i6AFAECJBi27pvhkN8MvC2V2FkELAIASDlqqI3mSHLQGKlqFn5e6eZsIWgAAELT8Ba2k92gRtAAAIGj5Wqq76pIetFSHVRO0AAAgaHkOWnL0DkGLoAUAAEErgKN4xlctYryD4szDs2e7CFoAABC0rFdX18+Zo+VxjtapU68QtAAAIGh5m6P1w/tWJz5oVVY0MEcLAACClre1r/0YQUuxqqqWWD4/LbsOELQAACBoeQtanHVI0AIAgKAV0FmHBC2ZDr/c8vlpXLKdoAUAAEHL27DS6dObEx+0wh5aStACACAhQctNIHq0ud248OIx4/qFTnP9+uwJ8/8P7jlgrFi6O/SgNf2B1caOlZuN4y3bjdcP7jJ+9dxuc519fKf56zqC1ozpawhaAAAQtIKdCi9BKhuwrNbpI095ClxeAlbHjq2Dwcpq1U5fG8uhpQQtAAASELQqxtW5CkR2QSu7nt57MLCg9fDKTcabR1ttQxZBCwAARBq03E6FP/3UEcdhS7YUFy1s1Rq0juzY5ihgyTr12A6Xx/DUWT5Ply51E7QAACBouZsK7zZoybZgz2svOA5bb/3XZx2FLbsQNPm+lWbfldOQ5baaFfZ0eIIWAAAJCFpejt/Zu/Nxx0HLadiyC0FSnXITsjYt2RjrY3gIWgAAJCBoxWEqfFzGO6iClu5jeAhaAACUSNA60nGSoBWz6fAELQAASiRoqY7fmTJ5HUGLoAUAAEGrVM85JGgRtAAASGzQyv387u53hqSD69c/HPzYnkefGvz1Jw+8OOTraiat8By0KisWDfle+Q488cLgx95993eDv57/WCVIqc87XBbaeYcELQAASiRo+T1QetyY2sHPlwCVS4JNoRC0sK7ZVS+Ym0rTrVufDbmG5qb9OU3rZ8xf+8Mfeoc91urqxticd0jQAgCgRIKW3wOlZQTEd+MgGoz/+I//LBiyFtRtMX/9t7993/Xv46bStGf30YLVLFkvv3Te/HX5nCHXMLo2VgdLE7QAAEhA0HLSPzVt2uYhX7N1y+ODYUuCjoSvVStazW1EqTZNn7Zm6JZd5QLfPVoVYxcM+Z7nX3/L/P0/+eRT8/eWa5BrEfKx/Mcp248ELQAACFqxC1qy7h0/dPtOwpT0a2UDlwSs0y+fNwPP8O3Jzb6Dlmz7jbln7rDKlmwRZsl/D6tkpdfYMbWOG+Lzfw+CFgAABK3Ag9asWQ+blSmr72O1HpiyQdtdh6q7Aq3X3PTXLfV9sPSU+xsJWgAAELSCCVrZsJVf2bJa0kDvNGS5Ge8wELbmOroGqWS5CVmqoCWLoAUAAEErsKCVXRKgVNUtaZ6fMWNbYHO0pDl+4Lgci8A1utaorGjwNEuLoAUAAEEr0qCVXRKmpP9KRjdI+HLSi6V7YKlUrKoqF5vBS6pdbitYBC0AAAhasQxapTYZnqAFAABBi6BF0AIAAEkPWosWthitW9q1Ba2GOeuM2ulrIglaP56+mqAFAABBy13Qmj374cCC1oUXjxmnjzylLWjtXtdknH18p/HDmpWBBS0GlgIAQNBytVp2HbQMEHZnEHpdErCuX+g0w5bOoPWr53YHFrbkTkWCFgAABC1X6/kTZ5Tzppycd+hmvXjgsBmyggpasp5t3aE1ZI0fv1z5HLXvPUrQAgCAoDV89fT8qzFxQr1liJhQ3aAtZO3duX8wZAUZtGQd2bFNY29WnTJonT9/gaAFAABBq/Da135MGSR0bCHmhyzdQUuCVW7QkvX4lmbfIau6arHyuVm3plVryCJoAQBQYkFLqlpTH1gR2BbihlVtRs9rLw4LWvJruoLWqcd2DgtasjYtecjHluEy5XNy7/iFxqVL3QQtAAAIWurV1fVzZaioGDvf012IViEru4IOWn7C1rgx85XPyeFDJ7SHLIIWAAAlGLRkrVnVqgwW/2XiMtezsn599oRlyAoraF082up6xtbAeYlzQrvTkKAFAECJBy0nW4hTH9jgOGR1v/SsMmSFFbTchi05F9Fuy1B3AzxBCwCAEg9aTrYQx46uVfZrybR3GeFgV8nKLglkOoKWKmTlhi1pml+5YIPlrC27UQ6yjj9zKrCQRdACAKCEg5bdEFNZ1ZULB/u1li/ZbRzc/YRx7vhPHQWr/LV1w2OhBa38JVWwHSs3D6l02fVlBXGXIUELAIAEBS1Zs2etVwaO+jnrHFet4hq0ctf5Q7uMRTMalY9ZzjQM4i5DghYAAAkLWleu/EY5yFRWR+vukglazzzSZNuXdfZsV+Ahi6AFAEACgpasfzjdZduv9MaLRyIPWtJv5Sdkndm33ZhQWRvJKAeCFgAACQ1aTvq1JlbNN947530LUSbG+w1aDXPWeQ5ZF4+2GDMm10fel0XQAgAggUHLSb/WnAcbPQetn+59MtKg1Th7qW3VLoy+LIIWAAAJDVpTp9iPPGhasbnogtaulWttH1cQh0YTtAAAIGgNLidhRNZze39SNEHLrvk9d5069QpBCwAAglYw0+KdBhJZUQQtmYXlNmjZNb+HOaCUoAUAQEKDlt2keL9B68KLx3wHrd3rmlwHLTePqWXXAYIWAAAELYIWQQsAABRN0NrXfsxVKHE76qEYglbdvE0ELQAACFrRB61Xn36SoEXQAgCAoOVkrVnVGmjQ6n7pWd9BSw6HDjJoTaheQNACAICgpX811G8NNGhdffWEMXHCknSYWWS5xo6er1xPPbzVVcg62ebuMckiaAEAQNCKZFipn1la7VsfcR168teMKYsCD1phDi0laAEAkJCg5TaQ7N260101q3q+76Al6+Se5kCGlUYxtJSgBQAAQavg2rV+a6jVrOySMwt1H70T1dBSghYAAAkIWm5naMlaNHul46A19b4GbUFLltOgtWXJKtffO8xZWgQtAAAIWgXX1PsWRRK07q2sdRy05k9rIGgBAIBog9aRjpOeQk8UW4dSpXIatKZMrHP9/cOcpUXQAgAgAUFLNax03JhaLSMeZk9r9B2yfjx5ofHm0RbfM7TGjZlH0AIAgKAVTtDasnmvZfCQ2Vc6RjzInYd+wpbbkKUa7VAxbmEshpYStAAASEDQUg0rnTbNekRC0/JNroeW5oYt+e+J1XUF+7AkWA1WmaY1uApZdnccVlUuVla1CFoAABC0tK05szZYho7Zsx+2/NicBxtdBa1s2Fpdv97Ysnyz+f8vPbl/2Pc92PyQGZb2bljvqicrdy2dvdTyuqurlyqDVlhDSwlaAAAkIGhZBY7xVYvMMwgrxlk3lf/y9DHXYSs/ePkZSmq1JlRa95bJuYkV4+ojH1pK0AIAgKBlTJpo3VvV0brbV9B679zwoHVk+yZfIUs1EX7cmDrboBXW0FKCFgAAJR60VDO0aiatMIPWgz96yPJzVi9c5ytovXxwvzE6NfC9Rt8zO/3fs429Gzf4Clrr6qzPbaysaDCDVnXV4shnaRG0AABIcND64X2rzaAlS3VHoJ/tQ2moN0NWOmANHh49ud5zyLp4tEW5bTh+/DIzaFVVLSFoAQBA0Ap2PX/ijPX09wc2DAYt1ZgHt3cf5m4bTqwqfNj06wd3egpaqrsNx46pNUOWLAlcUc/SImgBABBR0Pryyy+NGzduRDqsVEY7ZIOWhC5VVUu2AN0GLTmYWsfh0dl1Zt925TVKX1Y2aMmKMmj9/ve/J2gBABBV0BJff/218fHHHwcatFp2HXQUtOzuPpTK1BsvHnEcsmTYqd2Q0kPNm1yFLNlytP5+c43x45fnBa25oQ8tfeedd4zPPvvMsEDQAgAgrKCV1dfXF8mw0tyQ5aSqJWGr41H7uxDlc5xOhG92MEdL7jJU9WUVqmbJCnto6fvvv2989dVXhgJBCwCAgIJWk+odWN6gP/roo0iDlqyqygW24WjqfYvMMHXu2MHBcCX/Lb8mH3N7/I4cDt2+cb3R2bZ1SAVLfk1dxcqs0bXDqlkDQasutKGlf/zjHw0HmviTAABAsGGrX/VOfPv27VBmaEmgKhS0Zs7crjxoOo5L7jDMD1lhDS3t6ekx7ty5Yxew+glZAACEE7ZS6dWjeleWRvne3t5QhpUWWnZbiLEKWZWLC4asMIaWys/om2++sQtZ8rNO8coHACDcwNWmenf+9ttvjT//+c++QtbFi7+wDBoyDd4qaBVL2FKFrCBnaUnD++eff+5kq7CNVzoAANGFrZr0uql6p5ZtKa9jIJwOK7Vaclei6k7E6NZcc/K7KmQFFbRkbIODKpb8TGt4hQMAEH3YKkuvTrvqlpcxEKphpVMmr7MNWrJmz35YeRai3TrwxAvG9esfGt0X3jDXJ598ahx/5ozn7ycN7oUa3wst+Txds7Rsxjbkkp9lGa9sAADiFbhm2TXKyxgIN9Utp8NK7ZY0yHsJRW/+90uWj+XtX1/V2vhutXQELWl4txnbkG14n8UrGQCAeFe3LqvezWXIqdMxELqCluosxAkVc40dy1aYa/GMhmEfX1m/3vjp/ieNN179b+Y62XHUeGj55mGfN/3+usHvc//E+bZnGTpdYy3uoHQ6tNTh2IbLVLEAACiewKVlDITbGVqqpZqv9eyujcb/PLrdXKvnLXFdpZKQdf7gVvPr/3F/k/Jz3YQsP0NLr169ytgGAABKOGzZjoGQ7SzVGAidQUvVpzX9/gWDQUnW329aazvJ3QxN6c+RClbu1y6ZuVjRnzXPddCqGLvA9dBSxjYAAJCcwGU7BuIvf/lLwaA1cUK9q2GlqjV9erMyNK2et3QwLMmS8HRk2zpj06JlRu2P6ocsqXrJx3IDliz5XD/jHPwOLZWGd6kUMrYBAIBkhS1PYyC8DCv1un2YrWz9rG3TkPDkZMl2oaqSlR3p4DZkyaqsaHA0tJSxDQAAJDtsORoDcevWLTNkXbnyG+vDoScs8RS0pIHeSc+VVLeObF9vG7AklMnnSkO93+GkXmdpSRVLnjPGNgAAAEdjIGRq+euvv+lrWKnVkq912uQuAWreg/XmluDO5SsHl/yak3CVOzvLS8iyC1ptezoY2wAAAApWt5RjIP76135j7pyN2oOWLNl6DGsKvIxncDqg1M0srb9//FnGNgAAAGXgsh0DcfjQSd8ztNzehRinkJUftKZMXmb88pfvMrYBAAA4Clu2YyCuXHnPuHfCIq1By+02ottVMW6hlpCVO0tr1oyNRl/f54xtAAAArgOXcgzErVt/Mf7uwbVm4JDzC3UErezxPFq3EkfXuj5mx7ZPq2KB0b73OGMbAACAr7BlOwZi/77njUWL9mgLWrl3JPrZTpSqk9c7C1Wrru5h4w9/6GVsAwAA0BK2bMdA/Pu//x/joYcOag9bsqRaNvWBDUbNpBXquVuja82p7TLnyu35hU5Xe/vzjG0AAACBBC7bMRA/+9n/CCRsWQWw6uqlgQSq/HX//euMS5d+w9gGAAAQaNiyHQPxwQd/Mlau3B9K2AojZK1c+ZjZj8bYBgAAEFbgUo6BuHPn/xoHD75c9EHr2LGzjG0AAACRhC3bMRD//M//EkijfNBBa/Lk9ca77/4vxjYAAIDIA5dyDMSnn/7V2Lnz6aIJWqtX7zW++OI/GdsAAABiE7Zsx0C8+mp37IPWmTNvMLYBAADEMmzZjoG4ceMTY9OmQ7ELWjNnbjX+7d8+StTYhhEjUwRGAACKMHDNsmuUf/bZc7EJWlu3HrbbKiy9sQ1lqbIR5aleXq0AABRn2LIdA/H22+/7bpT32/D+yitvJnJsw93lqY67R6YMXqkAABR34LIdA/HII8dCD1oNDa12W4UlO7ZBtgwlZBG0AAAojbBlOwbitdf+yVN1y0vIeu65VxM9tuHu8tQ1ghYAAKUXuJRjID788JaxefPhwILWrFnbjKtXryd6bMOIkam2bMgiaAEAUHphy3YMxIkTr2kPWj/5yfN2De83S3346Ii/TY3KDVkELQAASjNs2Y6B+N3v/rfR0NDmO2hJw/svfvGeXRWrIwnnFI4YmeomaAEAkJzAZTsGor2903PQWrt2X/LGNli4qzzVlB+yCFoAAJR+2LIdA3Hp0m8tG+V9jG3oSkIVS2S2DPsIWgAAJDdwKcdAyHmJhRrlGdtgLx2ozhUKWQQtAACSFbZsx0CcPv2mZdA6dOhlJ2MbRiXpOf3+D1KzrEIWQQsAgGQGLuUYiPffv2GsWvX4YNBibIOFslSZ1ZYhQQsAgGSHLeUYCGmU37jxSWPHjqcSP7bByojyVKcqZBG0AABIdtiyHQPB2AaLkJVzzA5BCwAAqAKXcgxEksc2FFSWKhtRnuolaAEAAKdhy3YMRNLGNljJP2aHoAUAAJwGLqsxEIkb21DI35SnUk5DFkELAAAUCluj8sZAJG5sg5W7y1PXCFoAAEBH4GpL5NgGC262DAlaAAAATkOW4pgdghYAAICfoDUy1e02ZBG0AAAAbNxVnmryErIIWgAAACoOjtkhaAEAAHiQDkvnvIYsghYAAICF7/8gNctPyCJoAQAAFOJzy5CgBQAAYOHu8lSH35BF0AIAAMgzYmSqRkfIImgBAADkB63yVC9BCwAAQHfI0ljNImgBAAAQtAAAAAhaAAAABC2CFgAAAEELAACAoAUAAEDQImgBAAAQtAAAyfA35anU93+Qmpl+o9uTs7qzK/2mdW7ox+6ZJF8T3zfseyaZ629TozQ9H905a+DXylNLvX5/ELQAACVMQsTd5anDmRDl7w2tPHVNgthdI1ObJdxov9iyVNlgcDKXZRgcdm3pMNTo5jlJf/5Jt5PJzc+X59JL6Br22PQs+b6BBlgd11gEQSv9mpiV93rTtu4qTzXxNxEAlFjVSoJE+g2oT+ebmcUaCF4ewodcZya8+b4OeeO2CzrmdWo69sUMai4fc/rr+nU//24CpuOQlX5cGq+xK+5BS/e15K3+OFeEAQAu3zC0VK68v+m7qvjofINTBS3Z+gsodPa5CTrp56YjgGvo0v06kgqMruuTSlGsg5ZUGjWeuUjIAoBSDFgDFYhzUQUs19WlkIKWPC9hBE+pbkVQKfouZGjePkw/Z5c1PS83w6oieX2sAf65IWQBQCmQikFIW4SOl9M3mCCDVtjPi9OwJRWoWG8fpkObxp9JW5yDls7KXRhbugCAsCtZ6b/M4xSw3L7p6XyzzQ13UT0vTsJWJgDGdvtQ53On2kKOOmiZ/YEBBXFCFgCUgCD/Ne7zzsSeKIJWXMKnk21T2VKL6/ahxopbV1g/e9dBS6p2mm7CIGQBAJWssIPG5aiCVhyeF2msdvC42+L6Bq+rymPVBB+HoJW5I5eQBQAo8CYx0FDdF+Og1RZF0DLnhcXkebF9DjT2QencPtS1ralqgo86aAW0dWswKwsASqea1RnXkOX2DSfg+UVRrr4ofo5+tw91XZOTsB1F0ArqHynyvPE3EwCUTjUr1iHD6WiHEg9aoW+d6di60jbM1cEctSiCVhB9WYQsAKCaFW7QcjEtvZSDlpM3YLlxIC7bh5m78ELr0Qs7aAUxLJaQBQAlRue2h/TRyDbfsAqUeSafOWG+Rioksg2UGWDZr70puYSDlsPtw8a4bB/qCiJOq2phBq0g+rIIWQBQatUsncM9Pb5JmJPWJXylv77giAIXox0SELTsB7cONMX3x2H7UNO2Wn9UP3vVa1Z3X5abO2sBAEVC19wsJ3eEOWUeXi0Vr0zocvsGFGDQ6pcwWLBil/l9Mx+7HGWfVqaq1Rn19qG23r/yVEfsgpbuI5jkHxOajzwCAMSjotUW53+NZ0JXTZRBSx6bk3Az7Br090o5v/sugBsc3AYBbSE+wv68IP/MELIAIBlB63JcxgBofEw1sdjOkb60AKa1O60u6a6sud0+1PH7R13NDLxaSsgCAIKWizeNa3F404hN0PpeQOMWnN6Bp78p3vn2oabhqR7CXXBBa+Ax9RGyAACO6b49XWYmud3qK+WglQk8nVE1TetuincaDDSFvP4of/b5QUtzX1a/my1RAEDxVrTaAuoj6o4qcMUtaOmaJeXx3Me2KLYPtRwi7aIJPuigpfkfJP22d44CAEqDroZlVYXrrpGpzWFukcQtaGUqPDcjCVr6m+IdbR/q2GLzEkaCCFqa52URsgAgSXRXW2zWOTmkOaFBqzOqa9JSXXKxfaglmLicnRZU0NI8L4uQBQBJFNCdcXZ9XHuC6lGJZdDSuIUX9Z14dtuHOkKl1wGpAdwVeI2QBQCITbXFwxvqSd29XAStwMN0l83v1eu7Cd7jVnNcTwXwezA3AKCYg1YAwy2jbJ6P6dZhY5TXpLsXzyoI6diK9nPeX0yDVh9jHACAqlZnTP7lf9Lvm1JMK1rRXpOmuVZ2FRodd+f52WKLbUUr/Q8J/pYBgCQLboq5pwqA2yNvCFqhh+kui6B1LYom+LgHLVlSVeQvGgBIsMy2T39s3pzKU4cJWvquSfMdpn3DHqOGLWi/vUxxDlp+q3UAgBKQeaPqj1ET8UmClr5r0nnQdX5PnYY+tP44bRsH9I+Ha/wtAwBUtuJW2XI1IZygpbgOjU35+Vthfrcm/TTBF03Q8jjxHgBQaqRnS+eB0yFuKRG01D9XjSG6Ky9o9Ua9raZ9ZtjAWI6uAJrja/hLBgCQHQvQX0y3yBO01HSd2yfBavDx+ezPkhsx4vY8D551GMCNIuZzx8gHAEBOdast6sAl10DQ8n9NOuemZcOC32N3dN2RF9Sh0jq3XHOPpOIvFwBAnAJXH0FLzzXp2hbOboH5rZLpqu4EFbR0Pme5y88YEwBACZN/4UfRw+XkjYmgZU/Lwc85VUY/rwUdTfBhBK2ADmDvC+rMTwBAKQQu2YYaqGb0h9QUb/umTNByHJZv6vp5xKUxPMiglXnOOgPYEmdqPADAWZUk6CqXk5BB0HJ8TW06rsVPpUdXE3xYQUvzXZtMjQcAeKtyBXV2Yu6dbgQtDdVITdu5cQkYgQctTQGVqfEAAN/MSofGSeSqNz+Clsfr0hGIfTTC6x5xEEbQyjxv+s8FlanxjHwAALgiWy2awxZBS2PQinCSus4m+LCDlq6bCZgaDwDQU9kiaMUyaAVWnYlotEFYQSvze10OqA+xhr81AKBEyF/qcnBz0H+5a6yC3CRo6Q1amen/YVezbgb1eg4raAU07sHVKQgAgJjL3QKRRvP0Wqq9b0bjJHLuOtQftIK6k07HlP84B61MNbAzoOeIqfEAUCIVLas7qM7dNTK1WccwRZkTFOYbNEHLw/UFFxgKP4aAhnSGHbSCDKluDlIHAMSUkzvGMpWuk2bwGnnPJMeHO5enlsqdVGHfAk/Qci/AbbBCqyvAfziEG7S+F+jWK1PjAaAEKlqXPb8JjEx15650qDo8+N8R9vUQtEJ/LcTmfL8oglbmHxU3A9piZWo8ABR10CpP9UZ1e39QWykELc+vhcZibYKPPGgFOCYjqH42AEAIiihk3XS8ZUnQ8vN66C/GJviog1bQFUGmxgNAMVazNN4NGKftJoKWj6DlY8p7lE3wsQhaQf55Ymo8ABRh0IpwKniQE8QJWrEN313F9pqOVVBlajwAFJcoBlV6eHPpKYVQUyxBywwL6UBUbE3wcQlaQc8kC+M5BADoe1Nqi33I8rBdQtDyJ6Bz/PqLsUobw3/AMDUeAIpFUJWLqA8cJmhpuF7d4wpC2vaKQ9Ay/2xpPkidqfEAUJwVrcsxDFn9frdHCFrxq3aGNXgzLkEr6P5HqZrxNxgAxJzcMp45eqU/NlUsDdsiBC0NBnqNiud6Yxa0QqgYMzUeAIpG+k3VHFYZ7HaHZQVLtpV0vmkQtDQ9j5rOPwzzzL44Ba3Ax6fIyAcAQHGGLnmTDepYEQlX8v2DuoOKoBWr57E/zJdvnIJW5noCveGEqfEAUOTkX+Xy5iU9IfKXurzJuwpg5ake82vka9MBjgnXxUPL3YfMfgIAQF81gb6Rkvp5dhdLEzwAAEBRheZiaoIHAAAopqDVrSFo1fBMAgAA5IYsuQPV/52GN3kmAQAAcg3cddpbTCMdAAAAioLcJUg1CwAAQDNdM6ioZgEAAOSQ+WZyrAvVLAAAAJ009WVRzQIAAMihq5LF3CwAAIAcmSN2+jSeu1fDswoAABJNqlg6BpJypiEAAEgcOV/wrpGpzSNG3jMpuwb+P7VHVy/WsAb4slQZzzwAACj9oKW7WsWWIQAAwGDfVWghiy1DAACQDGWpMp3N7Q5CVg9POgAASIR0+DkXYjWrn74sAACQCCFvGfbLnYs86wAAoPRpnOxO8zsAAEAOaUgPq5LFETsAACAxpLrEdiEAAIBuYW0Zlqd6CFkAACBRRoxMtYVQyeri7kIAAJAoUmEKtOG9PHWTpncAAJBIZm9WeaqHhncAAIBgA1eHVKD8bhESsAAAACzIdqKEJendSq/LsqRCZbEtKB9vk0Gn9GABAAAAAAAAAAAAAAAAAAAAAAAAAAAAAAAAAAAAAAAAAAAAAAAAAAAAAAAAAAAAAAAAAAAAAAAAAAAAAAAAAAAAiK//D6ub+Z0c+eUqAAAAAElFTkSuQmCC;" parent="1" vertex="1">
                    <mxGeometry x="269.78999999999996" y="630" width="152.43" height="86.6" as="geometry"/>
                </mxCell>
                <mxCell id="54" value="Write Code in IDE" style="rounded=1;whiteSpace=wrap;html=1;" parent="1" vertex="1">
                    <mxGeometry x="-652" y="532" width="120" height="60" as="geometry"/>
                </mxCell>
                <mxCell id="57" style="edgeStyle=none;html=1;entryX=0;entryY=0.5;entryDx=0;entryDy=0;fontColor=#F0F0F0;strokeColor=#000000;startArrow=none;" parent="1" source="11" target="54" edge="1">
                    <mxGeometry relative="1" as="geometry">
                        <mxPoint x="-382" y="572" as="sourcePoint"/>
                        <mxPoint x="-310" y="572" as="targetPoint"/>
                    </mxGeometry>
                </mxCell>
                <mxCell id="59" value="" style="shape=image;verticalLabelPosition=bottom;labelBackgroundColor=#ffffff;verticalAlign=top;aspect=fixed;imageAspect=0;image=data:image/png,iVBORw0KGgoAAAANSUhEUgAAAloAAAFWCAYAAACxcTMMAAAsAUlEQVR42u3d+3dUZZ7v8f5lWvwtP87q8AN/QsklF5BDbEFahuYaCIQA4X4VQriIJEKWTcARgSAtoqiEPsogs45EWefQysHQ0z20to1kpl2n6fFgsFuZ1j50osN4XEs9+9R3pypWKrWffXv2pWq/X2s9aym5sKtSUB++z3d/n+99DwAAAAAAAAAAAAAAAAAAAAAAAAAAAAAAAAAAAAAAAAAAAAAAAAAAAAAAAAAAAAAAAAAAAAAAAAAAAEXLMIzGYrrW9CrjpwYAAIohuDSlV1cRXW+bLH5yAAAg7qGlLL360utyEV3z5cw1j+InCAAA4hxaOoyMIrrm3swld/ITBAAAcQ0so4yhyorkunPV8JMEAABxDCzdxRZa0teYyrvmbn6SAAAgboGlxhiuqUivu5GfKAAAiFNg6S0QWNqK4LrbClx3Lz9RAAAQl7DSaBR2uQiuvdPi2tv4yQIAgKiDSnacQyHXiuD6L1tcex9DTAEAQNRBpc1QKILr71Ncfgc/YQAAEFVIGWUTVEQq5o/Bzih+0gAAIIqQ0ukgqNTE+PprHFz/OX7SAAAg7JCSP3/K+OKLO0b3W28XTVN5fhP/u+/+zvjkk0+LKiwCAIDSDFr5w0mNA0+8YBx/5kzR9Dnl95e9/NJ5Y8+jTxUKWgwxBQAAoQWUYVtuUgkac88co7lpf9GMeEhfW1fuhUpIlMcglS2GmAIAgKgCyrX8FLJ1y+NmSFm1onXYmIQYP44hox3k2uUxrF75qMEQUwAAEEU4GTacVCpAElCyq1hGPORf58K65sHHYFHVauIVAAAAggwnw47akQpQbtCSpvi4N5NnRlMMkfsYpk9bwxBTAAAQajgZNpz09dfeGhJQLKpBjTF8LDWFesxylzw2juYBAABhBJOCR+1I5cdBQGmL4eNpUm1/ZqtaBapzVLUAAID2YDKsmpW9Sy9/FRjx0BX3xyOjHRw+FtHJKwIAAOgKJcOO2pFKz6SJDQXDSTGMeMi/49AqNMpjLFDV4mgeAACgLZR0Oq1myZK79+J+52F+U392tANVLQAAEGYgGWU1nFS14l4BctJr5qCqleIVAgAA/ASSYdUsOabGLmgVODOwJkaPKaUa7eCiqsXRPAAAwHMg8VTNshjx0BSjxzUr98KuX//Q9vEoqlo1vFIAAICXQHLOSzVLltzFF9cRD/l3HBYa7UBVCwAABBlGhh0c7aTyowgll2P02DqdNvZT1QIAAEGEkW67o3ZUq8Dh0r0xemxDRjsceOIFPwGSqhYAAHAVRGrsDo62W3Ee8ZA/E0w12oGqFgAA0B1EfFWzFCMeUjF4bGVuRjtQ1QIAADqDiO9qVpxHPBR6fG4fl1S1LNTwCgIAAKogoqWaZTHioS0Gj6/Ra4O/zcHZVLUAAIAyhLiuZs2Z1uhmxENnDB6j49EOdX/XYPkx2W6kqgUAANyEkC431ayp9y0yXn36ScuPy918cRvxkP8YVaMdDjU/pAxbVLUAAIDTAOJ6Cvxz7Y8ZV1894WbEQ18MHuc1p6MdTrY1Gyf3NLu6s5KqFgAAKBRAXJ1pOLF6vhmyrl/odLW9FoPHaTgd7XDxaIvxq+d2GzMm17vpQ6OqBQAAhoQP19Ws9m2PmCFLVsOcVW5GPNTE6XHKHYRW1y4hS5ZsIVp9jmytUtUCAACqANLhtZola039esvPlbv68jRG+Dgdj3aQ3qxs0JI1ZWKdmzEWsWj8BwAA0YessvxJ6W6qWbLk/4thxEP6925yesfhstlLhwQtVVVLQqmFUbzCAABIdtBqyk8Hqjvx8qtZsqQp3sUU9a4IH+uQyl33W29bXnfLqrVDgpaqqqU4lqeTVxgAAMkOWr25yUACg6pvqWXDtiEhS5bLEQ/XInysl92MdsgPWqqqVoGZYUamUljGqwwAgGSGrFn5yUBmQ6m2DX95+tiwoOVyxIMR4ePtddqHJqMd8oPWm0dbjHsra90OMG3ilQYAQDKDVpebA5abVmweFrJkSfhyOUFd7v6bZLGWSgbyuDZbfd/M43U82qHQ1qEs+XWrr5GtyAJ6eaUBAJC8kDVs1IGqZ0mWbBEWClqqrUOLEQ+xoNoiXbdgecGg9dqTOy2/prlpP6MeAABA4SZ41XE7MiurUMiyu+vQYsRDLKiuWYaUFgpasiSEMeoBAACoglav2+N2rIKWao6WYkstUnaHZecOLM1fZ/Ztd9P8n0VTPAAACQhYMjdrRX4KUJ35J4dHW4UsWfJxVWApMOIhcnbbpLJeSQcqq7Blddi0oil+P2ELAIDSC1aTMk3i5/KrWE77lfIHlOau986dsA0suQM9v/rqK+PLL78csvr6+ozbt287Wn/6058cr88//3zIunPnjqPRDoOPe+N6y6ClGvVgU8Hrzfws9mSb9AEAQPFUq2am12Ep2jit7tiNdJAwZRW0Xjq43zawNNRvNT744AMt68qVK1rWujWtttdt1RCfXVajHhRN8VauZX5mM6l6AQAQv4rVnsybtScSDNyOdHDaCG9Ok59QH7ugVTdvk+11yyR4VdBqXmJ9mLbFpHi3wYuKFwAAEVStlma2n/r89irZNcFbjXTIrjnTGm0Di6y4BS0n1yzr9YM7LYOWatSDVAk16cv8rJdS7QIAINiQ1ajjnfvrr782+5Wk5+nY0y95boJ30p+VXV1dP49N0Lp0qdvxdRc6isdJU3z9gi3G9evXB3vFvvnmG13Bq5E/CQAABBO02ry8M2cbzm/dumX09vYOCS5zZm3w1ATvtD8ru/7hdFdsgtapU684vu5ls5cqg5aqKf78+QtDft+enh7zMXz22WfmTQEetfEnAQCACIOWvIlLterjjz+2CS2/cX2uYe6S/i2ngWVf+7HYBK3Dh5xX4qThXRW05PxDq6+V30d1HVevXvUSvAhaAACEGbS+/fZb44svvjArVjdu3HAcWp4/YT3iQHqvVCFL1sTq+Y4Dy5bNe2MTtFp2HXB83bKOPdKkDFtS9Sr0dY1Ltru6Lql4ScUxdwwFQQsAgIiClmwJfvTRR55Dy5pV1iMOOlof1bZtqHPEg46gJQHIzbXL3YVetw+9XuM777xjPl6CFgAAEQWt27dv/z8/oUXGLlgFhDdePKIMWi0btrkKK7pGPIQ12kHX9uHxZ075ulaCFgAARRi0Ll78hee7DZ0cu1No9fT8ayyCltvrdrJ9KIdQF6yGbdlL0AIAIGlBS9WfZTek1O22oc47D8Mc7eBmSnzLqrUFv06qZwQtAAASFrTkLkCvYx3W1K/3FFYWL9oWedBatnSH5fWNG1OnvP6LR1ssg5ZUvAp9zYTqBQQtAACSFrRadh20DBRSsbIKWTLyQRVGpj6wQfnxIx0nIwtadvOzKsbVp8PWPE+HTJ9sa3Y8T4ugBQBAiQctuQvQKhhIo7uXsw3HVy0y5s7dlQ4sdcqmeCe9WtJDdvp0l7F/3zODq7XlkLFu7aPGo60HB9fx4z8zzp7tcrRlOOV+1XFBc43x45cbVZWLPZ19KCHM6usk4BG0AABIUNBS9WjJfCyrI3dUs7OkmiVBa9q0JlcztWRw6gvPnzG2NLUrJ9XbrRnT15hBrOPwiWFVJLvZWZUVDcaECSvMsCWhy+2RPFbN8AQtAAASGLSkqqQKHs+1P+aqmjVuTK0ZsrJr4oQlyu8vwUoqVH6Cld2SCtbW5nYzeKk+T7YLJWRlV8XYBa6qWq/ss57LNTl9DfRoAQCQsKAlSypLVgFBGt7dVLN+eN/qIUFr9uyHzfAVVIjSuaqrlw4JWuPHL3N10LQMNLUcdsp4BwAAkhm0ZNyC07MOVQNKJVBJsMoNWrKmTF4X+5AlDfC5IctLVUsGmgbRCE/QAgCgiIOWrKkPrLA9hkemxKvCSn41K3dJg3xsg9boWrMnq1DQsqtqydwsu+N3fjx9te9xFAQtAACKOGip5mllJ8TLAdNuq1nZNX16c3y3DKsWFwxZTqpasqQ3y+pAaVmHD50gaAEAkOSgJXf8qcKE3XBSVTUru2omrXAVgKQKJl8jdzHKHYwzZ24f/F7fVZyWG1VVS8xxDN/Nv5rr+PeQ4aSqkPVdVcv6e6ruNJQlIyUIWgAAJDho2c3UUq2qygW2ISvbGK+arSXfRwKbhCq772UXjqSxXUY1qAaPDszMWmb7vcyq1rh6b0f2rGnVci4jQQsAgCIPWqqZWqol24JOgpasB3/0UF4Tep3ZLJ9brXKynISjIVWvysXG2Ly7H7Mzs5yusR7unjz+zCmCFgAABK2BJRPb3QQJ2dpzE5Cys7UmTWx0VLnSEbTyK13ScyWhye3Xyhalm+fG7+wsghYAACUWtFQztQpt9aka4INcXoOW31UxbqHj58fv7CyCFgAAJRa05GxBZ03kta62DEslaMmSBnonz5Hf2VkELQAASixo2c3Uyi4/237FHrSk58uuX0vH7CyCFgAAJRi0jnScVIaI7KHRSQ1a2V4v1cgHHbOzCFoAAJRg0LI7aDrqalYcgpbdxHgds7MIWgAAlGDQkrVmVatliJA7BpMetFRztXTNziJoAQBQokFLddD02NG1kd1tGJegpdo21DU7i6AFAECJBi27pvhkN8MvC2V2FkELAIASDlqqI3mSHLQGKlqFn5e6eZsIWgAAELT8Ba2k92gRtAAAIGj5Wqq76pIetFSHVRO0AAAgaHkOWnL0DkGLoAUAAEErgKN4xlctYryD4szDs2e7CFoAABC0rFdX18+Zo+VxjtapU68QtAAAIGh5m6P1w/tWJz5oVVY0MEcLAACClre1r/0YQUuxqqqWWD4/LbsOELQAACBoeQtanHVI0AIAgKAV0FmHBC2ZDr/c8vlpXLKdoAUAAEHL27DS6dObEx+0wh5aStACACAhQctNIHq0ud248OIx4/qFTnP9+uwJ8/8P7jlgrFi6O/SgNf2B1caOlZuN4y3bjdcP7jJ+9dxuc519fKf56zqC1ozpawhaAAAQtIKdCi9BKhuwrNbpI095ClxeAlbHjq2Dwcpq1U5fG8uhpQQtAAASELQqxtW5CkR2QSu7nt57MLCg9fDKTcabR1ttQxZBCwAARBq03E6FP/3UEcdhS7YUFy1s1Rq0juzY5ihgyTr12A6Xx/DUWT5Ply51E7QAACBouZsK7zZoybZgz2svOA5bb/3XZx2FLbsQNPm+lWbfldOQ5baaFfZ0eIIWAAAJCFpejt/Zu/Nxx0HLadiyC0FSnXITsjYt2RjrY3gIWgAAJCBoxWEqfFzGO6iClu5jeAhaAACUSNA60nGSoBWz6fAELQAASiRoqY7fmTJ5HUGLoAUAAEGrVM85JGgRtAAASGzQyv387u53hqSD69c/HPzYnkefGvz1Jw+8OOTraiat8By0KisWDfle+Q488cLgx95993eDv57/WCVIqc87XBbaeYcELQAASiRo+T1QetyY2sHPlwCVS4JNoRC0sK7ZVS+Ym0rTrVufDbmG5qb9OU3rZ8xf+8Mfeoc91urqxticd0jQAgCgRIKW3wOlZQTEd+MgGoz/+I//LBiyFtRtMX/9t7993/Xv46bStGf30YLVLFkvv3Te/HX5nCHXMLo2VgdLE7QAAEhA0HLSPzVt2uYhX7N1y+ODYUuCjoSvVStazW1EqTZNn7Zm6JZd5QLfPVoVYxcM+Z7nX3/L/P0/+eRT8/eWa5BrEfKx/Mcp248ELQAACFqxC1qy7h0/dPtOwpT0a2UDlwSs0y+fNwPP8O3Jzb6Dlmz7jbln7rDKlmwRZsl/D6tkpdfYMbWOG+Lzfw+CFgAABK3Ag9asWQ+blSmr72O1HpiyQdtdh6q7Aq3X3PTXLfV9sPSU+xsJWgAAELSCCVrZsJVf2bJa0kDvNGS5Ge8wELbmOroGqWS5CVmqoCWLoAUAAEErsKCVXRKgVNUtaZ6fMWNbYHO0pDl+4Lgci8A1utaorGjwNEuLoAUAAEEr0qCVXRKmpP9KRjdI+HLSi6V7YKlUrKoqF5vBS6pdbitYBC0AAAhasQxapTYZnqAFAABBi6BF0AIAAEkPWosWthitW9q1Ba2GOeuM2ulrIglaP56+mqAFAABBy13Qmj374cCC1oUXjxmnjzylLWjtXtdknH18p/HDmpWBBS0GlgIAQNBytVp2HbQMEHZnEHpdErCuX+g0w5bOoPWr53YHFrbkTkWCFgAABC1X6/kTZ5Tzppycd+hmvXjgsBmyggpasp5t3aE1ZI0fv1z5HLXvPUrQAgCAoDV89fT8qzFxQr1liJhQ3aAtZO3duX8wZAUZtGQd2bFNY29WnTJonT9/gaAFAABBq/Da135MGSR0bCHmhyzdQUuCVW7QkvX4lmbfIau6arHyuVm3plVryCJoAQBQYkFLqlpTH1gR2BbihlVtRs9rLw4LWvJruoLWqcd2DgtasjYtecjHluEy5XNy7/iFxqVL3QQtAAAIWurV1fVzZaioGDvf012IViEru4IOWn7C1rgx85XPyeFDJ7SHLIIWAAAlGLRkrVnVqgwW/2XiMtezsn599oRlyAoraF082up6xtbAeYlzQrvTkKAFAECJBy0nW4hTH9jgOGR1v/SsMmSFFbTchi05F9Fuy1B3AzxBCwCAEg9aTrYQx46uVfZrybR3GeFgV8nKLglkOoKWKmTlhi1pml+5YIPlrC27UQ6yjj9zKrCQRdACAKCEg5bdEFNZ1ZULB/u1li/ZbRzc/YRx7vhPHQWr/LV1w2OhBa38JVWwHSs3D6l02fVlBXGXIUELAIAEBS1Zs2etVwaO+jnrHFet4hq0ctf5Q7uMRTMalY9ZzjQM4i5DghYAAAkLWleu/EY5yFRWR+vukglazzzSZNuXdfZsV+Ahi6AFAEACgpasfzjdZduv9MaLRyIPWtJv5Sdkndm33ZhQWRvJKAeCFgAACQ1aTvq1JlbNN947530LUSbG+w1aDXPWeQ5ZF4+2GDMm10fel0XQAgAggUHLSb/WnAcbPQetn+59MtKg1Th7qW3VLoy+LIIWAAAJDVpTp9iPPGhasbnogtaulWttH1cQh0YTtAAAIGgNLidhRNZze39SNEHLrvk9d5069QpBCwAAglYw0+KdBhJZUQQtmYXlNmjZNb+HOaCUoAUAQEKDlt2keL9B68KLx3wHrd3rmlwHLTePqWXXAYIWAAAELYIWQQsAABRN0NrXfsxVKHE76qEYglbdvE0ELQAACFrRB61Xn36SoEXQAgCAoOVkrVnVGmjQ6n7pWd9BSw6HDjJoTaheQNACAICgpX811G8NNGhdffWEMXHCknSYWWS5xo6er1xPPbzVVcg62ebuMckiaAEAQNCKZFipn1la7VsfcR168teMKYsCD1phDi0laAEAkJCg5TaQ7N260101q3q+76Al6+Se5kCGlUYxtJSgBQAAQavg2rV+a6jVrOySMwt1H70T1dBSghYAAAkIWm5naMlaNHul46A19b4GbUFLltOgtWXJKtffO8xZWgQtAAAIWgXX1PsWRRK07q2sdRy05k9rIGgBAIBog9aRjpOeQk8UW4dSpXIatKZMrHP9/cOcpUXQAgAgAUFLNax03JhaLSMeZk9r9B2yfjx5ofHm0RbfM7TGjZlH0AIAgKAVTtDasnmvZfCQ2Vc6RjzInYd+wpbbkKUa7VAxbmEshpYStAAASEDQUg0rnTbNekRC0/JNroeW5oYt+e+J1XUF+7AkWA1WmaY1uApZdnccVlUuVla1CFoAABC0tK05szZYho7Zsx+2/NicBxtdBa1s2Fpdv97Ysnyz+f8vPbl/2Pc92PyQGZb2bljvqicrdy2dvdTyuqurlyqDVlhDSwlaAAAkIGhZBY7xVYvMMwgrxlk3lf/y9DHXYSs/ePkZSmq1JlRa95bJuYkV4+ojH1pK0AIAgKBlTJpo3VvV0brbV9B679zwoHVk+yZfIUs1EX7cmDrboBXW0FKCFgAAJR60VDO0aiatMIPWgz96yPJzVi9c5ytovXxwvzE6NfC9Rt8zO/3fs429Gzf4Clrr6qzPbaysaDCDVnXV4shnaRG0AABIcND64X2rzaAlS3VHoJ/tQ2moN0NWOmANHh49ud5zyLp4tEW5bTh+/DIzaFVVLSFoAQBA0Ap2PX/ijPX09wc2DAYt1ZgHt3cf5m4bTqwqfNj06wd3egpaqrsNx46pNUOWLAlcUc/SImgBABBR0Pryyy+NGzduRDqsVEY7ZIOWhC5VVUu2AN0GLTmYWsfh0dl1Zt925TVKX1Y2aMmKMmj9/ve/J2gBABBV0BJff/218fHHHwcatFp2HXQUtOzuPpTK1BsvHnEcsmTYqd2Q0kPNm1yFLNlytP5+c43x45fnBa25oQ8tfeedd4zPPvvMsEDQAgAgrKCV1dfXF8mw0tyQ5aSqJWGr41H7uxDlc5xOhG92MEdL7jJU9WUVqmbJCnto6fvvv2989dVXhgJBCwCAgIJWk+odWN6gP/roo0iDlqyqygW24WjqfYvMMHXu2MHBcCX/Lb8mH3N7/I4cDt2+cb3R2bZ1SAVLfk1dxcqs0bXDqlkDQasutKGlf/zjHw0HmviTAABAsGGrX/VOfPv27VBmaEmgKhS0Zs7crjxoOo5L7jDMD1lhDS3t6ekx7ty5Yxew+glZAACEE7ZS6dWjeleWRvne3t5QhpUWWnZbiLEKWZWLC4asMIaWys/om2++sQtZ8rNO8coHACDcwNWmenf+9ttvjT//+c++QtbFi7+wDBoyDd4qaBVL2FKFrCBnaUnD++eff+5kq7CNVzoAANGFrZr0uql6p5ZtKa9jIJwOK7Vaclei6k7E6NZcc/K7KmQFFbRkbIODKpb8TGt4hQMAEH3YKkuvTrvqlpcxEKphpVMmr7MNWrJmz35YeRai3TrwxAvG9esfGt0X3jDXJ598ahx/5ozn7ycN7oUa3wst+Txds7Rsxjbkkp9lGa9sAADiFbhm2TXKyxgIN9Utp8NK7ZY0yHsJRW/+90uWj+XtX1/V2vhutXQELWl4txnbkG14n8UrGQCAeFe3LqvezWXIqdMxELqCluosxAkVc40dy1aYa/GMhmEfX1m/3vjp/ieNN179b+Y62XHUeGj55mGfN/3+usHvc//E+bZnGTpdYy3uoHQ6tNTh2IbLVLEAACiewKVlDITbGVqqpZqv9eyujcb/PLrdXKvnLXFdpZKQdf7gVvPr/3F/k/Jz3YQsP0NLr169ytgGAABKOGzZjoGQ7SzVGAidQUvVpzX9/gWDQUnW329aazvJ3QxN6c+RClbu1y6ZuVjRnzXPddCqGLvA9dBSxjYAAJCcwGU7BuIvf/lLwaA1cUK9q2GlqjV9erMyNK2et3QwLMmS8HRk2zpj06JlRu2P6ocsqXrJx3IDliz5XD/jHPwOLZWGd6kUMrYBAIBkhS1PYyC8DCv1un2YrWz9rG3TkPDkZMl2oaqSlR3p4DZkyaqsaHA0tJSxDQAAJDtsORoDcevWLTNkXbnyG+vDoScs8RS0pIHeSc+VVLeObF9vG7AklMnnSkO93+GkXmdpSRVLnjPGNgAAAEdjIGRq+euvv+lrWKnVkq912uQuAWreg/XmluDO5SsHl/yak3CVOzvLS8iyC1ptezoY2wAAAApWt5RjIP76135j7pyN2oOWLNl6DGsKvIxncDqg1M0srb9//FnGNgAAAGXgsh0DcfjQSd8ztNzehRinkJUftKZMXmb88pfvMrYBAAA4Clu2YyCuXHnPuHfCIq1By+02ottVMW6hlpCVO0tr1oyNRl/f54xtAAAArgOXcgzErVt/Mf7uwbVm4JDzC3UErezxPFq3EkfXuj5mx7ZPq2KB0b73OGMbAACAr7BlOwZi/77njUWL9mgLWrl3JPrZTpSqk9c7C1Wrru5h4w9/6GVsAwAA0BK2bMdA/Pu//x/joYcOag9bsqRaNvWBDUbNpBXquVuja82p7TLnyu35hU5Xe/vzjG0AAACBBC7bMRA/+9n/CCRsWQWw6uqlgQSq/HX//euMS5d+w9gGAAAQaNiyHQPxwQd/Mlau3B9K2AojZK1c+ZjZj8bYBgAAEFbgUo6BuHPn/xoHD75c9EHr2LGzjG0AAACRhC3bMRD//M//EkijfNBBa/Lk9ca77/4vxjYAAIDIA5dyDMSnn/7V2Lnz6aIJWqtX7zW++OI/GdsAAABiE7Zsx0C8+mp37IPWmTNvMLYBAADEMmzZjoG4ceMTY9OmQ7ELWjNnbjX+7d8+StTYhhEjUwRGAACKMHDNsmuUf/bZc7EJWlu3HrbbKiy9sQ1lqbIR5aleXq0AABRn2LIdA/H22+/7bpT32/D+yitvJnJsw93lqY67R6YMXqkAABR34LIdA/HII8dCD1oNDa12W4UlO7ZBtgwlZBG0AAAojbBlOwbitdf+yVN1y0vIeu65VxM9tuHu8tQ1ghYAAKUXuJRjID788JaxefPhwILWrFnbjKtXryd6bMOIkam2bMgiaAEAUHphy3YMxIkTr2kPWj/5yfN2De83S3346Ii/TY3KDVkELQAASjNs2Y6B+N3v/rfR0NDmO2hJw/svfvGeXRWrIwnnFI4YmeomaAEAkJzAZTsGor2903PQWrt2X/LGNli4qzzVlB+yCFoAAJR+2LIdA3Hp0m8tG+V9jG3oSkIVS2S2DPsIWgAAJDdwKcdAyHmJhRrlGdtgLx2ozhUKWQQtAACSFbZsx0CcPv2mZdA6dOhlJ2MbRiXpOf3+D1KzrEIWQQsAgGQGLuUYiPffv2GsWvX4YNBibIOFslSZ1ZYhQQsAgGSHLeUYCGmU37jxSWPHjqcSP7bByojyVKcqZBG0AABIdtiyHQPB2AaLkJVzzA5BCwAAqAKXcgxEksc2FFSWKhtRnuolaAEAAKdhy3YMRNLGNljJP2aHoAUAAJwGLqsxEIkb21DI35SnUk5DFkELAAAUCluj8sZAJG5sg5W7y1PXCFoAAEBH4GpL5NgGC262DAlaAAAATkOW4pgdghYAAICfoDUy1e02ZBG0AAAAbNxVnmryErIIWgAAACoOjtkhaAEAAHiQDkvnvIYsghYAAICF7/8gNctPyCJoAQAAFOJzy5CgBQAAYOHu8lSH35BF0AIAAMgzYmSqRkfIImgBAADkB63yVC9BCwAAQHfI0ljNImgBAAAQtAAAAAhaAAAABC2CFgAAAEELAACAoAUAAEDQImgBAAAQtAAAyfA35anU93+Qmpl+o9uTs7qzK/2mdW7ox+6ZJF8T3zfseyaZ629TozQ9H905a+DXylNLvX5/ELQAACVMQsTd5anDmRDl7w2tPHVNgthdI1ObJdxov9iyVNlgcDKXZRgcdm3pMNTo5jlJf/5Jt5PJzc+X59JL6Br22PQs+b6BBlgd11gEQSv9mpiV93rTtu4qTzXxNxEAlFjVSoJE+g2oT+ebmcUaCF4ewodcZya8+b4OeeO2CzrmdWo69sUMai4fc/rr+nU//24CpuOQlX5cGq+xK+5BS/e15K3+OFeEAQAu3zC0VK68v+m7qvjofINTBS3Z+gsodPa5CTrp56YjgGvo0v06kgqMruuTSlGsg5ZUGjWeuUjIAoBSDFgDFYhzUQUs19WlkIKWPC9hBE+pbkVQKfouZGjePkw/Z5c1PS83w6oieX2sAf65IWQBQCmQikFIW4SOl9M3mCCDVtjPi9OwJRWoWG8fpkObxp9JW5yDls7KXRhbugCAsCtZ6b/M4xSw3L7p6XyzzQ13UT0vTsJWJgDGdvtQ53On2kKOOmiZ/YEBBXFCFgCUgCD/Ne7zzsSeKIJWXMKnk21T2VKL6/ahxopbV1g/e9dBS6p2mm7CIGQBAJWssIPG5aiCVhyeF2msdvC42+L6Bq+rymPVBB+HoJW5I5eQBQAo8CYx0FDdF+Og1RZF0DLnhcXkebF9DjT2QencPtS1ralqgo86aAW0dWswKwsASqea1RnXkOX2DSfg+UVRrr4ofo5+tw91XZOTsB1F0ArqHynyvPE3EwCUTjUr1iHD6WiHEg9aoW+d6di60jbM1cEctSiCVhB9WYQsAKCaFW7QcjEtvZSDlpM3YLlxIC7bh5m78ELr0Qs7aAUxLJaQBQAlRue2h/TRyDbfsAqUeSafOWG+Rioksg2UGWDZr70puYSDlsPtw8a4bB/qCiJOq2phBq0g+rIIWQBQatUsncM9Pb5JmJPWJXylv77giAIXox0SELTsB7cONMX3x2H7UNO2Wn9UP3vVa1Z3X5abO2sBAEVC19wsJ3eEOWUeXi0Vr0zocvsGFGDQ6pcwWLBil/l9Mx+7HGWfVqaq1Rn19qG23r/yVEfsgpbuI5jkHxOajzwCAMSjotUW53+NZ0JXTZRBSx6bk3Az7Br090o5v/sugBsc3AYBbSE+wv68IP/MELIAIBlB63JcxgBofEw1sdjOkb60AKa1O60u6a6sud0+1PH7R13NDLxaSsgCAIKWizeNa3F404hN0PpeQOMWnN6Bp78p3vn2oabhqR7CXXBBa+Ax9RGyAACO6b49XWYmud3qK+WglQk8nVE1TetuincaDDSFvP4of/b5QUtzX1a/my1RAEDxVrTaAuoj6o4qcMUtaOmaJeXx3Me2KLYPtRwi7aIJPuigpfkfJP22d44CAEqDroZlVYXrrpGpzWFukcQtaGUqPDcjCVr6m+IdbR/q2GLzEkaCCFqa52URsgAgSXRXW2zWOTmkOaFBqzOqa9JSXXKxfaglmLicnRZU0NI8L4uQBQBJFNCdcXZ9XHuC6lGJZdDSuIUX9Z14dtuHOkKl1wGpAdwVeI2QBQCITbXFwxvqSd29XAStwMN0l83v1eu7Cd7jVnNcTwXwezA3AKCYg1YAwy2jbJ6P6dZhY5TXpLsXzyoI6diK9nPeX0yDVh9jHACAqlZnTP7lf9Lvm1JMK1rRXpOmuVZ2FRodd+f52WKLbUUr/Q8J/pYBgCQLboq5pwqA2yNvCFqhh+kui6B1LYom+LgHLVlSVeQvGgBIsMy2T39s3pzKU4cJWvquSfMdpn3DHqOGLWi/vUxxDlp+q3UAgBKQeaPqj1ET8UmClr5r0nnQdX5PnYY+tP44bRsH9I+Ha/wtAwBUtuJW2XI1IZygpbgOjU35+Vthfrcm/TTBF03Q8jjxHgBQaqRnS+eB0yFuKRG01D9XjSG6Ky9o9Ua9raZ9ZtjAWI6uAJrja/hLBgCQHQvQX0y3yBO01HSd2yfBavDx+ezPkhsx4vY8D551GMCNIuZzx8gHAEBOdast6sAl10DQ8n9NOuemZcOC32N3dN2RF9Sh0jq3XHOPpOIvFwBAnAJXH0FLzzXp2hbOboH5rZLpqu4EFbR0Pme5y88YEwBACZN/4UfRw+XkjYmgZU/Lwc85VUY/rwUdTfBhBK2ADmDvC+rMTwBAKQQu2YYaqGb0h9QUb/umTNByHJZv6vp5xKUxPMiglXnOOgPYEmdqPADAWZUk6CqXk5BB0HJ8TW06rsVPpUdXE3xYQUvzXZtMjQcAeKtyBXV2Yu6dbgQtDdVITdu5cQkYgQctTQGVqfEAAN/MSofGSeSqNz+Clsfr0hGIfTTC6x5xEEbQyjxv+s8FlanxjHwAALgiWy2awxZBS2PQinCSus4m+LCDlq6bCZgaDwDQU9kiaMUyaAVWnYlotEFYQSvze10OqA+xhr81AKBEyF/qcnBz0H+5a6yC3CRo6Q1amen/YVezbgb1eg4raAU07sHVKQgAgJjL3QKRRvP0Wqq9b0bjJHLuOtQftIK6k07HlP84B61MNbAzoOeIqfEAUCIVLas7qM7dNTK1WccwRZkTFOYbNEHLw/UFFxgKP4aAhnSGHbSCDKluDlIHAMSUkzvGMpWuk2bwGnnPJMeHO5enlsqdVGHfAk/Qci/AbbBCqyvAfziEG7S+F+jWK1PjAaAEKlqXPb8JjEx15650qDo8+N8R9vUQtEJ/LcTmfL8oglbmHxU3A9piZWo8ABR10CpP9UZ1e39QWykELc+vhcZibYKPPGgFOCYjqH42AEAIiihk3XS8ZUnQ8vN66C/GJviog1bQFUGmxgNAMVazNN4NGKftJoKWj6DlY8p7lE3wsQhaQf55Ymo8ABRh0IpwKniQE8QJWrEN313F9pqOVVBlajwAFJcoBlV6eHPpKYVQUyxBywwL6UBUbE3wcQlaQc8kC+M5BADoe1Nqi33I8rBdQtDyJ6Bz/PqLsUobw3/AMDUeAIpFUJWLqA8cJmhpuF7d4wpC2vaKQ9Ay/2xpPkidqfEAUJwVrcsxDFn9frdHCFrxq3aGNXgzLkEr6P5HqZrxNxgAxJzcMp45eqU/NlUsDdsiBC0NBnqNiud6Yxa0QqgYMzUeAIpG+k3VHFYZ7HaHZQVLtpV0vmkQtDQ9j5rOPwzzzL44Ba3Ax6fIyAcAQHGGLnmTDepYEQlX8v2DuoOKoBWr57E/zJdvnIJW5noCveGEqfEAUOTkX+Xy5iU9IfKXurzJuwpg5ake82vka9MBjgnXxUPL3YfMfgIAQF81gb6Rkvp5dhdLEzwAAEBRheZiaoIHAAAopqDVrSFo1fBMAgAA5IYsuQPV/52GN3kmAQAAcg3cddpbTCMdAAAAioLcJUg1CwAAQDNdM6ioZgEAAOSQ+WZyrAvVLAAAAJ009WVRzQIAAMihq5LF3CwAAIAcmSN2+jSeu1fDswoAABJNqlg6BpJypiEAAEgcOV/wrpGpzSNG3jMpuwb+P7VHVy/WsAb4slQZzzwAACj9oKW7WsWWIQAAwGDfVWghiy1DAACQDGWpMp3N7Q5CVg9POgAASIR0+DkXYjWrn74sAACQCCFvGfbLnYs86wAAoPRpnOxO8zsAAEAOaUgPq5LFETsAACAxpLrEdiEAAIBuYW0Zlqd6CFkAACBRRoxMtYVQyeri7kIAAJAoUmEKtOG9PHWTpncAAJBIZm9WeaqHhncAAIBgA1eHVKD8bhESsAAAACzIdqKEJendSq/LsqRCZbEtKB9vk0Gn9GABAAAAAAAAAAAAAAAAAAAAAAAAAAAAAAAAAAAAAAAAAAAAAAAAAAAAAAAAAAAAAAAAAAAAAAAAAAAAAAAAAAAAiK//D6ub+Z0c+eUqAAAAAElFTkSuQmCC;" parent="1" vertex="1">
                    <mxGeometry x="-502" y="356.20000000000005" width="152.43" height="86.6" as="geometry"/>
                </mxCell>
                <mxCell id="60" style="edgeStyle=none;html=1;exitX=0.5;exitY=0;exitDx=0;exitDy=0;entryX=0.5;entryY=1;entryDx=0;entryDy=0;fontColor=#F0F0F0;startArrow=classic;startFill=1;strokeColor=#000000;" parent="1" source="70" target="59" edge="1">
                    <mxGeometry relative="1" as="geometry">
                        <mxPoint x="-452.5899999999998" y="447" as="targetPoint"/>
                        <mxPoint x="-451.85" y="532" as="sourcePoint"/>
                    </mxGeometry>
                </mxCell>
                <mxCell id="63" value="" style="shape=image;verticalLabelPosition=bottom;labelBackgroundColor=#ffffff;verticalAlign=top;aspect=fixed;imageAspect=0;image=data:image/png,iVBORw0KGgoAAAANSUhEUgAAAloAAAFWCAYAAACxcTMMAAAsAUlEQVR42u3d+3dUZZ7v8f5lWvwtP87q8AN/QsklF5BDbEFahuYaCIQA4X4VQriIJEKWTcARgSAtoqiEPsogs45EWefQysHQ0z20to1kpl2n6fFgsFuZ1j50osN4XEs9+9R3pypWKrWffXv2pWq/X2s9aym5sKtSUB++z3d/n+99DwAAAAAAAAAAAAAAAAAAAAAAAAAAAAAAAAAAAAAAAAAAAAAAAAAAAAAAAAAAAAAAAAAAAAAAAAAAAEXLMIzGYrrW9CrjpwYAAIohuDSlV1cRXW+bLH5yAAAg7qGlLL360utyEV3z5cw1j+InCAAA4hxaOoyMIrrm3swld/ITBAAAcQ0so4yhyorkunPV8JMEAABxDCzdxRZa0teYyrvmbn6SAAAgboGlxhiuqUivu5GfKAAAiFNg6S0QWNqK4LrbClx3Lz9RAAAQl7DSaBR2uQiuvdPi2tv4yQIAgKiDSnacQyHXiuD6L1tcex9DTAEAQNRBpc1QKILr71Ncfgc/YQAAEFVIGWUTVEQq5o/Bzih+0gAAIIqQ0ukgqNTE+PprHFz/OX7SAAAg7JCSP3/K+OKLO0b3W28XTVN5fhP/u+/+zvjkk0+LKiwCAIDSDFr5w0mNA0+8YBx/5kzR9Dnl95e9/NJ5Y8+jTxUKWgwxBQAAoQWUYVtuUgkac88co7lpf9GMeEhfW1fuhUpIlMcglS2GmAIAgKgCyrX8FLJ1y+NmSFm1onXYmIQYP44hox3k2uUxrF75qMEQUwAAEEU4GTacVCpAElCyq1hGPORf58K65sHHYFHVauIVAAAAggwnw47akQpQbtCSpvi4N5NnRlMMkfsYpk9bwxBTAAAQajgZNpz09dfeGhJQLKpBjTF8LDWFesxylzw2juYBAABhBJOCR+1I5cdBQGmL4eNpUm1/ZqtaBapzVLUAAID2YDKsmpW9Sy9/FRjx0BX3xyOjHRw+FtHJKwIAAOgKJcOO2pFKz6SJDQXDSTGMeMi/49AqNMpjLFDV4mgeAACgLZR0Oq1myZK79+J+52F+U392tANVLQAAEGYgGWU1nFS14l4BctJr5qCqleIVAgAA/ASSYdUsOabGLmgVODOwJkaPKaUa7eCiqsXRPAAAwHMg8VTNshjx0BSjxzUr98KuX//Q9vEoqlo1vFIAAICXQHLOSzVLltzFF9cRD/l3HBYa7UBVCwAABBlGhh0c7aTyowgll2P02DqdNvZT1QIAAEGEkW67o3ZUq8Dh0r0xemxDRjsceOIFPwGSqhYAAHAVRGrsDo62W3Ee8ZA/E0w12oGqFgAA0B1EfFWzFCMeUjF4bGVuRjtQ1QIAADqDiO9qVpxHPBR6fG4fl1S1LNTwCgIAAKogoqWaZTHioS0Gj6/Ra4O/zcHZVLUAAIAyhLiuZs2Z1uhmxENnDB6j49EOdX/XYPkx2W6kqgUAANyEkC431ayp9y0yXn36ScuPy918cRvxkP8YVaMdDjU/pAxbVLUAAIDTAOJ6Cvxz7Y8ZV1894WbEQ18MHuc1p6MdTrY1Gyf3NLu6s5KqFgAAKBRAXJ1pOLF6vhmyrl/odLW9FoPHaTgd7XDxaIvxq+d2GzMm17vpQ6OqBQAAhoQP19Ws9m2PmCFLVsOcVW5GPNTE6XHKHYRW1y4hS5ZsIVp9jmytUtUCAACqANLhtZola039esvPlbv68jRG+Dgdj3aQ3qxs0JI1ZWKdmzEWsWj8BwAA0YessvxJ6W6qWbLk/4thxEP6925yesfhstlLhwQtVVVLQqmFUbzCAABIdtBqyk8Hqjvx8qtZsqQp3sUU9a4IH+uQyl33W29bXnfLqrVDgpaqqqU4lqeTVxgAAMkOWr25yUACg6pvqWXDtiEhS5bLEQ/XInysl92MdsgPWqqqVoGZYUamUljGqwwAgGSGrFn5yUBmQ6m2DX95+tiwoOVyxIMR4ePtddqHJqMd8oPWm0dbjHsra90OMG3ilQYAQDKDVpebA5abVmweFrJkSfhyOUFd7v6bZLGWSgbyuDZbfd/M43U82qHQ1qEs+XWrr5GtyAJ6eaUBAJC8kDVs1IGqZ0mWbBEWClqqrUOLEQ+xoNoiXbdgecGg9dqTOy2/prlpP6MeAABA4SZ41XE7MiurUMiyu+vQYsRDLKiuWYaUFgpasiSEMeoBAACoglav2+N2rIKWao6WYkstUnaHZecOLM1fZ/Ztd9P8n0VTPAAACQhYMjdrRX4KUJ35J4dHW4UsWfJxVWApMOIhcnbbpLJeSQcqq7Blddi0oil+P2ELAIDSC1aTMk3i5/KrWE77lfIHlOau986dsA0suQM9v/rqK+PLL78csvr6+ozbt287Wn/6058cr88//3zIunPnjqPRDoOPe+N6y6ClGvVgU8Hrzfws9mSb9AEAQPFUq2am12Ep2jit7tiNdJAwZRW0Xjq43zawNNRvNT744AMt68qVK1rWujWtttdt1RCfXVajHhRN8VauZX5mM6l6AQAQv4rVnsybtScSDNyOdHDaCG9Ok59QH7ugVTdvk+11yyR4VdBqXmJ9mLbFpHi3wYuKFwAAEVStlma2n/r89irZNcFbjXTIrjnTGm0Di6y4BS0n1yzr9YM7LYOWatSDVAk16cv8rJdS7QIAINiQ1ajjnfvrr782+5Wk5+nY0y95boJ30p+VXV1dP49N0Lp0qdvxdRc6isdJU3z9gi3G9evXB3vFvvnmG13Bq5E/CQAABBO02ry8M2cbzm/dumX09vYOCS5zZm3w1ATvtD8ru/7hdFdsgtapU684vu5ls5cqg5aqKf78+QtDft+enh7zMXz22WfmTQEetfEnAQCACIOWvIlLterjjz+2CS2/cX2uYe6S/i2ngWVf+7HYBK3Dh5xX4qThXRW05PxDq6+V30d1HVevXvUSvAhaAACEGbS+/fZb44svvjArVjdu3HAcWp4/YT3iQHqvVCFL1sTq+Y4Dy5bNe2MTtFp2HXB83bKOPdKkDFtS9Sr0dY1Ltru6Lql4ScUxdwwFQQsAgIiClmwJfvTRR55Dy5pV1iMOOlof1bZtqHPEg46gJQHIzbXL3YVetw+9XuM777xjPl6CFgAAEQWt27dv/z8/oUXGLlgFhDdePKIMWi0btrkKK7pGPIQ12kHX9uHxZ075ulaCFgAARRi0Ll78hee7DZ0cu1No9fT8ayyCltvrdrJ9KIdQF6yGbdlL0AIAIGlBS9WfZTek1O22oc47D8Mc7eBmSnzLqrUFv06qZwQtAAASFrTkLkCvYx3W1K/3FFYWL9oWedBatnSH5fWNG1OnvP6LR1ssg5ZUvAp9zYTqBQQtAACSFrRadh20DBRSsbIKWTLyQRVGpj6wQfnxIx0nIwtadvOzKsbVp8PWPE+HTJ9sa3Y8T4ugBQBAiQctuQvQKhhIo7uXsw3HVy0y5s7dlQ4sdcqmeCe9WtJDdvp0l7F/3zODq7XlkLFu7aPGo60HB9fx4z8zzp7tcrRlOOV+1XFBc43x45cbVZWLPZ19KCHM6usk4BG0AABIUNBS9WjJfCyrI3dUs7OkmiVBa9q0JlcztWRw6gvPnzG2NLUrJ9XbrRnT15hBrOPwiWFVJLvZWZUVDcaECSvMsCWhy+2RPFbN8AQtAAASGLSkqqQKHs+1P+aqmjVuTK0ZsrJr4oQlyu8vwUoqVH6Cld2SCtbW5nYzeKk+T7YLJWRlV8XYBa6qWq/ss57LNTl9DfRoAQCQsKAlSypLVgFBGt7dVLN+eN/qIUFr9uyHzfAVVIjSuaqrlw4JWuPHL3N10LQMNLUcdsp4BwAAkhm0ZNyC07MOVQNKJVBJsMoNWrKmTF4X+5AlDfC5IctLVUsGmgbRCE/QAgCgiIOWrKkPrLA9hkemxKvCSn41K3dJg3xsg9boWrMnq1DQsqtqydwsu+N3fjx9te9xFAQtAACKOGip5mllJ8TLAdNuq1nZNX16c3y3DKsWFwxZTqpasqQ3y+pAaVmHD50gaAEAkOSgJXf8qcKE3XBSVTUru2omrXAVgKQKJl8jdzHKHYwzZ24f/F7fVZyWG1VVS8xxDN/Nv5rr+PeQ4aSqkPVdVcv6e6ruNJQlIyUIWgAAJDho2c3UUq2qygW2ISvbGK+arSXfRwKbhCq772UXjqSxXUY1qAaPDszMWmb7vcyq1rh6b0f2rGnVci4jQQsAgCIPWqqZWqol24JOgpasB3/0UF4Tep3ZLJ9brXKynISjIVWvysXG2Ly7H7Mzs5yusR7unjz+zCmCFgAABK2BJRPb3QQJ2dpzE5Cys7UmTWx0VLnSEbTyK13ScyWhye3Xyhalm+fG7+wsghYAACUWtFQztQpt9aka4INcXoOW31UxbqHj58fv7CyCFgAAJRa05GxBZ03kta62DEslaMmSBnonz5Hf2VkELQAASixo2c3Uyi4/237FHrSk58uuX0vH7CyCFgAAJRi0jnScVIaI7KHRSQ1a2V4v1cgHHbOzCFoAAJRg0LI7aDrqalYcgpbdxHgds7MIWgAAlGDQkrVmVatliJA7BpMetFRztXTNziJoAQBQokFLddD02NG1kd1tGJegpdo21DU7i6AFAECJBi27pvhkN8MvC2V2FkELAIASDlqqI3mSHLQGKlqFn5e6eZsIWgAAELT8Ba2k92gRtAAAIGj5Wqq76pIetFSHVRO0AAAgaHkOWnL0DkGLoAUAAEErgKN4xlctYryD4szDs2e7CFoAABC0rFdX18+Zo+VxjtapU68QtAAAIGh5m6P1w/tWJz5oVVY0MEcLAACClre1r/0YQUuxqqqWWD4/LbsOELQAACBoeQtanHVI0AIAgKAV0FmHBC2ZDr/c8vlpXLKdoAUAAEHL27DS6dObEx+0wh5aStACACAhQctNIHq0ud248OIx4/qFTnP9+uwJ8/8P7jlgrFi6O/SgNf2B1caOlZuN4y3bjdcP7jJ+9dxuc519fKf56zqC1ozpawhaAAAQtIKdCi9BKhuwrNbpI095ClxeAlbHjq2Dwcpq1U5fG8uhpQQtAAASELQqxtW5CkR2QSu7nt57MLCg9fDKTcabR1ttQxZBCwAARBq03E6FP/3UEcdhS7YUFy1s1Rq0juzY5ihgyTr12A6Xx/DUWT5Ply51E7QAACBouZsK7zZoybZgz2svOA5bb/3XZx2FLbsQNPm+lWbfldOQ5baaFfZ0eIIWAAAJCFpejt/Zu/Nxx0HLadiyC0FSnXITsjYt2RjrY3gIWgAAJCBoxWEqfFzGO6iClu5jeAhaAACUSNA60nGSoBWz6fAELQAASiRoqY7fmTJ5HUGLoAUAAEGrVM85JGgRtAAASGzQyv387u53hqSD69c/HPzYnkefGvz1Jw+8OOTraiat8By0KisWDfle+Q488cLgx95993eDv57/WCVIqc87XBbaeYcELQAASiRo+T1QetyY2sHPlwCVS4JNoRC0sK7ZVS+Ym0rTrVufDbmG5qb9OU3rZ8xf+8Mfeoc91urqxticd0jQAgCgRIKW3wOlZQTEd+MgGoz/+I//LBiyFtRtMX/9t7993/Xv46bStGf30YLVLFkvv3Te/HX5nCHXMLo2VgdLE7QAAEhA0HLSPzVt2uYhX7N1y+ODYUuCjoSvVStazW1EqTZNn7Zm6JZd5QLfPVoVYxcM+Z7nX3/L/P0/+eRT8/eWa5BrEfKx/Mcp248ELQAACFqxC1qy7h0/dPtOwpT0a2UDlwSs0y+fNwPP8O3Jzb6Dlmz7jbln7rDKlmwRZsl/D6tkpdfYMbWOG+Lzfw+CFgAABK3Ag9asWQ+blSmr72O1HpiyQdtdh6q7Aq3X3PTXLfV9sPSU+xsJWgAAELSCCVrZsJVf2bJa0kDvNGS5Ge8wELbmOroGqWS5CVmqoCWLoAUAAEErsKCVXRKgVNUtaZ6fMWNbYHO0pDl+4Lgci8A1utaorGjwNEuLoAUAAEEr0qCVXRKmpP9KRjdI+HLSi6V7YKlUrKoqF5vBS6pdbitYBC0AAAhasQxapTYZnqAFAABBi6BF0AIAAEkPWosWthitW9q1Ba2GOeuM2ulrIglaP56+mqAFAABBy13Qmj374cCC1oUXjxmnjzylLWjtXtdknH18p/HDmpWBBS0GlgIAQNBytVp2HbQMEHZnEHpdErCuX+g0w5bOoPWr53YHFrbkTkWCFgAABC1X6/kTZ5Tzppycd+hmvXjgsBmyggpasp5t3aE1ZI0fv1z5HLXvPUrQAgCAoDV89fT8qzFxQr1liJhQ3aAtZO3duX8wZAUZtGQd2bFNY29WnTJonT9/gaAFAABBq/Da135MGSR0bCHmhyzdQUuCVW7QkvX4lmbfIau6arHyuVm3plVryCJoAQBQYkFLqlpTH1gR2BbihlVtRs9rLw4LWvJruoLWqcd2DgtasjYtecjHluEy5XNy7/iFxqVL3QQtAAAIWurV1fVzZaioGDvf012IViEru4IOWn7C1rgx85XPyeFDJ7SHLIIWAAAlGLRkrVnVqgwW/2XiMtezsn599oRlyAoraF082up6xtbAeYlzQrvTkKAFAECJBy0nW4hTH9jgOGR1v/SsMmSFFbTchi05F9Fuy1B3AzxBCwCAEg9aTrYQx46uVfZrybR3GeFgV8nKLglkOoKWKmTlhi1pml+5YIPlrC27UQ6yjj9zKrCQRdACAKCEg5bdEFNZ1ZULB/u1li/ZbRzc/YRx7vhPHQWr/LV1w2OhBa38JVWwHSs3D6l02fVlBXGXIUELAIAEBS1Zs2etVwaO+jnrHFet4hq0ctf5Q7uMRTMalY9ZzjQM4i5DghYAAAkLWleu/EY5yFRWR+vukglazzzSZNuXdfZsV+Ahi6AFAEACgpasfzjdZduv9MaLRyIPWtJv5Sdkndm33ZhQWRvJKAeCFgAACQ1aTvq1JlbNN947530LUSbG+w1aDXPWeQ5ZF4+2GDMm10fel0XQAgAggUHLSb/WnAcbPQetn+59MtKg1Th7qW3VLoy+LIIWAAAJDVpTp9iPPGhasbnogtaulWttH1cQh0YTtAAAIGgNLidhRNZze39SNEHLrvk9d5069QpBCwAAglYw0+KdBhJZUQQtmYXlNmjZNb+HOaCUoAUAQEKDlt2keL9B68KLx3wHrd3rmlwHLTePqWXXAYIWAAAELYIWQQsAABRN0NrXfsxVKHE76qEYglbdvE0ELQAACFrRB61Xn36SoEXQAgCAoOVkrVnVGmjQ6n7pWd9BSw6HDjJoTaheQNACAICgpX811G8NNGhdffWEMXHCknSYWWS5xo6er1xPPbzVVcg62ebuMckiaAEAQNCKZFipn1la7VsfcR168teMKYsCD1phDi0laAEAkJCg5TaQ7N260101q3q+76Al6+Se5kCGlUYxtJSgBQAAQavg2rV+a6jVrOySMwt1H70T1dBSghYAAAkIWm5naMlaNHul46A19b4GbUFLltOgtWXJKtffO8xZWgQtAAAIWgXX1PsWRRK07q2sdRy05k9rIGgBAIBog9aRjpOeQk8UW4dSpXIatKZMrHP9/cOcpUXQAgAgAUFLNax03JhaLSMeZk9r9B2yfjx5ofHm0RbfM7TGjZlH0AIAgKAVTtDasnmvZfCQ2Vc6RjzInYd+wpbbkKUa7VAxbmEshpYStAAASEDQUg0rnTbNekRC0/JNroeW5oYt+e+J1XUF+7AkWA1WmaY1uApZdnccVlUuVla1CFoAABC0tK05szZYho7Zsx+2/NicBxtdBa1s2Fpdv97Ysnyz+f8vPbl/2Pc92PyQGZb2bljvqicrdy2dvdTyuqurlyqDVlhDSwlaAAAkIGhZBY7xVYvMMwgrxlk3lf/y9DHXYSs/ePkZSmq1JlRa95bJuYkV4+ojH1pK0AIAgKBlTJpo3VvV0brbV9B679zwoHVk+yZfIUs1EX7cmDrboBXW0FKCFgAAJR60VDO0aiatMIPWgz96yPJzVi9c5ytovXxwvzE6NfC9Rt8zO/3fs429Gzf4Clrr6qzPbaysaDCDVnXV4shnaRG0AABIcND64X2rzaAlS3VHoJ/tQ2moN0NWOmANHh49ud5zyLp4tEW5bTh+/DIzaFVVLSFoAQBA0Ap2PX/ijPX09wc2DAYt1ZgHt3cf5m4bTqwqfNj06wd3egpaqrsNx46pNUOWLAlcUc/SImgBABBR0Pryyy+NGzduRDqsVEY7ZIOWhC5VVUu2AN0GLTmYWsfh0dl1Zt925TVKX1Y2aMmKMmj9/ve/J2gBABBV0BJff/218fHHHwcatFp2HXQUtOzuPpTK1BsvHnEcsmTYqd2Q0kPNm1yFLNlytP5+c43x45fnBa25oQ8tfeedd4zPPvvMsEDQAgAgrKCV1dfXF8mw0tyQ5aSqJWGr41H7uxDlc5xOhG92MEdL7jJU9WUVqmbJCnto6fvvv2989dVXhgJBCwCAgIJWk+odWN6gP/roo0iDlqyqygW24WjqfYvMMHXu2MHBcCX/Lb8mH3N7/I4cDt2+cb3R2bZ1SAVLfk1dxcqs0bXDqlkDQasutKGlf/zjHw0HmviTAABAsGGrX/VOfPv27VBmaEmgKhS0Zs7crjxoOo5L7jDMD1lhDS3t6ekx7ty5Yxew+glZAACEE7ZS6dWjeleWRvne3t5QhpUWWnZbiLEKWZWLC4asMIaWys/om2++sQtZ8rNO8coHACDcwNWmenf+9ttvjT//+c++QtbFi7+wDBoyDd4qaBVL2FKFrCBnaUnD++eff+5kq7CNVzoAANGFrZr0uql6p5ZtKa9jIJwOK7Vaclei6k7E6NZcc/K7KmQFFbRkbIODKpb8TGt4hQMAEH3YKkuvTrvqlpcxEKphpVMmr7MNWrJmz35YeRai3TrwxAvG9esfGt0X3jDXJ598ahx/5ozn7ycN7oUa3wst+Txds7Rsxjbkkp9lGa9sAADiFbhm2TXKyxgIN9Utp8NK7ZY0yHsJRW/+90uWj+XtX1/V2vhutXQELWl4txnbkG14n8UrGQCAeFe3LqvezWXIqdMxELqCluosxAkVc40dy1aYa/GMhmEfX1m/3vjp/ieNN179b+Y62XHUeGj55mGfN/3+usHvc//E+bZnGTpdYy3uoHQ6tNTh2IbLVLEAACiewKVlDITbGVqqpZqv9eyujcb/PLrdXKvnLXFdpZKQdf7gVvPr/3F/k/Jz3YQsP0NLr169ytgGAABKOGzZjoGQ7SzVGAidQUvVpzX9/gWDQUnW329aazvJ3QxN6c+RClbu1y6ZuVjRnzXPddCqGLvA9dBSxjYAAJCcwGU7BuIvf/lLwaA1cUK9q2GlqjV9erMyNK2et3QwLMmS8HRk2zpj06JlRu2P6ocsqXrJx3IDliz5XD/jHPwOLZWGd6kUMrYBAIBkhS1PYyC8DCv1un2YrWz9rG3TkPDkZMl2oaqSlR3p4DZkyaqsaHA0tJSxDQAAJDtsORoDcevWLTNkXbnyG+vDoScs8RS0pIHeSc+VVLeObF9vG7AklMnnSkO93+GkXmdpSRVLnjPGNgAAAEdjIGRq+euvv+lrWKnVkq912uQuAWreg/XmluDO5SsHl/yak3CVOzvLS8iyC1ptezoY2wAAAApWt5RjIP76135j7pyN2oOWLNl6DGsKvIxncDqg1M0srb9//FnGNgAAAGXgsh0DcfjQSd8ztNzehRinkJUftKZMXmb88pfvMrYBAAA4Clu2YyCuXHnPuHfCIq1By+02ottVMW6hlpCVO0tr1oyNRl/f54xtAAAArgOXcgzErVt/Mf7uwbVm4JDzC3UErezxPFq3EkfXuj5mx7ZPq2KB0b73OGMbAACAr7BlOwZi/77njUWL9mgLWrl3JPrZTpSqk9c7C1Wrru5h4w9/6GVsAwAA0BK2bMdA/Pu//x/joYcOag9bsqRaNvWBDUbNpBXquVuja82p7TLnyu35hU5Xe/vzjG0AAACBBC7bMRA/+9n/CCRsWQWw6uqlgQSq/HX//euMS5d+w9gGAAAQaNiyHQPxwQd/Mlau3B9K2AojZK1c+ZjZj8bYBgAAEFbgUo6BuHPn/xoHD75c9EHr2LGzjG0AAACRhC3bMRD//M//EkijfNBBa/Lk9ca77/4vxjYAAIDIA5dyDMSnn/7V2Lnz6aIJWqtX7zW++OI/GdsAAABiE7Zsx0C8+mp37IPWmTNvMLYBAADEMmzZjoG4ceMTY9OmQ7ELWjNnbjX+7d8+StTYhhEjUwRGAACKMHDNsmuUf/bZc7EJWlu3HrbbKiy9sQ1lqbIR5aleXq0AABRn2LIdA/H22+/7bpT32/D+yitvJnJsw93lqY67R6YMXqkAABR34LIdA/HII8dCD1oNDa12W4UlO7ZBtgwlZBG0AAAojbBlOwbitdf+yVN1y0vIeu65VxM9tuHu8tQ1ghYAAKUXuJRjID788JaxefPhwILWrFnbjKtXryd6bMOIkam2bMgiaAEAUHphy3YMxIkTr2kPWj/5yfN2De83S3346Ii/TY3KDVkELQAASjNs2Y6B+N3v/rfR0NDmO2hJw/svfvGeXRWrIwnnFI4YmeomaAEAkJzAZTsGor2903PQWrt2X/LGNli4qzzVlB+yCFoAAJR+2LIdA3Hp0m8tG+V9jG3oSkIVS2S2DPsIWgAAJDdwKcdAyHmJhRrlGdtgLx2ozhUKWQQtAACSFbZsx0CcPv2mZdA6dOhlJ2MbRiXpOf3+D1KzrEIWQQsAgGQGLuUYiPffv2GsWvX4YNBibIOFslSZ1ZYhQQsAgGSHLeUYCGmU37jxSWPHjqcSP7bByojyVKcqZBG0AABIdtiyHQPB2AaLkJVzzA5BCwAAqAKXcgxEksc2FFSWKhtRnuolaAEAAKdhy3YMRNLGNljJP2aHoAUAAJwGLqsxEIkb21DI35SnUk5DFkELAAAUCluj8sZAJG5sg5W7y1PXCFoAAEBH4GpL5NgGC262DAlaAAAATkOW4pgdghYAAICfoDUy1e02ZBG0AAAAbNxVnmryErIIWgAAACoOjtkhaAEAAHiQDkvnvIYsghYAAICF7/8gNctPyCJoAQAAFOJzy5CgBQAAYOHu8lSH35BF0AIAAMgzYmSqRkfIImgBAADkB63yVC9BCwAAQHfI0ljNImgBAAAQtAAAAAhaAAAABC2CFgAAAEELAACAoAUAAEDQImgBAAAQtAAAyfA35anU93+Qmpl+o9uTs7qzK/2mdW7ox+6ZJF8T3zfseyaZ629TozQ9H905a+DXylNLvX5/ELQAACVMQsTd5anDmRDl7w2tPHVNgthdI1ObJdxov9iyVNlgcDKXZRgcdm3pMNTo5jlJf/5Jt5PJzc+X59JL6Br22PQs+b6BBlgd11gEQSv9mpiV93rTtu4qTzXxNxEAlFjVSoJE+g2oT+ebmcUaCF4ewodcZya8+b4OeeO2CzrmdWo69sUMai4fc/rr+nU//24CpuOQlX5cGq+xK+5BS/e15K3+OFeEAQAu3zC0VK68v+m7qvjofINTBS3Z+gsodPa5CTrp56YjgGvo0v06kgqMruuTSlGsg5ZUGjWeuUjIAoBSDFgDFYhzUQUs19WlkIKWPC9hBE+pbkVQKfouZGjePkw/Z5c1PS83w6oieX2sAf65IWQBQCmQikFIW4SOl9M3mCCDVtjPi9OwJRWoWG8fpkObxp9JW5yDls7KXRhbugCAsCtZ6b/M4xSw3L7p6XyzzQ13UT0vTsJWJgDGdvtQ53On2kKOOmiZ/YEBBXFCFgCUgCD/Ne7zzsSeKIJWXMKnk21T2VKL6/ahxopbV1g/e9dBS6p2mm7CIGQBAJWssIPG5aiCVhyeF2msdvC42+L6Bq+rymPVBB+HoJW5I5eQBQAo8CYx0FDdF+Og1RZF0DLnhcXkebF9DjT2QencPtS1ralqgo86aAW0dWswKwsASqea1RnXkOX2DSfg+UVRrr4ofo5+tw91XZOTsB1F0ArqHynyvPE3EwCUTjUr1iHD6WiHEg9aoW+d6di60jbM1cEctSiCVhB9WYQsAKCaFW7QcjEtvZSDlpM3YLlxIC7bh5m78ELr0Qs7aAUxLJaQBQAlRue2h/TRyDbfsAqUeSafOWG+Rioksg2UGWDZr70puYSDlsPtw8a4bB/qCiJOq2phBq0g+rIIWQBQatUsncM9Pb5JmJPWJXylv77giAIXox0SELTsB7cONMX3x2H7UNO2Wn9UP3vVa1Z3X5abO2sBAEVC19wsJ3eEOWUeXi0Vr0zocvsGFGDQ6pcwWLBil/l9Mx+7HGWfVqaq1Rn19qG23r/yVEfsgpbuI5jkHxOajzwCAMSjotUW53+NZ0JXTZRBSx6bk3Az7Br090o5v/sugBsc3AYBbSE+wv68IP/MELIAIBlB63JcxgBofEw1sdjOkb60AKa1O60u6a6sud0+1PH7R13NDLxaSsgCAIKWizeNa3F404hN0PpeQOMWnN6Bp78p3vn2oabhqR7CXXBBa+Ax9RGyAACO6b49XWYmud3qK+WglQk8nVE1TetuincaDDSFvP4of/b5QUtzX1a/my1RAEDxVrTaAuoj6o4qcMUtaOmaJeXx3Me2KLYPtRwi7aIJPuigpfkfJP22d44CAEqDroZlVYXrrpGpzWFukcQtaGUqPDcjCVr6m+IdbR/q2GLzEkaCCFqa52URsgAgSXRXW2zWOTmkOaFBqzOqa9JSXXKxfaglmLicnRZU0NI8L4uQBQBJFNCdcXZ9XHuC6lGJZdDSuIUX9Z14dtuHOkKl1wGpAdwVeI2QBQCITbXFwxvqSd29XAStwMN0l83v1eu7Cd7jVnNcTwXwezA3AKCYg1YAwy2jbJ6P6dZhY5TXpLsXzyoI6diK9nPeX0yDVh9jHACAqlZnTP7lf9Lvm1JMK1rRXpOmuVZ2FRodd+f52WKLbUUr/Q8J/pYBgCQLboq5pwqA2yNvCFqhh+kui6B1LYom+LgHLVlSVeQvGgBIsMy2T39s3pzKU4cJWvquSfMdpn3DHqOGLWi/vUxxDlp+q3UAgBKQeaPqj1ET8UmClr5r0nnQdX5PnYY+tP44bRsH9I+Ha/wtAwBUtuJW2XI1IZygpbgOjU35+Vthfrcm/TTBF03Q8jjxHgBQaqRnS+eB0yFuKRG01D9XjSG6Ky9o9Ua9raZ9ZtjAWI6uAJrja/hLBgCQHQvQX0y3yBO01HSd2yfBavDx+ezPkhsx4vY8D551GMCNIuZzx8gHAEBOdast6sAl10DQ8n9NOuemZcOC32N3dN2RF9Sh0jq3XHOPpOIvFwBAnAJXH0FLzzXp2hbOboH5rZLpqu4EFbR0Pme5y88YEwBACZN/4UfRw+XkjYmgZU/Lwc85VUY/rwUdTfBhBK2ADmDvC+rMTwBAKQQu2YYaqGb0h9QUb/umTNByHJZv6vp5xKUxPMiglXnOOgPYEmdqPADAWZUk6CqXk5BB0HJ8TW06rsVPpUdXE3xYQUvzXZtMjQcAeKtyBXV2Yu6dbgQtDdVITdu5cQkYgQctTQGVqfEAAN/MSofGSeSqNz+Clsfr0hGIfTTC6x5xEEbQyjxv+s8FlanxjHwAALgiWy2awxZBS2PQinCSus4m+LCDlq6bCZgaDwDQU9kiaMUyaAVWnYlotEFYQSvze10OqA+xhr81AKBEyF/qcnBz0H+5a6yC3CRo6Q1amen/YVezbgb1eg4raAU07sHVKQgAgJjL3QKRRvP0Wqq9b0bjJHLuOtQftIK6k07HlP84B61MNbAzoOeIqfEAUCIVLas7qM7dNTK1WccwRZkTFOYbNEHLw/UFFxgKP4aAhnSGHbSCDKluDlIHAMSUkzvGMpWuk2bwGnnPJMeHO5enlsqdVGHfAk/Qci/AbbBCqyvAfziEG7S+F+jWK1PjAaAEKlqXPb8JjEx15650qDo8+N8R9vUQtEJ/LcTmfL8oglbmHxU3A9piZWo8ABR10CpP9UZ1e39QWykELc+vhcZibYKPPGgFOCYjqH42AEAIiihk3XS8ZUnQ8vN66C/GJviog1bQFUGmxgNAMVazNN4NGKftJoKWj6DlY8p7lE3wsQhaQf55Ymo8ABRh0IpwKniQE8QJWrEN313F9pqOVVBlajwAFJcoBlV6eHPpKYVQUyxBywwL6UBUbE3wcQlaQc8kC+M5BADoe1Nqi33I8rBdQtDyJ6Bz/PqLsUobw3/AMDUeAIpFUJWLqA8cJmhpuF7d4wpC2vaKQ9Ay/2xpPkidqfEAUJwVrcsxDFn9frdHCFrxq3aGNXgzLkEr6P5HqZrxNxgAxJzcMp45eqU/NlUsDdsiBC0NBnqNiud6Yxa0QqgYMzUeAIpG+k3VHFYZ7HaHZQVLtpV0vmkQtDQ9j5rOPwzzzL44Ba3Ax6fIyAcAQHGGLnmTDepYEQlX8v2DuoOKoBWr57E/zJdvnIJW5noCveGEqfEAUOTkX+Xy5iU9IfKXurzJuwpg5ake82vka9MBjgnXxUPL3YfMfgIAQF81gb6Rkvp5dhdLEzwAAEBRheZiaoIHAAAopqDVrSFo1fBMAgAA5IYsuQPV/52GN3kmAQAAcg3cddpbTCMdAAAAioLcJUg1CwAAQDNdM6ioZgEAAOSQ+WZyrAvVLAAAAJ009WVRzQIAAMihq5LF3CwAAIAcmSN2+jSeu1fDswoAABJNqlg6BpJypiEAAEgcOV/wrpGpzSNG3jMpuwb+P7VHVy/WsAb4slQZzzwAACj9oKW7WsWWIQAAwGDfVWghiy1DAACQDGWpMp3N7Q5CVg9POgAASIR0+DkXYjWrn74sAACQCCFvGfbLnYs86wAAoPRpnOxO8zsAAEAOaUgPq5LFETsAACAxpLrEdiEAAIBuYW0Zlqd6CFkAACBRRoxMtYVQyeri7kIAAJAoUmEKtOG9PHWTpncAAJBIZm9WeaqHhncAAIBgA1eHVKD8bhESsAAAACzIdqKEJendSq/LsqRCZbEtKB9vk0Gn9GABAAAAAAAAAAAAAAAAAAAAAAAAAAAAAAAAAAAAAAAAAAAAAAAAAAAAAAAAAAAAAAAAAAAAAAAAAAAAAAAAAAAAiK//D6ub+Z0c+eUqAAAAAElFTkSuQmCC;" parent="1" vertex="1">
                    <mxGeometry x="955.22" y="248.2" width="152.43" height="86.6" as="geometry"/>
                </mxCell>
                <mxCell id="66" value="&lt;font size=&quot;1&quot; color=&quot;#001dbc&quot;&gt;&lt;b style=&quot;font-size: 24px&quot;&gt;Local Dev&lt;/b&gt;&lt;/font&gt;" style="text;html=1;align=center;verticalAlign=middle;resizable=0;points=[];autosize=1;strokeColor=none;fillColor=none;" parent="1" vertex="1">
                    <mxGeometry x="-810" y="48" width="123" height="23" as="geometry"/>
                </mxCell>
                <mxCell id="67" value="&lt;font size=&quot;1&quot; color=&quot;#001dbc&quot;&gt;&lt;b style=&quot;font-size: 24px&quot;&gt;Continuous Integration&amp;nbsp;&lt;/b&gt;&lt;/font&gt;" style="text;html=1;align=center;verticalAlign=middle;resizable=0;points=[];autosize=1;strokeColor=none;fillColor=none;" parent="1" vertex="1">
                    <mxGeometry x="29" y="48" width="281" height="23" as="geometry"/>
                </mxCell>
                <mxCell id="68" value="&lt;font size=&quot;1&quot; color=&quot;#001dbc&quot;&gt;&lt;b style=&quot;font-size: 24px&quot;&gt;Continuous Deployment&lt;/b&gt;&lt;/font&gt;" style="text;html=1;align=center;verticalAlign=middle;resizable=0;points=[];autosize=1;strokeColor=none;fillColor=none;" parent="1" vertex="1">
                    <mxGeometry x="919" y="48" width="287" height="23" as="geometry"/>
                </mxCell>
                <mxCell id="70" value="Scan code and OSS&amp;nbsp;dependencies" style="rounded=1;whiteSpace=wrap;html=1;" parent="1" vertex="1">
                    <mxGeometry x="-485" y="532" width="120" height="60" as="geometry"/>
                </mxCell>
                <mxCell id="71" style="edgeStyle=none;html=1;entryX=0;entryY=0.5;entryDx=0;entryDy=0;fontColor=#F0F0F0;strokeColor=#000000;startArrow=none;exitX=1;exitY=0.5;exitDx=0;exitDy=0;" parent="1" source="54" target="70" edge="1">
                    <mxGeometry relative="1" as="geometry">
                        <mxPoint x="-521" y="598" as="sourcePoint"/>
                        <mxPoint x="-474.5" y="598" as="targetPoint"/>
                    </mxGeometry>
                </mxCell>
                <mxCell id="72" style="edgeStyle=none;html=1;entryX=0;entryY=0.5;entryDx=0;entryDy=0;fontColor=#F0F0F0;strokeColor=#000000;startArrow=none;exitX=1;exitY=0.5;exitDx=0;exitDy=0;" parent="1" source="70" target="2" edge="1">
                    <mxGeometry relative="1" as="geometry">
                        <mxPoint x="-325" y="640" as="sourcePoint"/>
                        <mxPoint x="-278.5" y="640" as="targetPoint"/>
                    </mxGeometry>
                </mxCell>
                <mxCell id="74" value="" style="endArrow=none;html=1;fontSize=18;fontColor=#000000;fillColor=#0050ef;strokeColor=#001DBC;" parent="1" edge="1">
                    <mxGeometry width="50" height="50" relative="1" as="geometry">
                        <mxPoint x="-19" y="1083" as="sourcePoint"/>
                        <mxPoint x="-19" y="32" as="targetPoint"/>
                    </mxGeometry>
                </mxCell>
                <mxCell id="75" value="" style="endArrow=none;html=1;fontSize=18;fontColor=#000000;fillColor=#0050ef;strokeColor=#001DBC;" parent="1" edge="1">
                    <mxGeometry width="50" height="50" relative="1" as="geometry">
                        <mxPoint x="774" y="1083" as="sourcePoint"/>
                        <mxPoint x="774" y="32" as="targetPoint"/>
                    </mxGeometry>
                </mxCell>
                <mxCell id="82" value="Build container&lt;br&gt;image" style="rounded=1;whiteSpace=wrap;html=1;" parent="1" vertex="1">
                    <mxGeometry x="141" y="623" width="120" height="60" as="geometry"/>
                </mxCell>
                <mxCell id="83" style="edgeStyle=none;html=1;exitX=1;exitY=0.5;exitDx=0;exitDy=0;fontColor=#F0F0F0;strokeColor=#000000;" parent="1" source="27" target="82" edge="1">
                    <mxGeometry relative="1" as="geometry">
                        <Array as="points">
                            <mxPoint x="201" y="562"/>
                        </Array>
                        <mxPoint x="130" y="572" as="sourcePoint"/>
                        <mxPoint x="211" y="522" as="targetPoint"/>
                    </mxGeometry>
                </mxCell>
                <mxCell id="85" style="edgeStyle=none;html=1;fontColor=#F0F0F0;strokeColor=#000000;startArrow=classic;startFill=1;" parent="1" edge="1">
                    <mxGeometry relative="1" as="geometry">
                        <mxPoint x="346" y="811.0000000000002" as="targetPoint"/>
                        <mxPoint x="346" y="870" as="sourcePoint"/>
                    </mxGeometry>
                </mxCell>
                <mxCell id="87" style="edgeStyle=none;html=1;exitX=0.5;exitY=1;exitDx=0;exitDy=0;fontColor=#F0F0F0;strokeColor=#000000;" parent="1" source="82" target="5" edge="1">
                    <mxGeometry relative="1" as="geometry">
                        <Array as="points">
                            <mxPoint x="201" y="779"/>
                        </Array>
                        <mxPoint x="262" y="649" as="sourcePoint"/>
                        <mxPoint x="343" y="710" as="targetPoint"/>
                    </mxGeometry>
                </mxCell>
                <mxCell id="88" value="Upload result to GitHub Security" style="rounded=1;whiteSpace=wrap;html=1;" parent="1" vertex="1">
                    <mxGeometry x="450" y="438.5" width="120" height="60" as="geometry"/>
                </mxCell>
                <mxCell id="89" style="edgeStyle=none;html=1;exitX=1;exitY=0.5;exitDx=0;exitDy=0;fontColor=#F0F0F0;strokeColor=#000000;" parent="1" source="5" target="88" edge="1">
                    <mxGeometry relative="1" as="geometry">
                        <Array as="points">
                            <mxPoint x="510" y="779"/>
                        </Array>
                        <mxPoint x="416" y="733" as="sourcePoint"/>
                        <mxPoint x="505" y="780" as="targetPoint"/>
                    </mxGeometry>
                </mxCell>
                <mxCell id="91" value="" style="dashed=0;outlineConnect=0;html=1;align=center;labelPosition=center;verticalLabelPosition=bottom;verticalAlign=top;shape=mxgraph.weblogos.github" parent="1" vertex="1">
                    <mxGeometry x="472.5" y="259.8" width="75" height="75" as="geometry"/>
                </mxCell>
                <mxCell id="92" style="edgeStyle=none;html=1;exitX=0.5;exitY=0;exitDx=0;exitDy=0;fontColor=#F0F0F0;startArrow=classic;startFill=1;strokeColor=#000000;" parent="1" edge="1">
                    <mxGeometry relative="1" as="geometry">
                        <mxPoint x="509.09" y="348.99999999999994" as="targetPoint"/>
                        <mxPoint x="509.09" y="435.6100000000001" as="sourcePoint"/>
                    </mxGeometry>
                </mxCell>
                <mxCell id="103" value="" style="edgeStyle=orthogonalEdgeStyle;curved=1;html=1;fontSize=14;fontColor=#000000;strokeColor=#000000;fillColor=#808080;" parent="1" source="93" edge="1">
                    <mxGeometry relative="1" as="geometry">
                        <mxPoint x="450" y="470" as="targetPoint"/>
                        <Array as="points">
                            <mxPoint x="304" y="470"/>
                            <mxPoint x="304" y="470"/>
                        </Array>
                    </mxGeometry>
                </mxCell>
                <mxCell id="93" value="Scan for Credentials" style="rounded=1;whiteSpace=wrap;html=1;" parent="1" vertex="1">
                    <mxGeometry x="141" y="437" width="120" height="60" as="geometry"/>
                </mxCell>
                <mxCell id="94" style="edgeStyle=none;html=1;fontColor=#F0F0F0;strokeColor=#000000;entryX=0.5;entryY=1;entryDx=0;entryDy=0;" parent="1" source="27" target="93" edge="1">
                    <mxGeometry relative="1" as="geometry">
                        <Array as="points">
                            <mxPoint x="201" y="562"/>
                        </Array>
                        <mxPoint x="130" y="572" as="sourcePoint"/>
                        <mxPoint x="211" y="633" as="targetPoint"/>
                    </mxGeometry>
                </mxCell>
                <mxCell id="95" style="edgeStyle=none;html=1;exitX=0.5;exitY=0;exitDx=0;exitDy=0;fontColor=#F0F0F0;startArrow=classic;startFill=1;strokeColor=#000000;" parent="1" edge="1">
                    <mxGeometry relative="1" as="geometry">
                        <mxPoint x="200.73" y="350.39" as="targetPoint"/>
                        <mxPoint x="200.73" y="437.0000000000001" as="sourcePoint"/>
                    </mxGeometry>
                </mxCell>
                <mxCell id="97" value="&lt;div style=&quot;text-align: left&quot;&gt;&lt;font color=&quot;#000000&quot; style=&quot;background-color: rgb(255 , 255 , 255)&quot;&gt;&lt;span style=&quot;box-sizing: border-box ; font-weight: 600 ; font-family: , &amp;#34;blinkmacsystemfont&amp;#34; , &amp;#34;segoe ui&amp;#34; , &amp;#34;helvetica&amp;#34; , &amp;#34;arial&amp;#34; , sans-serif , &amp;#34;apple color emoji&amp;#34; , &amp;#34;segoe ui emoji&amp;#34; ; font-size: 16px&quot;&gt;Microsoft Security DevOps&amp;nbsp;&lt;/span&gt;&lt;br&gt;&lt;/font&gt;&lt;/div&gt;&lt;div style=&quot;text-align: left&quot;&gt;&lt;font color=&quot;#000000&quot;&gt;&lt;span style=&quot;font-size: 14px ; background-color: rgb(255 , 255 , 255)&quot;&gt;(Defender for DevOps)&lt;/span&gt;&lt;/font&gt;&lt;/div&gt;&lt;div style=&quot;text-align: left&quot;&gt;&lt;span style=&quot;font-size: 14px ; background-color: rgb(255 , 255 , 255)&quot;&gt;&lt;font color=&quot;#000000&quot;&gt;CredScan&lt;/font&gt;&lt;/span&gt;&lt;/div&gt;&lt;span style=&quot;font-size: 14px ; background-color: rgb(255 , 255 , 255)&quot;&gt;&lt;font color=&quot;#000000&quot;&gt;&lt;div style=&quot;text-align: left&quot;&gt;&lt;span&gt;BinSkim&lt;/span&gt;&lt;/div&gt;&lt;div style=&quot;text-align: left&quot;&gt;ESLint&lt;/div&gt;&lt;/font&gt;&lt;/span&gt;" style="text;html=1;align=center;verticalAlign=middle;resizable=0;points=[];autosize=1;strokeColor=none;fillColor=none;" parent="1" vertex="1">
                    <mxGeometry x="118" y="271" width="219" height="76" as="geometry"/>
                </mxCell>
                <mxCell id="98" style="edgeStyle=none;html=1;fontColor=#F0F0F0;strokeColor=#000000;entryX=0.5;entryY=1;entryDx=0;entryDy=0;exitX=1;exitY=0.5;exitDx=0;exitDy=0;" parent="1" source="3" target="88" edge="1">
                    <mxGeometry relative="1" as="geometry">
                        <Array as="points">
                            <mxPoint x="510" y="563"/>
                        </Array>
                        <mxPoint x="130" y="572" as="sourcePoint"/>
                        <mxPoint x="211" y="507" as="targetPoint"/>
                    </mxGeometry>
                </mxCell>
                <mxCell id="106" style="edgeStyle=none;html=1;fontColor=#F0F0F0;strokeColor=#000000;startArrow=classic;startFill=1;" parent="1" edge="1">
                    <mxGeometry relative="1" as="geometry">
                        <mxPoint x="345" y="596" as="targetPoint"/>
                        <mxPoint x="345.17" y="631.0000000000002" as="sourcePoint"/>
                    </mxGeometry>
                </mxCell>
                <mxCell id="108" value="" style="shape=image;verticalLabelPosition=bottom;labelBackgroundColor=#ffffff;verticalAlign=top;aspect=fixed;imageAspect=0;image=https://raw.githubusercontent.com/accurics/terrascan/master/docs/img/Terrascan_By_Accurics_Logo_38B34A-333F48.svg;" parent="1" vertex="1">
                    <mxGeometry x="957.24" y="341" width="148.4" height="50.95" as="geometry"/>
                </mxCell>
                <mxCell id="109" value="&lt;span style=&quot;color: rgb(0 , 0 , 0)&quot;&gt;&lt;font style=&quot;font-size: 18px&quot;&gt;ARM Template Analyzer&lt;/font&gt;&lt;/span&gt;" style="text;html=1;align=center;verticalAlign=middle;resizable=0;points=[];autosize=1;strokeColor=none;fillColor=none;" parent="1" vertex="1">
                    <mxGeometry x="930.44" y="397.95" width="202" height="20" as="geometry"/>
                </mxCell>
                <mxCell id="119" style="edgeStyle=none;html=1;fontColor=#F0F0F0;strokeColor=#000000;entryX=1;entryY=0.5;entryDx=0;entryDy=0;exitX=0.5;exitY=0;exitDx=0;exitDy=0;" edge="1" parent="1">
                    <mxGeometry relative="1" as="geometry">
                        <Array as="points">
                            <mxPoint x="855" y="94"/>
                        </Array>
                        <mxPoint x="855.4350000000004" y="216" as="sourcePoint"/>
                        <mxPoint x="749.56" y="93.5" as="targetPoint"/>
                    </mxGeometry>
                </mxCell>
                <mxCell id="120" style="edgeStyle=none;html=1;fontColor=#F0F0F0;strokeColor=#000000;entryX=0;entryY=0.5;entryDx=0;entryDy=0;" edge="1" parent="1">
                    <mxGeometry relative="1" as="geometry">
                        <Array as="points">
                            <mxPoint x="511" y="94"/>
                        </Array>
                        <mxPoint x="511" y="248" as="sourcePoint"/>
                        <mxPoint x="639" y="93.5" as="targetPoint"/>
                    </mxGeometry>
                </mxCell>
                <mxCell id="123" style="edgeStyle=none;html=1;fontColor=#F0F0F0;startArrow=classic;startFill=1;strokeColor=#000000;" edge="1" parent="1" source="13">
                    <mxGeometry relative="1" as="geometry">
                        <mxPoint x="1375" y="330" as="targetPoint"/>
                        <mxPoint x="865.44" y="414" as="sourcePoint"/>
                    </mxGeometry>
                </mxCell>
                <mxCell id="125" style="edgeStyle=none;html=1;fontColor=#F0F0F0;strokeColor=#000000;exitX=0.5;exitY=0;exitDx=0;exitDy=0;" edge="1" parent="1">
                    <mxGeometry relative="1" as="geometry">
                        <Array as="points">
                            <mxPoint x="1375" y="94"/>
                        </Array>
                        <mxPoint x="1375.4450000000002" y="216" as="sourcePoint"/>
                        <mxPoint x="749.56" y="93.54060406628275" as="targetPoint"/>
                    </mxGeometry>
                </mxCell>
                <mxCell id="126" value="" style="shape=image;verticalLabelPosition=bottom;labelBackgroundColor=#ffffff;verticalAlign=top;aspect=fixed;imageAspect=0;image=data:image/png,iVBORw0KGgoAAAANSUhEUgAAANsAAADmCAMAAABruQABAAABMlBMVEX/////yQAIsdUZBNr/RF8AANf/xwAcCtr4+/xbudm3t+3/xQAHJC35+P1It9cArdMAAAAAICq/xcc0TFQAEx8AGCWtt7kAARcAqtEADBzy9PWPmJz//fpDVlzj5ufR19gOLDb/+vL/79L/z1n/68L/9uYAABH/130yREvn6+z/89z/4qj/3JP/yCfPzvPd3fbt7fqg0+b/zUz/57b/1G/k8ffI5PCEg+S23OuQzuT/OFfY6/NzfoJTY2j/57v/02j/yjX/zEb/4JwsK9ldXN9IRtx5xd83NdrD4u6enen/8PH/2Nv/xMmUk+dubeF5eeWvruxkZODAv+8/PdtndXqdpqkiINh/fuVSUN2Pjufk4/f/g5H/coT/Gkf/j53/V2v/o6z/uL/V1fT/4+WAjJEZO0OTeiAEAAAQo0lEQVR4nO2cC1vaSBfHRzAhFuQmIEQUUEBFUUSx3qjXeqmt1VZs9W23XVe//1d4z5kEyEwS1K5LJjz5P0+VhOAzP85lzjnJLiGePHny5MmTJ0+ePHny5MmTJ0+ePHl6kbLvKk4v4b9SpR6sHmSdXsV/ocpacGhoSK6uOr2QV1fhoDqkSd6ddnoxr6vVfXmoI3l2gBxzuh4cMkoODkrYFWZZMkq3PxCOuVCVTWig4FrJ6ZX9WxX3LMko3WLB6dX9G1V2bcmoY7p3PygsBnuhoelm3Bl22QX5CTJKt+vCsJueeQYZOmb1wGVhV1h7Hhml2ys6vdwXCALt2WTUMV0Tdtkeed+WbtYVYTe9a2E0WQ5StX+ZL6guOL3wJ1Wa5Rcuy/LezOxCsVIqFLLZbKFQmi4erM1U+SwqethlD3h3lKtrC9MFc2WcLRUP6hyfLPJ+UNxn3TEozxa7CT5bKIEKBtDKQp21cnBR0P6gwnYysryrOxnaaBacMKgH297uIthSe6+0yFhaDq4KSFdi875cna3QVRaKi/t7MhdcGIO7C9oFpYV9hk68/WCV7WSCs3SilS2uVW1rymCwvkgDLMu2QYLtB1yg6b1ZZVF+Yg+XgzPv0HjsZi8LFHalNc4daZxV1qybUh5Po5uuM465/04MukWZc0dME+Z9zlbBOkZY9oA1/YzzY1ouVsBouNAXFpSaD0/vcd+Rw2FX4ToZeQYXVNx/YUEpV9/Bx0oz3Ne04KBjmiZYQZw8Zl/YBXQ/SbhvKlh3qgwrLPAM8gExudZzJe+hxWe5zwZ3HQm7d3WeQcZSvvgHRtM+jZGa5eGgBuh7W27RyQQxZky2fAkd/gHTZAzCrs905omqjAM5/mvvvivL1f36DGgfCkubq+i3Y5pGyH2f0hZmq+wKMNYWLRcNjene7MJ0t39bnd2z3tdlyB2FGfZUvc/15R3+qBjdUl5ENCuHlIP1gwqfzLOVxX3LiwGkYPyz2u26htI/tsvDL/ir2E0ndWJtNewHdJxSZbpYLE5XSjqo5ZQvCP5XlDsfpoVlYzPcR7Y3UuACbVdY0JeBCdwqQ+rFRbayOlsHP0RV9+prq5QvWzTTyTOFzpckr9GvZSMcGekvmxT4NEpo3YgIECeVKr/O9u5UOphhxz+QTGa05LdghpsF6Dp+eJ9u3NsjaZ+vz2z+gHTzBukqdRmDrbBnQtNGV9PWVbOs3cYpmXM+fKoUbAfaMZD1n80f8EtHS3CQXd3PWmR/mVbypTXbuwLyHtaLpt16KIheSX1ZWfFFfI6woaS3Ne2MKdjkXTx90LPTCdbRdKbsuqYnm/WwRuYQm18PO1N9HER/LD3ZDwTR81a5u+H7NEppoDnKBmH3fhlPFZnykqIVn9F4m7Z8WX+8ZiXi8znN5g8E6E4OYddFoTv580rLIMJ1Y67TkR77RGA7GiVLb+lu1/7+X4CmwWXX9NfaczXrm7CrpQVgk74RciYdavuBltF3sy9pCLDILmjPQ9EJUOM44oNwE4AtIL0h5DP8+q6VYXvBoSpkv9UXNKhYZ8H1+nMLK5GIL60QRQg2SCUneChd0KRygPdjKi9q43Ar2NVudJxGMIektwkJi8BWI6P0EAqVW1qGgYvVX4JGkyW9BbI9omXH9AYkk4jjbP4AtDz6YUA6eUPfP3hZ9y1XqTcqm20/jEAy2XSeLfCdkKXOIex2WIZZPQ4EHQD03fw9t6FOZdkpsFDH7AbnFNsFexh4j35JCpzpoI8rlqDvLpSKs9y0Vn+e8pRLHqfOs/npFtA99F+Nkjsadsa7BMyzW8bbWfqd4IY56a87zybdEvJW6qL5wY5nNzTspmeCbQCaAz+cf/x4/g++Ku61rUlHx8oKJP2GkQ0a7W0B2D7h9mbQZ7SjdHFP8GYBDTt5DY12/r/hLdDwj3M4qFA4fYIF9X5aZTc0QdjOWDYJ2D5Jfkn6ho6JNz1kLFP++fFza5hq6+dfhG6A+hMztN5Pg1NGxGQLmNhwtzujYbdbBbSPOphG9wtrMu0Bw4aW93Gz9onJZvJJbT/4SttycMjzn8NGbf3I0tOQ6PX2ky9EBGG7tWOjRqRl2D9bw6x+/qZ/Zj3cjjFB2d5yefJKYVNNjZC/eLbh4Q/gjiPd1fM+KcYe4KfxZSjBvkM7FzCUm59t2BoRw+L5XAIwG86zBY4IuTSyndTI3aGhvYP97reJDbKJ0ed8sAcQ4x4gRs3l/0rIF2NdAj3P6FfD8XtC/v7JoW394Gos2LtVw3FkRYha2S8RssywQY961Q1AtOO5VS5hhj1htuZKnwrR43T7t072MCRKeP/mnmR/8XaD2mTEgBY5ZgckwvSmsIkdGtmg6bmXWFY+4CDcGj4jG+eDwswULsEHuyj+wOEdqXEB94ENuJ8fOZeMrBPFaMewGLMgWvh/Mm5wOBwy7HgB6Z7bBbZ+ETbj+8IqY8eIKDM8bEa/BAysCHtvhD8aJR+YiPuHN9sxmzYjp4LMXjHp14wBF5BG9clX+wLInIZU+fNvqEkYs/FpMdIgSlgMNvDBI8nIdslkSr//sGbY4xCNCS5aPapMWiTszu4g2wVWJsZsAmVX7cRwwg+pk/y9habbGoY8QkaYlWOWNFZYeLwiBhvuzstMwOG2wBiONqrnv7YgjZzjrI5ZOC24mN2uwe5uTrJBPI0eMWxQY9ZOmDOfsU/9/es3/FSOWTTMJGzG5+PROTaaGC95WrbIhLJzWf/sNmsSUIPNijhU3hSFDRNjjSU5gYsYU/r92ohBYQNJj651pidQeJd0lA0y5YWfOXMGFfRNgD13A3AjaR8n8EA22jY5F3XWJ+ntRSabBG6WzVfhvmdySOxKWVtyLuowG02Mxi0O0wmAfJOeZItAcDFTV8wsDd5vHWW7wNzBnoLyn7yXnmBLQ7CxJQi2N5sisQUC97ANsKfQlrXvvdnSEFtMtUWjreHj5SQbNdwSdxJDbtnQ7JjZ0P+4YMPwM5nNWTZ6Z5g1HDRuUEbWbuzZ0CHZXoaaTTWlUmfZ6FiSS/q0+yF339vX8mzQkPJWw6rZlCSdZ8NS5JPEnbtCyx117hgb2SLhbTMaNm7rZrM5zeYHIzGzOwr3HR9l05EZtvSKYrzBraMd81lTEDYcnt+b4vAQy8gl6pcGtsgIGm07zCWNiGKVSARgo+nkrWQ6jY/UjN7eSF22iG8D13pqqixPuX1cGDbqlaZcCUTfcGHL3ySJskXSYXTH9hOtRrRNG48UgQ1vV90dmuHe06ehgA7ZRqjN1JWIyfeO7TxSBDbaD/A7OIX+Rp+OXQa2bVylssFHmk8Ltg1rNAHY6Pyc7VLb5wO3tc6H1ZWwRVBFtu2CTQw2vx9z/ifLRCPd0sZb2d40e6NP28hV62AThU26guW/tXoXWtMjgoWxpdvhhFIZsfFIQdgC+KQoubAJR6veVLPaBuH6AQHZtGkCsbGcHRtFs0mRArH5A/5L2Kut4GzZ0CH5ylJINt1yFgnFjg3LkZ5W6y/bUuBJuDfPZaP9wKZd9tfoN/vIRpY/94TDWcnSDV83W86CRlTzEJ27xLfRRzLU/fseMYdDc1K7enqGRwcmikWV0iWj3VCfNXp50iNbfr+DNZ89xUZbb/MQ3XjFcaPvZKjaN3u/1J5TW3ov9WCLjOC6T3uRhdcdIUPdXz2x0Y2eQd9mzRZJ0zBasc8i/Q80Vm9swy4gXWEFuXwV8FvOS6izmVpvI1pfs6OVamemVrsDpz22/OWrhm9k051to4fR6NjBad19tqejpkPj+gMGtnSYOtu2+aZON9Ccdceu7r/a0WnPTxLlzZEktdkiI3TdDftNLeJzIO/bafTsxibsAtLXS1zn6NKVxpYOn9J1r9hHWuRYBHfsqtbDMb9e0v/U4w7/S6RNumxlw6r11pQOi0WGur+ypzu8rBmubGz47G0W3hDHHQ26PLShC/ilk9s7/arGZq+8f6w6imAv2KntdzvpCBo7cjqStidLC5H37dTdqa3wbGcKbXd0evlP6IttBd2bDep9Ud3RILv9oCdb2qF6/6WqfbZ0zF5zLgHzvp2WrCroHnMugcqQZwj2A57OdhZ07CoyUO2WnxdZs4lWYD1P90dPz0ucbj//XF8Yx7R4vsSJOc9riekPzPMSl+R9O911Jyr8vMTBOc9raan98AzD5t5AY3V2ov+/JAzzEsfnPK+lO/pohmFeInS9/1LhftCZlwhf779Qo19O/NrzJSLNeV5LtVvK5soy5GnR50ucXoQnT548efLkyZMnYaVMTXVez0+p2ql55i39tNukTszl85Mp+jrXzOcfHwArl5igJ6Yem/AzDqfndtxHpzajsbHH8UwLXsdj449joejkPMmVdbb8JCGpcuZxLFaedB3cTrkJa47nozmilkNAqFyXmwY2eJ0JxcErr8s7Di/1pVLG52hkpcoPpBWlQOpkdN7I9hBt0deh/JTdXxFTueg1/T0fa6o75Rx9/RCNG9maUS2vXCfizqzxT9VhC0122CaQ7UF728C2k3EZG0k8UiBgU1JRLaKATX3UXHUC7DehuaoL2R7KYxhGaDclmXzAWRawwb8mwMUzEGNToRgNOPexKdfRch6UhBSfy0cz+byKbKRZLs/lozHEiY9Hk4/5x5Db4g3gUpNzqGvYCuYfJps5ajdCWs25sWstM+Z2xuglOWdX+idS5qnoa1UlOhuc7m7WKr1iAIavOttAymNzpwaZ7WGA2eIPLkz2FppqpVrzdm+4rO7nlYomopZWio8n3O6aqUxo3JotGRofWLZoZmDtpuZyOdcNSFjZsg2APDZ3CtgyqRwKNrN5+EX/fxe5eT3epuCncfvDC1WFO0nP9nfZzxKwhTJlEM5KHqLl8rzSmsxEW5Any5AnU/Bzstu25TLl6KOKPycMf0Odi5Yf+7/0J4VsVIkHKJIToXxqLBELZVrt/a0ZCyW7W8F1Et/K5UMJhm0yFhvr/9KfFLIlEyCcGgNbKBmDf9EOWzwTis21L54ahwMcq8TcwpacSLVAcY0NyELXrVybTWkmQ+W24XbAbCniJrZunqRsCW0A1K654mCrphZxuVgolicuZks2tdedenIMwk8zHJgtgZNKt7JhPFF12OJgLZoqcyH9XbeydRbd7QPaqVJLksS9bJn2QZcNU+VYJ0kS97LF2r12l01PlTtts7mKrbM3W7NpqRKTZEg7Brbkg+FvqHNisuXGtdxHZcOGqTIE/9oXTgFL0/A3pmIhIdkIBlO7B7Vjg1QJRuukUMwueUNxjB8Tkg2yXyd47NgQJtSONlALvpCu4XKPotoNd62YvmpbNoi4UOyx09fMA03mwXAgKBuZgHWXm/EppQcbpsqu2XBQBGacS02pam4Ci2tR2ZSdDJrucaIHGzWc8UMTSfhM8nFuLo8vRPVJvCuciXX6Nxs2MjfeYj7UGqdQ6I6JR0H3AKp4czwxjv3beDLZYcskywa2+Bw30JtqJhNJUCY/oTYFZiNKbuIa7JJqNpvthJFrXjcNeV41zWGVqdbO9fVDal7YuuQ15LG5UwPNNja4bPP5UOza6UX8R0olDL3EYEnFFkjEmfmfq72XK5OJUHKwXFIZe8DyWo0DWizk8rv+rNTJRCLU3NmZTIBDRlNOL+dVtRPF+wZJevcgNmCJRG3lE7RxSyabg5VHUFOtyeT4eP46PgBPVVppQLE8efI0EPo/hXY092WWjKgAAAAASUVORK5CYII=;" vertex="1" parent="1">
                    <mxGeometry x="226.55" y="848" width="110.45" height="116" as="geometry"/>
                </mxCell>
                <mxCell id="127" value="" style="shape=image;verticalLabelPosition=bottom;labelBackgroundColor=#ffffff;verticalAlign=top;aspect=fixed;imageAspect=0;image=data:image/png,iVBORw0KGgoAAAANSUhEUgAAAOwAAADVCAMAAABjeOxDAAAA3lBMVEX///8glqMjjZkiFxTn8/QcjJkYmadrusMiAAC/3uIiFhNaprAVi5eFvsXe8PIvnanz+fpCmKO219sWAACmoqEggYvEwcAiKiwrHxscDwtMRULo5+fS0NDi4eHw+PlYUVAJAACUxctnrbWfm5oiOj/T6Ovz8vIiEA0iDQvM4+aq0NUhXmUiRksYCAAhcXohUVZGqLO9url7dnVWsLqNiIchbXUiJCZkXVsiMzQiPkE7MS+LxcwAAAB6uMA+p7MwJSJRSEaYpajN2tukoJ9hWlkiJihybGtDSUuOiYiOwMf3WIIOAAAQxUlEQVR4nO2dfUOjutLAGwpYIAVKfWnVRcHFtmi16np09Vb3Puccn/X7f6EL5IW3hNLaUtrt/KcmkF8yM8lMQmw0dlKVmKKn6/a6W1GJiP6DEcjbnrX1vLZjACIPlrnu5qxUrAcZxCJPvXU3aHUy2gMZkV/1dTdqNaK/GnIWFoCJv4Wma/oTBmo4uA/Kutu2ZDGVBzZqhLtXP9P9drlwVX3P4KKG8vZaL12+/Hg/vlgMV2Qaa3pw62W6p71+v3t2Nz+ubb3NQg1p5YfRClq9oBz2ms1mv/f0bc563kOxBsdiTMWVtHwBOeypAa3aVX/Mg+vtySWGleI6NcFFsCHu8X5ZXbb9sqNKlLkm0xCBDXS5/+uwTA3T4sysxbh1mIZi2KY6Vu9PZ1bIrw3LiVGDFWQCNtTllxnTUDDdLMYa4voVMXEFw/aJLp+/F0xDyUBuEZmsOfhDsL1fKsXt3/NolYcvoQYit9dquhGs+n56d0Zw1e49s2Qw3XyVFax5GiKwjcv9YzK45wyvXGJtWE7kt/WtIClsEBHcd7sRLGNo/YLoZm7cvXXNugnYYKH80QtHt/8rvZoyv26sWdz1mG4KtnF5d9ztN/vHqelWby9JgxO0b2sx3TRso3Fy8T4+f0r4Y/u1THQzP+6DtX7YwHQv7mMttq3JCkgj2jUEf3nYpMwX3cwrRrtiXS6C1VeKGohsOJVOQ3xY039bKSnCrVSX+bDt1Y4qkbcKHRUX9rUS1EDk6pYYPFjla/HNPDKpLNA9fW+yYO0lr5mKRG5XBXt51mfBKtWxBmZb2dDuh7C9LOy0SlhQWQrj8se52n/Jwq5kicgT+bUq2Mblfa+bTU7YS1/6F8LuVQYbOKlc2kmvzhdXDZuXHWyqfcYSl811h328vr35Q2Dlg6PWsHl7sKTBrTtsmGxuHV0JS8GtO+zzIKAdtJ4ftx8WgOthlHQdDq6XoMs1h5VvyF5Ya3ArbTksAFctvPs3+Lrp1h4W3KotPLiD4fMB+Apu/WHlg+vBAOMOW9cHWw0LZOHxOdDlSJvV1l9XWw0b4l4dDcmmfWtx2o2ADXX5tolNVx0srMkbAhvIzU/slwe32w8rg8doOdVUn4W6w578/YOxzz5fPCvdhqqsHi2qx5XB/j4f9z5yJ/nmg5Uhhl1wsq0M9mncVLvvFxncOWEPNgT2fhydbTu++xNg97v4sFfq4OKWwp6QA0Hj3o84ebylsI27HjnsNX65ONly2MZ+fJLvnJw53lrYxunTOcVVPw63GzZQ5fjg4rgbnjneZtjGyf77WI3PHJ9sNWx4cFHt468F+v2z/861sbVxsI3G4UePmm73ep5EywbCNi7vXoinUod/3cLSTd9E2AD34oWYbrP1V+mk4WbChqb7PqaJluebcribCtu4PDyjs+6gZL5/Y2EDufunS3Bb6m2JiHyTYRsnv99Jvl8d/vs4U5cDWHVDYFkftvzfbXOYMN1Z05Dwc7gRsJd/P9FYJxbdOLhuEdzZW3XyzWAjYA/Vbvef3ODqwQrq8ag1ILrcnDUN3bYG6lHts4t/d5vN1DcBGDbMkV79NSSm21Jn4F4dNRfeEqg0LaOqd5nf4kDg4HYQb9V9Lzbdg8W3tqrNQeVOuJGoR775ORxQ3OIF8+KbltXC9n9lfBQN8cJ8P8VtDW7hwkT1gT0uyBvDK7rtrA6PHr+07Vx72GirLjXrbjNsMJYH36kuD5tf2mWvPWy47XxDp6HmsHzwt5Gw0S77v3TB3DqavWDeZNhQl6/jaWjw82sHZGoOG+HG09BQXZ7p1hGWHpAJNTnK20hL+jK8lrAg3GUfxLPu7OBvE2BFbt5YDmZdFc26anO4nFl3zbCNwiT5zfdWbLpLOGK9btjCr9OC4O+oRVOu6tdNt6rvejiw/oyxgFd0BRkesf7arGtU9Z0lB1af2fpE3iZKuX4B96Gqz6M5sA1nZkoxGesOW2VSrhypbGA58Wzgj2d/UxrMuv+SaagZBn8LSnVf4iHY3IeHAW2Jbw/lgyuVBn/DxWYhea+6a5PQ0SD1ZT83tmWubQgXzCrW5cH1IqxGlfdQksuvek+5I4ylrrqSwQ2ehgY/50eVJ5XeQ3L5gXbt1HH3I6fLpS4xC003jHXnh5UNv+Kbv05fyC7W+D2/N6CUup7u4HYwbA7nVWPjtfq7g+569OxI/3g/+1ez1C2hYd5mTge1pntFT+/pwaD+ed50RafETSQykOba/KjYWBNyeXdMN6DHvfw9ot7SP/df601ul/v0MIUamG7u76Ml3moWoO6t+e7Ubz969DDFec5yG7a/tHuhanEJ8OlZH+ty94PxZ/F1KR9+r/NyvpTc/UKH3MYs2NmXcpeRGl3c/e3i/VzlwjZM5Yu6XLMr2aNzUJwrNQMxnQWu+6WoNbnlOCGHT++97N50Qha/l3BS7RVm5eTytPDCbnO0yO1Jsry3/uuNFxJr7lnX2OB/fZK/JVYoPICw7nuNvyh66jo74fb5insAQa7NZfOLixJfdyzftIatZ06y3Fjv/c1LEjO+YP+x1Wy2mOFsDaebBYXmbQJYtdnKx7PrC+RWITj4C0eWkakwnA2dbniiBEsqOYJVv2dQ67U2XIqY/hsLdnuMNS36ax7W8Dd+uuHJ/nkKVjZetxY1AyvXLJBbtmBYORTjQdnotSFDvt0lQ6MItv//zuvrq799o/rtn17y35Ah2LP8twZbIXf/UfvjX/Qizm2HDen6T3grbLthT9E1UOOXHxHgdsPSjc7zaOdvu2Ebd02683d2uO2wjYsx/Yy69xHd2bLFsI27sy7dCkMnFbYYtnHyu0twm1sPi3b+1D8FttE4jL8r3n7YcBcbX2/xB8CG/7qp199+B0Xl9CnS5T8DNjDdM1X9Y2AbJ/sv3fPfi/+n7Q2TbxcL/pvtnexkJzvZyU52spOd1ElMxbKq2fy3R+Xe5FnWig4g21MAoVbFprjpAih1Zr/J6UAInJU0oQ0FQZBABUcmHSl8U2fW2I5gWA6s4lSN+SCEAlc/tKImRa+aRRH1vgBX8e8sbdSE2sFKO9gvyg52JbKDZcgOdjmyg12J7GAZsoNdjuxgVyJ/IKyUhx05n8mTnMuDNUXd8zw9DuhmweIKZU8L26g06xQqb2QtQ4LgM/55Nqwtcl8St1v3p5MgUodQMlxnhIALYXVrquEKWtuaBSwqbc0IS0MwaedTEmxY0wHhr2EcrBfDmiPHNQT0kin/cPqoPRHQ64JHSdDQoqIFsLqjBQVpDaD5RXG36Af9EpWWgsKSMPnMHL1lwzr4BS5VtiJY03INGDdJ0rIvwa+aAiEtQeutAli73ZEyFYQO/34QpyPATGnjM9XxLFi7TYprtGwBrOdmICQBMD5L9bMtj4rCqW5yYBUN5isI0GWflPamzNKp1BYD1nRJtURigg/LhIBaVt8cqsAClKAU19FGLhPWj7tQgskKHVbeb0RaEWpw8AJaGvhFsDbtItiJlYALS9okRQy0UVInNQD0oYHb0zTXdTWD6hzoCAxYHxtGYKkTVAFQXr+RFYt0pQQMVFqiL4wdTw5WpMojuQmF58E6lDV6iTsh1gtBsvFtifTfp6LbgYie78KU4qVhffJbI/CqYQXbs6YAVwA5je/gjhGmvodKOy7mlwDVhCysp1FPk2TlwVqkTZrjiRGE0u7AnF5YxH8lP4QzFS1pACnYEW6okPz20xxNkeJkk6GiQRxqQsNNxcXdToc2A5tkTfkYNqyHexQkL7XQp7ilUzNVTIJa1toShpyCJa3K5bP9TubRERZ6oQSy6u1H/S4ltDa5glIAtVcn7eKZsOYUD2vGQVqoSdS2UGOgm58kibZmYB2sG3nHS1QpOXtYyJQ6+SWvpwVTf5uSpEZWoY41p69M2FH0FsnIQSB/IXXQeI9QD2qslL9P7TYB6xnRbwBrdaLgd8ZjYUdeRpKYK7BR8pueJCzt5rxCsGGRUQDGVIB8NLYWVIw5Y5BRT8O+woS2cR4d/9FHSlxiayYB61P3zfDtLFgPFWe9BSt4NLTYYjmN0YmXiGHFqEJC/VJiu9HjXPoL1F1aiUAhhnXiqYrRpSxY1KXsbSJPoIPjxNwsoZMMhUWayjDY1J+JomAnWWYXisD6Dp1emfrGgLXdTLCQriDh8shX8ooFLcCLhRg26h1pym3zBLUY/4TcU6fMh4XUyQuFrCxYPXopHNkiQ8xowGDglMTI6xn8vd1pBhZ3Ij+W/4xMGsef5mfCO5SEpazZaYQPqyCf2eGIgHXci3pe4/c8dsiUDjUJ8IO5SI8lFz0RmTAstU+ehYV538SD9dPBjiSlnoR/GKHFEGkas+0Zm/UmUafz96ZFI1FgZtcUwEocr8aAdYTZEvQ4mmULUhx4Vs3AuvwKYmQ/hpj4oVMqaZOFzSyJi2DbmZpFsEUHFHQmLN8/MWCL9KAIVhCYr2HBsqJlDqzEmTQjOLDQyHaWMLIcs+WOrMQXKIEgmhhFzyyy2YyDQl5+wm++nrdZYU6bBZ9k+mFNPlyb7WhcmU7DK5f06LGTObzxZAFvXCrpTGGD8fTJEorhpHjeODBxntimGb+h4JyNm5tnIU+/kKRXKVH6ABaYeB42ihyJf4X5WZEBO4ocy+zjS1FGhn/ORsczWHYFxTVaE62gSO/hFVQZD0Xi2agfTZop+syWY62gtHIKFK2l+CetaA/TB42QWfHWCRZakpPFDzITRuySl3SmwjaIAWe1jgGLF70zFQitF/P9h8QjMXQMa2pFPg21OPFaHPWUcFGZvR6SkZSEzKqRFfWgLhZmDi3Sl1yWDEmct43/joMS9mB9ZkujFVjRxEwkm3AjTgpmnBQLVgQFIyA69Eo4HPcajFW3+cnKVKC5k20hyHdDLfErF5Vm9Y2ojBKty6VSP4lLZibc0t2Hz/gxFTRMlJLXo2fm8204ZMnBkmU3I6uE/5JSEwW7OEY6WYNgGo9absvSdgltaoWHYdNu2kMpTEaf2u3kXIlz0VK28eJUYsOSRoDMzg7ZmMlkMYh6TO1MaTAjSR57jJQx4rVhZqpHnlQCmVRkY6RFIRANvPCKUIKuErdHdFIbJyml1fGf0hX8CV5/ZKdGjaSqEzuIIkqkJlcNjL0ebGLpMB77DGkarRfIb8m2ULJNpmi5JCdOu4ZukgDXH+nhhoDyqQkpSVuoAkg+33VGumiLuhJuX2KmrPWTdLckaI6SLR3bI2sXz8GRaTKWUIgjmWjag0Y36XSSiweuFULontXWyKZM0p1ZJCMtgXCF2RFAOvzNuSOFPDm8FTOoAIBAfWfe0+lk0ya8X36iTTpx6USinQVL3QaME+8izdvAcI1Plzd0CwFDAAohgZQJWbHOSkKGkwUbzIJxVJUsLzFnVD0Z0EiJDeykejI3o6mTSswWDky8MNEyL25TCiJnyJ4GWYxc2IbnMipIsM0Oh8R2ep8Ml07t5rJ33ol2JmD1tDeJHbDuwqxGBn+Hbn6152tCvj1xlXwFSwPpJ0PAeCwRxQXpxwcWnMYSXWb2HfmH1ILWS9KmhsHqpPVSgobLDHL0EJcb/TJGTPRdAZIaMEC1itb7thJ+RiLhEBsKbu7ASaCewcDk/Fu4UJHSE6gXrhPwg4yUigYQuEnhtjecfI540Wt4XEZjZyPZa+e4gtu29FnJYTM8LhOV1qas0qLGfpMTVMgMj6m4uGG5/Tjb810NvcQfzYi2TLbMqlD80JLFw7+wmmez+rGoYdGDtu3Gv/nkf43fp2BsSlBcAAAAAElFTkSuQmCC;" vertex="1" parent="1">
                    <mxGeometry x="358" y="872" width="94.59" height="85.38" as="geometry"/>
                </mxCell>
                <mxCell id="128" value="" style="shape=image;verticalLabelPosition=bottom;labelBackgroundColor=#ffffff;verticalAlign=top;aspect=fixed;imageAspect=0;image=data:image/png,iVBORw0KGgoAAAANSUhEUgAAAIgAAAChCAYAAAAcGfesAAAQ3klEQVR4Xu2deVQV1x3Hvyi7CIoo7guCuCDihkskMVpt1GY5jUbTNK0xi5XE2Lpk6Ukae5JmqUvS6ommVpOj5pyoMWls1FaTatS4AYKIUfGpSERFCQKCrELP7+Ho4wlv7szceTPvzX3/CHLvb+78fp/3vb975869PnV1dXUQH7sHPtp/P4AyzBx5WHjklgd8BCD1njiYswLf2pLtP4+N/hDDu88SkAAQgADIvZaKdWlD4d+8lR2KqptFmDpgL6LbjrI8JJYHpKA0G6sOxcK3WT0c0qemtgjThx5Fh9B4S0NiaUBIOTZkjAPB0Bgg9H9TE3aia+shloXEsoDYru7Dl1kPNgqHo4rQz1PirdvdWBIQSkh3nUm+SzWakglSmPt7WjNxtRQgpZX52HNmEdIvLrmdkLL2HZS49m8/C2Ni3kBIQCRrNY8vZxlATuZvx47sF1BWdZZZOZyjS0rSwj8K43stR+/ICR4ffJYb8HpAaJTyje0tnClYp1g1mnKgpCajohYgPLgHi589tozXAmLvTmzvI/3Se2jmA9Wq4Sovob8N7rwQI7v/zmu7Ha8DhMDYn7MSaRcW2mPrPHzl/VWmbsebQfEaQC6VZCIldyWOXFqBgGb6g9FYflJZCyR2moe4DtO8Zu7EowEhtfghfxsOnn8LhRVnDQGjMVBq64CWAVEY3u01xHf8JQJ9w3gLl9vseRwgBIWtYA8OnV+ES2Up8POBLjkGjwhQMkufiOChGNZtgV1VPC2pNT0gtXVVuFCUiYvFKUi5sBIlFZl2p+uRePKAojEblKeQqtCHlCW+4yx0Dh2O9qExpk9uTQdI4Y1zKCzLQ0HZMWQX/Bv51w/Yp8Olj95Jp16QSHYd74X+LzxoKPq0m4aOYYloFdQOESG99G6CIvuGAUJdxfXKfJRVluBi8WFcvH4QV8tOoaI61w4EfeM8SSUUed2hsASMdL80EdcqKBbtWw5DVPhY+PsGItgvFCGBkYbkMlwBqagptt/6japC1NZWo7q2AlXV1bhWkYOS8vMoqrDhaikBcAWVN3+yz2pKjnHHkFRtEN1dzxkaUs1Av67wbxaO8BadERYYjVZBXRHZon4pQouAlmjWzA/+zYPh2zyQK0iygGTkbcbFohT4+gbd9lNFdT5u1JTaf2/uU4eS8mv2nynwVbWVdhWo//1O30tq4Pjx9K7C3dBI/qR/y2qA6tr6FvjZh/SwJ+t+vtEI8g1GHdqghW9wPTyB4bebGh7U8/bPNTXliGgZi8SuT7m8FVlAtmQl49jlFXa5l/uIoMt5SPvfaWRU7WIVcc0tcOSuRIANbD8F0wZu1AbIth/m4+ilJbrPSMrdkPh7/VJIV3Ao8RGBFBf5JKYlrBWAKHGcmcuW1dwZzWltpwBEqwdNVp8nHPX5jFAQk4VYfXN4wyEAUR8L09XkmXc43pxQENOFWl2D9FAPoSDqYmG6WnrBIQAxXaiVN0hPOAQgyuNhqhp6wyEAMVW4lTVGr6TUuRUiSVUWF9OUdod6CAUxTbiVNcRdcAhAlMXFFKXdCYcAxBQhZ2+Eu/IOMVHGHhPTlDQCDqEgpgm/fEPc3bVILRKjGPnYGF7CKDiEghgeevkGGAmHAEQ+PoaWMCrvEEmqoWFnv7jR6iEUhD1Wbi9pBjgEIG4PO9sFzQKHAIQtXm4tZSY4BCAqQy+90cb7/R4zJKXOLhHzIDKQOL71R0XpfZMuLSfZa10u3Wr/nd5Wo4/00pgacMwIh1CQJuCQoKBXFHuETUK31kloF9IbkaHdEODnj2Y+/rdrlleVorzmKmxXjuD8tb04V7wV1TU2xS+Um61rkW5QKIgTJPRNjggejYEdX0D/jj9HkH+Ioo6IgDmVvw9pecvtCsOy84BZ4RAK4hB6aR/2YZ2XYlT0Ew1UQhEhDoUP52zG7pxXcPOmrclXUs3atQgFcQgkBalXmzkYF/saWgVHqOWh0XpFNwqw98xKZOa/ftf+q2aHQyjIrTNfBrRfil/E/YErGM7G9pz+GHvPz2gAiZm7FqEgt/YlGdvzcyR2f1RXOCTjGT/+B9uzJ9i7G0+Aw9IKQvI+Ltp9cEiQ0PEinxxJsm/m4gkfS45iKCHt2WYBHkv4qyEx+jrrfez9cS6CfA25vKKLWg4QgiM8aDRmjtylyFG8Cy/b+zDyb2wxvZJYDhDqWuYkXVa97yjtulhwvQA+PhVoE9IZwf6tVQ2JaXSzeG9bAQjvb54We6Qece3exIP9X1NkhqDYdmIJzl9bZU8upal1aZo9JmIBEjv/Ft0j+imySyObHWdnmBoSSykIATJrxFVFcx2UL6Remutyf3eySxv0D26vDD6adf3LrpYCEEVfK50KK1UP2tp7bUoy8kpWMx8wRN1X+5BJ+NWgz5in6AnAg3lzTQuJZRSEAJk54izzJvmb0n8PW+HfFO/aSNcJ8X8Is5O+YkKdcpEPvm/LVNaIQpYBhHYgnj3qKJOPG5v1ZKp4qxApiZLZ2b/vG4MrZbtMqSKWAIS+1f0j2abT6Ru9Nm2YpkMNiRNKZqcPzGJKXM2crFoCEPpGTx3Adugx5QTH8iknaHgEu1IFKb8JxEeyTcad/ykNq1KHCAVR4mSeZQN8w/GbwYeYRi8f7b8fheW7VQPi+IQ22C8as0emyyasNJpZtn8gblTbeN42F1uWUBDKP56/J0V2QovOoFl9aJAmxzo+hCPnPjskFd3aDHZpk0ZMS/fcg9KqVE3X1qOy1wOiZGqdHqRtOJrEPKx1DojzE1py7kOxbA8EF383FEUVqabrZgQgDlGmFWA7bZNVAdLY43ty7vioNbg3xvVRGtQEsz6bEYA4AEKjie9zaepbWYLa1Mowcu7wTmyjp9UHn8O54lVCQfToJ13ZVNLFqAHE1bJBAYhDZMx6XozegLhaGSYAsTggcssGBSAWBkQODnKNAMSigLC+riAAsSggLOohFMRp6GCVJJUVDgGIBQFRAocAxGKAsOYdjm4ROYhJcxBpgxepeayvOUgLhZwPh6Zj4enxvdIPHUqc1IVtJvWTw8/Adm11g0uY4eUqr5tql7ZvCA2Iue3s5s1bMb0kRa9GnrjyxV0cVN5kPKa6EYL6tpvA9GonrUMpuHH8toWSqrOmWGXmVYBIS/0m9nte9tG+UjVwd3laArDP9qnhr0V4DSDSlPqzI/7r8XA4wmj0U16vAiQ6fA6mDPzA3V92Xa+3MeMlZOYvMuwprwBE1/BqNy4A0e5DuwXqYoSCcHKmgxmhIPx9ytWiUBBO7hQKwsmRTmaEgujjV25WhYJwcqVQEE6OFAqijyP1sioUhJNnhYJwcqRQEH0cqZdVoSCcPCsUhJMjhYLo40i9rAoF4eRZoSCcHCkURB9H6mVVKAgnzwoF4eRIoSD6OFIvq0JBOHlWKAgnRwoF0ceRelkVCsLJs0JBODlSKIg+jtTLqlAQTp4VCsLJkUJB9HGkXla9RkF2nPoz0i4sVLy/Fy/HCgXh5cmGdritKDuc+zF2Zjc81VGfJjduVQCij7cJkJFd5mFi38UuL+BTV1dX56rEyfzt2HxsoqotJHncmgCEhxfvtkGA3Nt9IcbHvqENEK2b0Gq9PXrtslurF/DrIcu0mjJVfaNzkPIa4PH4z5HQyfXRsbIKcqkkE5+kDDAsBymuKkLvNgIQ3nSTgkwfJH8Qgiwg9LLx8n19UFlTyLuNsvZoYxe6EQGIrKtUFXjxHvmDmGQBoStrPSlBTeuljV0EIGq857oO+TQ0IBovjT4ta5wJkN1nFuNAzgK3dTOOu/4IQGRjqLgA6wiGDDMB4u48xPnoDdHFKGbAZQUCZHLf7Ujo8oCsYSZA6ruZRBSWp+iuIo0dvRHd+mlMT/yn7M14UoH1qbNx8qflhm3/MP9etkOomQFxx4xqU7sNEvHPDGY7J84TIKEDnT88MMqQk6jIl/0insXjg//B5CpmQApKs7HqUKxuCiK32yAdAza6+7toF9Kb6cbMWqio/Ed8c/Z1ww4ZYh3eSv5jBoQqfJb+GM4VbtIFEpa9SunmaIdBT/74NYNh3Qr5L7JFPNMxbqoAoVnVTZlJ3AFhgcOToTBL21lnTx3bq0hB9JgTEXC4Bx9p7uPFUakI9A1jvqhiQHKvpeLTI0O5qIhc3sF8F6KgrAfUqAfzPIjz1bdkJeN4/gpNkAg4ZGPKrQCpR5eWozFz5C7FNhUrCF2BzqH96ECUJkBE16I4VqorECDPJaaga+shim2oAoSucjBnBb61JataJyLgUBwn1RWoaxkbJb/uo6kLqAaEnvKuT3sEecXbFSmJgEN1rBVXVJuYahrFOFZWOnkm8g7FMdZUQemkWGMXU60gkjHWNasCDk2xVlyZupZJMUtwb/RcxXW5KYhkiI4tS7+4xGU+IroWTXFSVJmUo0fYJDw17AvNByBoVhBqeXlVKdamjmnyaa+AQ1F8NRWW8o7kEfsQEhCpyZbqeZDGrtrU0FfAoTlGzAYIDjrNimUpIatRLgoiXYxmWdelDb3d1Yi8gzUMfMpR3vH8cHXzHdyHuU0ZzM7fjk233qMR6sEn8CxW1E6ly9nmqiDSxWgS7csTyQjylbu8+DsPDxAcE3otwuie83mYa2BDF0DoCrTQeXv2AgEJ95A1NEhw3Nf1ZUzs964uV9INEAGJLvFqYFRvOLiOYppyxx7bUmw9PU8oCWdeeE2EyTVLVwWRLk6zrZuPzxCQyEWD8e/ugsMtCiLdM+0SsD5jov1XM5w8zRgL0xUjOB7ttwaJXZ9yS9vcoiDSndCa1vUZSfb3bQUkyuJLPqPP5Dj5N/KVWXZd2q2AUFPoLb11Rx5FSaVNQMIYSYIjzL8VpibsVLXoh/EyjRZzOyDUCnpx6OsTC5B+aZ3IS2SiV79ccCimJGxAeHAPLbFWVdcQQKiltODom+x3sCeH9j9T1Xavr0T5xsAOT+KRuGWKVqLzdIxhgEg3kZG3CZ9nPSaSV6eoSltE/azXq5of2WsBxnBApLxkfdp9oN2ErK4mUgL/SF/3JqNNQWQKQKS8ZEP608i+ttWyeYnR+UZjkJgGEKlx246/gu9y37McJPZp827z8ECftw3tUpwhMR0g1ECaVPssc6Il5kvuzG9sREKnKVrSBV3qmhIQq3Q5pBpRYaMxJWGNIUNYFqJMC4jUeOk5jpHbJrA4UkkZaRsLHqvOlVxXTVnTAyKpyadp03C2eLfH5yakGp1bxuOJQf8yrWo4guQRgDiqyZYTMzxyzkRSDb1WfqlRB5Y6HgUI3RCtnt9x6mWkX97kMWpCqtGr9SQ8HLcUESG9WOJimjIeB4jkOemQgfKb5n0yfGfSy5wjFBYKPRYQurmKmmL879Q72H/hPVN1O1J3MqT9HEzo+yqXF5hYgqlHGY8GRHIILSHYkjXHFEmsNHQdG/MmotuO0iNmbrXpFYCQx+jpcObFr7Az+zlDnumQagQ1Byb12Yj4jg+bajZUC1FeA4jkBOp29pz5APtzF7plJlaaCR3Z+WWMiX3VsMfyWiBwVdfrAJFu1j7ayX4DWfnrdMlPJDDiIp/EfVHz0SE0Xq8YGWrXawGRvErvC+88tRDnirdyAUUCgzaF85Y8w5IK4nzTNCz++uSf7Ftg00fpuhMJDNqpOKnHn2SP8jL0a8/x4l6vIM6+ysjbjB2nX7EvmmYFRdpzY3zM216VgLJwZDlAJKfQUscdp//YJCiSYtDIZFyvNRjS5QmvGZmwgCGVsSwgd0DZjO0nJ6OoCqAnxvShAwNC/eqHrGZco6EkwFrL/h8Qm+vS+vzDdgAAAABJRU5ErkJggg==;" vertex="1" parent="1">
                    <mxGeometry x="664.9599999999999" y="51" width="65.04" height="77" as="geometry"/>
                </mxCell>
                <mxCell id="129" value="&lt;div&gt;&lt;font color=&quot;#000000&quot; style=&quot;background-color: rgb(255 , 255 , 255)&quot;&gt;&lt;span style=&quot;box-sizing: border-box ; font-size: 16px&quot;&gt;Microsoft Defender&lt;/span&gt;&lt;/font&gt;&lt;/div&gt;&lt;div&gt;&lt;font color=&quot;#000000&quot; style=&quot;background-color: rgb(255 , 255 , 255)&quot;&gt;&lt;span style=&quot;box-sizing: border-box ; font-size: 16px&quot;&gt;&amp;nbsp;for Cloud&amp;nbsp;&lt;/span&gt;&lt;/font&gt;&lt;/div&gt;" style="text;html=1;align=center;verticalAlign=middle;resizable=0;points=[];autosize=1;strokeColor=none;fillColor=none;" vertex="1" parent="1">
                    <mxGeometry x="624.98" y="141" width="145" height="35" as="geometry"/>
                </mxCell>
                <mxCell id="133" value="" style="group" vertex="1" connectable="0" parent="1">
                    <mxGeometry x="782.94" y="212" width="145" height="108" as="geometry"/>
                </mxCell>
                <mxCell id="131" value="" style="shape=image;verticalLabelPosition=bottom;labelBackgroundColor=#ffffff;verticalAlign=top;aspect=fixed;imageAspect=0;image=data:image/png,iVBORw0KGgoAAAANSUhEUgAAATYAAACjCAMAAAA3vsLfAAAA0lBMVEX///8VZr9Q5v/m5uZ76/9R6P9S6v8PXLsOWrpI0vNO4fsUZL4AX71G5f8TY74SYb3r6uf4/v8XasBT7f9q6f5Bw+vw/f9DyO6s8v85sOAedsUwnddL2fcpjc+j8f/m+//b+f8AVrr09fm+xtq79P/L9/+O7v8if8k+u+ZGzvF4mNC8yeXY2uEed8U2qt0ZbcEnic2GodTV3e7i5/PJ0umhtdxMe8Te3uOyvteTqtdiiMcsk9I7tOIyodg7dMPu8Peout5xltBVgMXG0OhnjMujstPdE9EiAAAMWElEQVR4nO2dCVfiPBSGpdCFJiRsigIqgoACsoiiiOL+///S1yZp6Qak0G+wy3tmzozaVvqcm9wtTY+O/pgKjfb1RSdTZsp0Lq7bjcKhP9WfVqF9Uc4RCabo1+WL9smhP93fVKGdEay87NJ+kmknRudU4XQDM5PcaWJyVunQNjNj5ISLxOJMtctOaKJo/3cFrnx96E/7R3TSsUATBUmToKp1IlWlX1vo5TqXh/7Ef0Ft0aQmaoDqx2e1cbdaLRJVq91x7ey4rkqSSS4nJAZX6FigqZVFtyhDjBBYCWEop7qLY9UCrhNz19AwZzVRytaqMkYg5SENnjxaZEXJ4Ca2D/3JD6jChWlqUnaBsScyUxie35ouIteJrUtdzWqSWoN4IzMiJC/qxlCN6wx3mVmNz5siBzRiceBsZXDlxqHv4Z/rspNbmdq5snl4WgTkbt2Y4YRcJl6xSGMFTSjdpDhNjRkcfjV9ai6XiY1vuLSmn5I6lrlNzcvgtHwrBibXOC1bUnZtVkshf9CIwaEzyQQn6GWlCFfkLtunjtJQKduFPk2NGRzs3pasCVdOyFy0o2R1hZPLRrt92ikLzsqQpL4hX7OaVQjV6iVbnq9fvUxqwZcnIba9y9OMXtqmd+SspYlSqf5W3M3UmMHhVC1ryVQNdvQ36eX0zEXj0Az861pwsTKZaUlSZTHaBxoDd36sushZEZ4emoJfNdYj0zL2t7ttmRQfOISrb5W6Rm4NulzYwpML56gU9bKQJKi3r+dVGAQzRg7D0fnZLSnLia6qZq5zaA4+ZWROOis9WFDV+u3NcNGtytC7yLEXObnaPR8e3+pVTVLWNAdu5tAcfCpDoQmVs2FtsRiPu1VEC2nBIjPRIb0sh6rd8XixqA3PKmKIsYnCuQKxBkuvO/4/vNz4NIAYKmNVDC026U3+J7A8BBel0GIrBTf1+9YVaduEEZuoKgejllKyCbYdJMcFm+YLAxzU8cAG5KuXyWSyvNo35YoTNiDP+k1y3vtjCibY+G4RwY/Vmc3PQKKW6GMD4MF27jwIbtHHhvuOkycBjNPIY4M958nN0f5+IerYQGrqOru/f8AXdWzox312c7RDPyte2OCjx+mfO/dm4oJNfvA4fb63U4g6NuXe4/THBNu2+0usbSUfc9uHx+nJ3LZNnp50uXfgFnVsALvjtockbtsqd5ZwNNs7bIs+thRMclJDviogyM6t2UuwcXGzZQr59FMySDm5zfrv5LxmM51O51v7d+/jgE1/5GD5NZn/fI1aaZ3bbxLu8oJDGGp/Z086t/TLvvFuXLAxwUlexzYo7jlMY4YthZ91bvnnPRsKccMGRgMyve0ZhcQNWwr/kNktvV9eGjtsKfhLhungKsHmRwDcE257Fd3ihy2FlmSU5r/2SBZiiC0FeyQKedKXMyuaoH9+ccRmRiHK58fDdPrw+HPld8DGEhsqkmQh3zSu9z6X/VlcLLGl0ItmbrYrTpe+DC6e2FJwnnde88sPt7hi+3Rf1E8ZLp7YwNLjou8p/sQhnthc/QUiH836SGEDCMqQY1Wzp7EdHTX5y0lRwgaLnx/9j/lsW/gK5A/vy/a4q5fRwQbkOW0YHPVn7tHGts/CEOqPTrpbzvRE7ipcZLAB5dv8cdMsepNHGiHEWH8GcPbSm8x/n1uDwZrL3nP3ZiKDTbbN8ksFEhW/Pnvzx99Wa/CUzjNp/1lz2XfuyS0q2BxLZKaPulE95U1Udq25bPywQcfyPxcpHmxT7sgtIthA0XHEOmrU+NZc9oE7cAsptpwT28xxRNNJSjO/p0Gr9fw7n3zOvj2v6mOVZTixdZzY0JfzEDalDQat5+fH+eRlViwW9bqk5lYRfPG+LH9bRq6HFZsgbhqk08d572e5HGmsIEFFAjfjaOS1EPqoz59cKfUw7gNCsElWbODdfsTkCiK6U6zXXSNPc/PRA5T1rRlCh43sOlOyxvRwbjugucUnej3l4afjrIQS2ynBdmdB4zC3bZM7gO/Oa/p6YFLWN7TIXfy7Ow5EbYLt3Jp5I6sv/d5mOHDijEJ89U1BlWAL2yazZEctqWYrWMAvM0H/2JZbgqUj6G36W96AxgRb2HbUOiHYzux1HoTm900tQ+p/bd3GE9KO3/zx/r3ZfL//oP0/fnPDNX3zylzY9l0s6NsEihXHfQKoFJdLuL13RxpX6XwLQuVK0f7Irby/Nj18JXt+hm63RZomeJfVtt40SNHFWmbPBc1ILsa/phfehjHaNSIQHz0T203P844VvGwVEnd1F+pbHIXOkR4dXZPJbbHT4he2dObJsgkNKNJvcRaOQDeUjtTwCa87rbXCdCb7sTKna3p5l5DjN+IRQvg2CuITsrtYG11vlG/ZOxEyme7SfC1mfKxjK4fOI7DJTdphawpj8e7SDshwrjyzGwChTK10tT0C3u33C7Vw49d7LaVChy7PE7r4PKRTmxa5CSRy8zNKgbyc30+nTR3PwNWEpolDesDhnfENmdpCOEZZpVIY+aAGH431bPn0i5u3vMYM3RcqkjEavqhNl99RCqybDUw9VjyAFFkr+LQ1NUWL0I5RTWSUZrkjXsXWR/Xar4cFIVtTU+pHwzlGDV/a5ZzdnM0Gr/wTtsj09qXImzaLBiMhrH5UFy0e3XCOUufSrG+PoiR6IaHJ4KPf//hB61Yu4SExtsZBbjoAkYhXuOMapQA7z77yOEp5zqcNtzHtrdkBdER3eP7HNxucrn0kWAA5z/aqlGhBiOWIvic3lliF7l0JK5Gun1rlMTc3Nq+lmI7NLx480IKi3uoTcv/sJoPXKa3x8pibG9uV+yDkbO17dGVwLZTNF6sKPszNubTm3sPaFNc2UjNXLsGMLYTFj5VoDPLK06nDjhX1HnuoeKzo/XAeBenMFtbog4ompnzmptgWnk49w13XL7h3diuiYGzG7HbMN7tZGsqee2p57FnmPE4mrZdQz2y6CiSEEhc8MS8qmtPb/dIrt5DdDys4sKEufbt1yI2NJfRinSszBbj3oAWzzYce8szIHMtIdL3b+AJckUKcxFuVoUEI1/oNgOXlbLaU14T/2L1lmX1VKmsqh7NiZNcl9Qp3nBk92PC2HbRsOq9ue1ABjIg/EBoHuM3ARYMQZ4N+J7kfjrF1ZOSbSPgDKrKuQZDeAuAGnOZme3YNL4g7KIfeH1BRryDwFt42yfGU6YO1dgRGqhARf0BFF/LWg3jTi9yz2Fvf1qOXbyOQH1jFhilXjrVNcGQEb+892wvC4ZC+VzgiQ1QXfe1mabz3JsQp/Ym35aT//f34qdgmS9Ql1EK3EHCjTun0tu+mbAwclPVegv17mDyHEBEvaooGvdn/7e10Mk0Pyoe+z4B1QuYd6fh/ehcifCVvOgzdotOtatPpbRjMW6yc1Oj7IaMTe6xEXysscdVCfAqPyduDIxR7WJRhUW/g3FCVdPgikcG7VSjTqLcaMDdQzJLYQwzp4oVtYm4hWw0gy7JSq0jRdAeGaNQr3e7/OiYLtdRxBONcu64pt0owYS+hhm4otRA34beLudPjoLABTJ92iaYTXalDud0E84J5AM9iQW3FLYg0y6QWzdDDpgzjFsDbgmVGLWqZqJdo+Ka3nPflprB5LYxPbfiXwa2i7MfNoBalwuQmrbjtAQ1cHZdiRW3FLZvaOe4FkOUGUelT8ajA/EJ9tGN+ilkeGpN5zZDBTd2tHoLv6nGkZnIT1fMd6pawq7J4LWbUTG6CUPMbiAC4oCvoY0jtyMgXRPGMY88Bq/CQQItBRuWt0xzry/gpJKHUjURtLWK9PX5dM27ZLvcEh6u3tPke7UrRZrXp9CZpjoFvoMJunVGLYJOKXw2BTXBDnooIwDW6NFcQIlzL5dEJTRhEngluNa2VI9s34FaHTXD1bROcEePGNPBwijlUUapt2mcLyAs2QOPrQu1qs8C3VAFrByrGNyUxcQY2XZbZQFXHawxOZumU5kEah/60f0eFjjFQz7CHwSE4lMRkWvMQi3z10NdlcPCOhbixjnG9xSI4bdof2g0OwZo5QGMerXnpJGMM1FurwcFqxRygMSrk+pA5UNUhYNVLhA1TSwboWjXKDoOTuxUDmtg49Kf7uzI8qiAJr1VFGQ1NU+skA3ST2qJhcGqlUjdmNSEJcbfoxDA4UWTFDs0XJJn7dl2zUMSAlpgan0yDS0zNn0yDS0zNlzSXqoHL5TpJCupPjY4gZBqH/hTr9B9geh6GHbGICQAAAABJRU5ErkJggg==;" vertex="1" parent="133">
                    <mxGeometry x="7.839999999999918" width="129.32" height="68" as="geometry"/>
                </mxCell>
                <mxCell id="132" value="&lt;div&gt;&lt;font color=&quot;#000000&quot; style=&quot;background-color: rgb(255 , 255 , 255)&quot;&gt;&lt;span style=&quot;box-sizing: border-box ; font-size: 16px&quot;&gt;Microsoft Defender&lt;/span&gt;&lt;/font&gt;&lt;/div&gt;&lt;div&gt;&lt;font color=&quot;#000000&quot; style=&quot;background-color: rgb(255 , 255 , 255)&quot;&gt;&lt;span style=&quot;box-sizing: border-box ; font-size: 16px&quot;&gt;for Containers&lt;/span&gt;&lt;/font&gt;&lt;/div&gt;" style="text;html=1;align=center;verticalAlign=middle;resizable=0;points=[];autosize=1;strokeColor=none;fillColor=none;" vertex="1" parent="133">
                    <mxGeometry y="73" width="145" height="35" as="geometry"/>
                </mxCell>
                <mxCell id="134" value="" style="group" vertex="1" connectable="0" parent="1">
                    <mxGeometry x="782.94" y="814" width="145" height="108" as="geometry"/>
                </mxCell>
                <mxCell id="135" value="" style="shape=image;verticalLabelPosition=bottom;labelBackgroundColor=#ffffff;verticalAlign=top;aspect=fixed;imageAspect=0;image=data:image/png,iVBORw0KGgoAAAANSUhEUgAAATYAAACjCAMAAAA3vsLfAAAA0lBMVEX///8VZr9Q5v/m5uZ76/9R6P9S6v8PXLsOWrpI0vNO4fsUZL4AX71G5f8TY74SYb3r6uf4/v8XasBT7f9q6f5Bw+vw/f9DyO6s8v85sOAedsUwnddL2fcpjc+j8f/m+//b+f8AVrr09fm+xtq79P/L9/+O7v8if8k+u+ZGzvF4mNC8yeXY2uEed8U2qt0ZbcEnic2GodTV3e7i5/PJ0umhtdxMe8Te3uOyvteTqtdiiMcsk9I7tOIyodg7dMPu8Peout5xltBVgMXG0OhnjMujstPdE9EiAAAMWElEQVR4nO2dCVfiPBSGpdCFJiRsigIqgoACsoiiiOL+///S1yZp6Qak0G+wy3tmzozaVvqcm9wtTY+O/pgKjfb1RSdTZsp0Lq7bjcKhP9WfVqF9Uc4RCabo1+WL9smhP93fVKGdEay87NJ+kmknRudU4XQDM5PcaWJyVunQNjNj5ISLxOJMtctOaKJo/3cFrnx96E/7R3TSsUATBUmToKp1IlWlX1vo5TqXh/7Ef0Ft0aQmaoDqx2e1cbdaLRJVq91x7ey4rkqSSS4nJAZX6FigqZVFtyhDjBBYCWEop7qLY9UCrhNz19AwZzVRytaqMkYg5SENnjxaZEXJ4Ca2D/3JD6jChWlqUnaBsScyUxie35ouIteJrUtdzWqSWoN4IzMiJC/qxlCN6wx3mVmNz5siBzRiceBsZXDlxqHv4Z/rspNbmdq5snl4WgTkbt2Y4YRcJl6xSGMFTSjdpDhNjRkcfjV9ai6XiY1vuLSmn5I6lrlNzcvgtHwrBibXOC1bUnZtVkshf9CIwaEzyQQn6GWlCFfkLtunjtJQKduFPk2NGRzs3pasCVdOyFy0o2R1hZPLRrt92ikLzsqQpL4hX7OaVQjV6iVbnq9fvUxqwZcnIba9y9OMXtqmd+SspYlSqf5W3M3UmMHhVC1ryVQNdvQ36eX0zEXj0Az861pwsTKZaUlSZTHaBxoDd36sushZEZ4emoJfNdYj0zL2t7ttmRQfOISrb5W6Rm4NulzYwpML56gU9bKQJKi3r+dVGAQzRg7D0fnZLSnLia6qZq5zaA4+ZWROOis9WFDV+u3NcNGtytC7yLEXObnaPR8e3+pVTVLWNAdu5tAcfCpDoQmVs2FtsRiPu1VEC2nBIjPRIb0sh6rd8XixqA3PKmKIsYnCuQKxBkuvO/4/vNz4NIAYKmNVDC026U3+J7A8BBel0GIrBTf1+9YVaduEEZuoKgejllKyCbYdJMcFm+YLAxzU8cAG5KuXyWSyvNo35YoTNiDP+k1y3vtjCibY+G4RwY/Vmc3PQKKW6GMD4MF27jwIbtHHhvuOkycBjNPIY4M958nN0f5+IerYQGrqOru/f8AXdWzox312c7RDPyte2OCjx+mfO/dm4oJNfvA4fb63U4g6NuXe4/THBNu2+0usbSUfc9uHx+nJ3LZNnp50uXfgFnVsALvjtockbtsqd5ZwNNs7bIs+thRMclJDviogyM6t2UuwcXGzZQr59FMySDm5zfrv5LxmM51O51v7d+/jgE1/5GD5NZn/fI1aaZ3bbxLu8oJDGGp/Z086t/TLvvFuXLAxwUlexzYo7jlMY4YthZ91bvnnPRsKccMGRgMyve0ZhcQNWwr/kNktvV9eGjtsKfhLhungKsHmRwDcE257Fd3ihy2FlmSU5r/2SBZiiC0FeyQKedKXMyuaoH9+ccRmRiHK58fDdPrw+HPld8DGEhsqkmQh3zSu9z6X/VlcLLGl0ItmbrYrTpe+DC6e2FJwnnde88sPt7hi+3Rf1E8ZLp7YwNLjou8p/sQhnthc/QUiH836SGEDCMqQY1Wzp7EdHTX5y0lRwgaLnx/9j/lsW/gK5A/vy/a4q5fRwQbkOW0YHPVn7tHGts/CEOqPTrpbzvRE7ipcZLAB5dv8cdMsepNHGiHEWH8GcPbSm8x/n1uDwZrL3nP3ZiKDTbbN8ksFEhW/Pnvzx99Wa/CUzjNp/1lz2XfuyS0q2BxLZKaPulE95U1Udq25bPywQcfyPxcpHmxT7sgtIthA0XHEOmrU+NZc9oE7cAsptpwT28xxRNNJSjO/p0Gr9fw7n3zOvj2v6mOVZTixdZzY0JfzEDalDQat5+fH+eRlViwW9bqk5lYRfPG+LH9bRq6HFZsgbhqk08d572e5HGmsIEFFAjfjaOS1EPqoz59cKfUw7gNCsElWbODdfsTkCiK6U6zXXSNPc/PRA5T1rRlCh43sOlOyxvRwbjugucUnej3l4afjrIQS2ynBdmdB4zC3bZM7gO/Oa/p6YFLWN7TIXfy7Ow5EbYLt3Jp5I6sv/d5mOHDijEJ89U1BlWAL2yazZEctqWYrWMAvM0H/2JZbgqUj6G36W96AxgRb2HbUOiHYzux1HoTm900tQ+p/bd3GE9KO3/zx/r3ZfL//oP0/fnPDNX3zylzY9l0s6NsEihXHfQKoFJdLuL13RxpX6XwLQuVK0f7Irby/Nj18JXt+hm63RZomeJfVtt40SNHFWmbPBc1ILsa/phfehjHaNSIQHz0T203P844VvGwVEnd1F+pbHIXOkR4dXZPJbbHT4he2dObJsgkNKNJvcRaOQDeUjtTwCa87rbXCdCb7sTKna3p5l5DjN+IRQvg2CuITsrtYG11vlG/ZOxEyme7SfC1mfKxjK4fOI7DJTdphawpj8e7SDshwrjyzGwChTK10tT0C3u33C7Vw49d7LaVChy7PE7r4PKRTmxa5CSRy8zNKgbyc30+nTR3PwNWEpolDesDhnfENmdpCOEZZpVIY+aAGH431bPn0i5u3vMYM3RcqkjEavqhNl99RCqybDUw9VjyAFFkr+LQ1NUWL0I5RTWSUZrkjXsXWR/Xar4cFIVtTU+pHwzlGDV/a5ZzdnM0Gr/wTtsj09qXImzaLBiMhrH5UFy0e3XCOUufSrG+PoiR6IaHJ4KPf//hB61Yu4SExtsZBbjoAkYhXuOMapQA7z77yOEp5zqcNtzHtrdkBdER3eP7HNxucrn0kWAA5z/aqlGhBiOWIvic3lliF7l0JK5Gun1rlMTc3Nq+lmI7NLx480IKi3uoTcv/sJoPXKa3x8pibG9uV+yDkbO17dGVwLZTNF6sKPszNubTm3sPaFNc2UjNXLsGMLYTFj5VoDPLK06nDjhX1HnuoeKzo/XAeBenMFtbog4ompnzmptgWnk49w13XL7h3diuiYGzG7HbMN7tZGsqee2p57FnmPE4mrZdQz2y6CiSEEhc8MS8qmtPb/dIrt5DdDys4sKEufbt1yI2NJfRinSszBbj3oAWzzYce8szIHMtIdL3b+AJckUKcxFuVoUEI1/oNgOXlbLaU14T/2L1lmX1VKmsqh7NiZNcl9Qp3nBk92PC2HbRsOq9ue1ABjIg/EBoHuM3ARYMQZ4N+J7kfjrF1ZOSbSPgDKrKuQZDeAuAGnOZme3YNL4g7KIfeH1BRryDwFt42yfGU6YO1dgRGqhARf0BFF/LWg3jTi9yz2Fvf1qOXbyOQH1jFhilXjrVNcGQEb+892wvC4ZC+VzgiQ1QXfe1mabz3JsQp/Ym35aT//f34qdgmS9Ql1EK3EHCjTun0tu+mbAwclPVegv17mDyHEBEvaooGvdn/7e10Mk0Pyoe+z4B1QuYd6fh/ehcifCVvOgzdotOtatPpbRjMW6yc1Oj7IaMTe6xEXysscdVCfAqPyduDIxR7WJRhUW/g3FCVdPgikcG7VSjTqLcaMDdQzJLYQwzp4oVtYm4hWw0gy7JSq0jRdAeGaNQr3e7/OiYLtdRxBONcu64pt0owYS+hhm4otRA34beLudPjoLABTJ92iaYTXalDud0E84J5AM9iQW3FLYg0y6QWzdDDpgzjFsDbgmVGLWqZqJdo+Ka3nPflprB5LYxPbfiXwa2i7MfNoBalwuQmrbjtAQ1cHZdiRW3FLZvaOe4FkOUGUelT8ajA/EJ9tGN+ilkeGpN5zZDBTd2tHoLv6nGkZnIT1fMd6pawq7J4LWbUTG6CUPMbiAC4oCvoY0jtyMgXRPGMY88Bq/CQQItBRuWt0xzry/gpJKHUjURtLWK9PX5dM27ZLvcEh6u3tPke7UrRZrXp9CZpjoFvoMJunVGLYJOKXw2BTXBDnooIwDW6NFcQIlzL5dEJTRhEngluNa2VI9s34FaHTXD1bROcEePGNPBwijlUUapt2mcLyAs2QOPrQu1qs8C3VAFrByrGNyUxcQY2XZbZQFXHawxOZumU5kEah/60f0eFjjFQz7CHwSE4lMRkWvMQi3z10NdlcPCOhbixjnG9xSI4bdof2g0OwZo5QGMerXnpJGMM1FurwcFqxRygMSrk+pA5UNUhYNVLhA1TSwboWjXKDoOTuxUDmtg49Kf7uzI8qiAJr1VFGQ1NU+skA3ST2qJhcGqlUjdmNSEJcbfoxDA4UWTFDs0XJJn7dl2zUMSAlpgan0yDS0zNn0yDS0zNlzSXqoHL5TpJCupPjY4gZBqH/hTr9B9geh6GHbGICQAAAABJRU5ErkJggg==;" vertex="1" parent="134">
                    <mxGeometry x="7.839999999999918" width="129.32" height="68" as="geometry"/>
                </mxCell>
                <mxCell id="136" value="&lt;div&gt;&lt;font color=&quot;#000000&quot; style=&quot;background-color: rgb(255 , 255 , 255)&quot;&gt;&lt;span style=&quot;box-sizing: border-box ; font-size: 16px&quot;&gt;Microsoft Defender&lt;/span&gt;&lt;/font&gt;&lt;/div&gt;&lt;div&gt;&lt;font color=&quot;#000000&quot; style=&quot;background-color: rgb(255 , 255 , 255)&quot;&gt;&lt;span style=&quot;box-sizing: border-box ; font-size: 16px&quot;&gt;for Containers&lt;/span&gt;&lt;/font&gt;&lt;/div&gt;" style="text;html=1;align=center;verticalAlign=middle;resizable=0;points=[];autosize=1;strokeColor=none;fillColor=none;" vertex="1" parent="134">
                    <mxGeometry y="73" width="145" height="35" as="geometry"/>
                </mxCell>
                <mxCell id="137" value="" style="group" vertex="1" connectable="0" parent="1">
                    <mxGeometry x="1302.94" y="221" width="145" height="108" as="geometry"/>
                </mxCell>
                <mxCell id="138" value="" style="shape=image;verticalLabelPosition=bottom;labelBackgroundColor=#ffffff;verticalAlign=top;aspect=fixed;imageAspect=0;image=data:image/png,iVBORw0KGgoAAAANSUhEUgAAATYAAACjCAMAAAA3vsLfAAAA0lBMVEX///8VZr9Q5v/m5uZ76/9R6P9S6v8PXLsOWrpI0vNO4fsUZL4AX71G5f8TY74SYb3r6uf4/v8XasBT7f9q6f5Bw+vw/f9DyO6s8v85sOAedsUwnddL2fcpjc+j8f/m+//b+f8AVrr09fm+xtq79P/L9/+O7v8if8k+u+ZGzvF4mNC8yeXY2uEed8U2qt0ZbcEnic2GodTV3e7i5/PJ0umhtdxMe8Te3uOyvteTqtdiiMcsk9I7tOIyodg7dMPu8Peout5xltBVgMXG0OhnjMujstPdE9EiAAAMWElEQVR4nO2dCVfiPBSGpdCFJiRsigIqgoACsoiiiOL+///S1yZp6Qak0G+wy3tmzozaVvqcm9wtTY+O/pgKjfb1RSdTZsp0Lq7bjcKhP9WfVqF9Uc4RCabo1+WL9smhP93fVKGdEay87NJ+kmknRudU4XQDM5PcaWJyVunQNjNj5ISLxOJMtctOaKJo/3cFrnx96E/7R3TSsUATBUmToKp1IlWlX1vo5TqXh/7Ef0Ft0aQmaoDqx2e1cbdaLRJVq91x7ey4rkqSSS4nJAZX6FigqZVFtyhDjBBYCWEop7qLY9UCrhNz19AwZzVRytaqMkYg5SENnjxaZEXJ4Ca2D/3JD6jChWlqUnaBsScyUxie35ouIteJrUtdzWqSWoN4IzMiJC/qxlCN6wx3mVmNz5siBzRiceBsZXDlxqHv4Z/rspNbmdq5snl4WgTkbt2Y4YRcJl6xSGMFTSjdpDhNjRkcfjV9ai6XiY1vuLSmn5I6lrlNzcvgtHwrBibXOC1bUnZtVkshf9CIwaEzyQQn6GWlCFfkLtunjtJQKduFPk2NGRzs3pasCVdOyFy0o2R1hZPLRrt92ikLzsqQpL4hX7OaVQjV6iVbnq9fvUxqwZcnIba9y9OMXtqmd+SspYlSqf5W3M3UmMHhVC1ryVQNdvQ36eX0zEXj0Az861pwsTKZaUlSZTHaBxoDd36sushZEZ4emoJfNdYj0zL2t7ttmRQfOISrb5W6Rm4NulzYwpML56gU9bKQJKi3r+dVGAQzRg7D0fnZLSnLia6qZq5zaA4+ZWROOis9WFDV+u3NcNGtytC7yLEXObnaPR8e3+pVTVLWNAdu5tAcfCpDoQmVs2FtsRiPu1VEC2nBIjPRIb0sh6rd8XixqA3PKmKIsYnCuQKxBkuvO/4/vNz4NIAYKmNVDC026U3+J7A8BBel0GIrBTf1+9YVaduEEZuoKgejllKyCbYdJMcFm+YLAxzU8cAG5KuXyWSyvNo35YoTNiDP+k1y3vtjCibY+G4RwY/Vmc3PQKKW6GMD4MF27jwIbtHHhvuOkycBjNPIY4M958nN0f5+IerYQGrqOru/f8AXdWzox312c7RDPyte2OCjx+mfO/dm4oJNfvA4fb63U4g6NuXe4/THBNu2+0usbSUfc9uHx+nJ3LZNnp50uXfgFnVsALvjtockbtsqd5ZwNNs7bIs+thRMclJDviogyM6t2UuwcXGzZQr59FMySDm5zfrv5LxmM51O51v7d+/jgE1/5GD5NZn/fI1aaZ3bbxLu8oJDGGp/Z086t/TLvvFuXLAxwUlexzYo7jlMY4YthZ91bvnnPRsKccMGRgMyve0ZhcQNWwr/kNktvV9eGjtsKfhLhungKsHmRwDcE257Fd3ihy2FlmSU5r/2SBZiiC0FeyQKedKXMyuaoH9+ccRmRiHK58fDdPrw+HPld8DGEhsqkmQh3zSu9z6X/VlcLLGl0ItmbrYrTpe+DC6e2FJwnnde88sPt7hi+3Rf1E8ZLp7YwNLjou8p/sQhnthc/QUiH836SGEDCMqQY1Wzp7EdHTX5y0lRwgaLnx/9j/lsW/gK5A/vy/a4q5fRwQbkOW0YHPVn7tHGts/CEOqPTrpbzvRE7ipcZLAB5dv8cdMsepNHGiHEWH8GcPbSm8x/n1uDwZrL3nP3ZiKDTbbN8ksFEhW/Pnvzx99Wa/CUzjNp/1lz2XfuyS0q2BxLZKaPulE95U1Udq25bPywQcfyPxcpHmxT7sgtIthA0XHEOmrU+NZc9oE7cAsptpwT28xxRNNJSjO/p0Gr9fw7n3zOvj2v6mOVZTixdZzY0JfzEDalDQat5+fH+eRlViwW9bqk5lYRfPG+LH9bRq6HFZsgbhqk08d572e5HGmsIEFFAjfjaOS1EPqoz59cKfUw7gNCsElWbODdfsTkCiK6U6zXXSNPc/PRA5T1rRlCh43sOlOyxvRwbjugucUnej3l4afjrIQS2ynBdmdB4zC3bZM7gO/Oa/p6YFLWN7TIXfy7Ow5EbYLt3Jp5I6sv/d5mOHDijEJ89U1BlWAL2yazZEctqWYrWMAvM0H/2JZbgqUj6G36W96AxgRb2HbUOiHYzux1HoTm900tQ+p/bd3GE9KO3/zx/r3ZfL//oP0/fnPDNX3zylzY9l0s6NsEihXHfQKoFJdLuL13RxpX6XwLQuVK0f7Irby/Nj18JXt+hm63RZomeJfVtt40SNHFWmbPBc1ILsa/phfehjHaNSIQHz0T203P844VvGwVEnd1F+pbHIXOkR4dXZPJbbHT4he2dObJsgkNKNJvcRaOQDeUjtTwCa87rbXCdCb7sTKna3p5l5DjN+IRQvg2CuITsrtYG11vlG/ZOxEyme7SfC1mfKxjK4fOI7DJTdphawpj8e7SDshwrjyzGwChTK10tT0C3u33C7Vw49d7LaVChy7PE7r4PKRTmxa5CSRy8zNKgbyc30+nTR3PwNWEpolDesDhnfENmdpCOEZZpVIY+aAGH431bPn0i5u3vMYM3RcqkjEavqhNl99RCqybDUw9VjyAFFkr+LQ1NUWL0I5RTWSUZrkjXsXWR/Xar4cFIVtTU+pHwzlGDV/a5ZzdnM0Gr/wTtsj09qXImzaLBiMhrH5UFy0e3XCOUufSrG+PoiR6IaHJ4KPf//hB61Yu4SExtsZBbjoAkYhXuOMapQA7z77yOEp5zqcNtzHtrdkBdER3eP7HNxucrn0kWAA5z/aqlGhBiOWIvic3lliF7l0JK5Gun1rlMTc3Nq+lmI7NLx480IKi3uoTcv/sJoPXKa3x8pibG9uV+yDkbO17dGVwLZTNF6sKPszNubTm3sPaFNc2UjNXLsGMLYTFj5VoDPLK06nDjhX1HnuoeKzo/XAeBenMFtbog4ompnzmptgWnk49w13XL7h3diuiYGzG7HbMN7tZGsqee2p57FnmPE4mrZdQz2y6CiSEEhc8MS8qmtPb/dIrt5DdDys4sKEufbt1yI2NJfRinSszBbj3oAWzzYce8szIHMtIdL3b+AJckUKcxFuVoUEI1/oNgOXlbLaU14T/2L1lmX1VKmsqh7NiZNcl9Qp3nBk92PC2HbRsOq9ue1ABjIg/EBoHuM3ARYMQZ4N+J7kfjrF1ZOSbSPgDKrKuQZDeAuAGnOZme3YNL4g7KIfeH1BRryDwFt42yfGU6YO1dgRGqhARf0BFF/LWg3jTi9yz2Fvf1qOXbyOQH1jFhilXjrVNcGQEb+892wvC4ZC+VzgiQ1QXfe1mabz3JsQp/Ym35aT//f34qdgmS9Ql1EK3EHCjTun0tu+mbAwclPVegv17mDyHEBEvaooGvdn/7e10Mk0Pyoe+z4B1QuYd6fh/ehcifCVvOgzdotOtatPpbRjMW6yc1Oj7IaMTe6xEXysscdVCfAqPyduDIxR7WJRhUW/g3FCVdPgikcG7VSjTqLcaMDdQzJLYQwzp4oVtYm4hWw0gy7JSq0jRdAeGaNQr3e7/OiYLtdRxBONcu64pt0owYS+hhm4otRA34beLudPjoLABTJ92iaYTXalDud0E84J5AM9iQW3FLYg0y6QWzdDDpgzjFsDbgmVGLWqZqJdo+Ka3nPflprB5LYxPbfiXwa2i7MfNoBalwuQmrbjtAQ1cHZdiRW3FLZvaOe4FkOUGUelT8ajA/EJ9tGN+ilkeGpN5zZDBTd2tHoLv6nGkZnIT1fMd6pawq7J4LWbUTG6CUPMbiAC4oCvoY0jtyMgXRPGMY88Bq/CQQItBRuWt0xzry/gpJKHUjURtLWK9PX5dM27ZLvcEh6u3tPke7UrRZrXp9CZpjoFvoMJunVGLYJOKXw2BTXBDnooIwDW6NFcQIlzL5dEJTRhEngluNa2VI9s34FaHTXD1bROcEePGNPBwijlUUapt2mcLyAs2QOPrQu1qs8C3VAFrByrGNyUxcQY2XZbZQFXHawxOZumU5kEah/60f0eFjjFQz7CHwSE4lMRkWvMQi3z10NdlcPCOhbixjnG9xSI4bdof2g0OwZo5QGMerXnpJGMM1FurwcFqxRygMSrk+pA5UNUhYNVLhA1TSwboWjXKDoOTuxUDmtg49Kf7uzI8qiAJr1VFGQ1NU+skA3ST2qJhcGqlUjdmNSEJcbfoxDA4UWTFDs0XJJn7dl2zUMSAlpgan0yDS0zNn0yDS0zNlzSXqoHL5TpJCupPjY4gZBqH/hTr9B9geh6GHbGICQAAAABJRU5ErkJggg==;" vertex="1" parent="137">
                    <mxGeometry x="7.839999999999918" width="129.32" height="68" as="geometry"/>
                </mxCell>
                <mxCell id="139" value="&lt;div&gt;&lt;font color=&quot;#000000&quot; style=&quot;background-color: rgb(255 , 255 , 255)&quot;&gt;&lt;span style=&quot;box-sizing: border-box ; font-size: 16px&quot;&gt;Microsoft Defender&lt;/span&gt;&lt;/font&gt;&lt;/div&gt;&lt;div&gt;&lt;font color=&quot;#000000&quot; style=&quot;background-color: rgb(255 , 255 , 255)&quot;&gt;&lt;span style=&quot;box-sizing: border-box ; font-size: 16px&quot;&gt;for Containers&lt;/span&gt;&lt;/font&gt;&lt;/div&gt;" style="text;html=1;align=center;verticalAlign=middle;resizable=0;points=[];autosize=1;strokeColor=none;fillColor=none;" vertex="1" parent="137">
                    <mxGeometry y="73" width="145" height="35" as="geometry"/>
                </mxCell>
            </root>
        </mxGraphModel>
    </diagram>
</mxfile>